<?xml version="1.0" encoding="UTF-8"?>
<svg xmlns="http://www.w3.org/2000/svg" xmlns:xlink="http://www.w3.org/1999/xlink" width="1628" height="338" viewBox="0 0 1628 338" version="1.1">
<g id="surface689197">
<path style="fill:none;stroke-width:1;stroke-linecap:round;stroke-linejoin:round;stroke:rgb(74.509804%,74.509804%,74.509804%);stroke-opacity:1;stroke-miterlimit:10;" d="M 1052.671875 8 L 1466.4375 54 "/>
<path style="fill:none;stroke-width:1;stroke-linecap:round;stroke-linejoin:round;stroke:rgb(74.509804%,74.509804%,74.509804%);stroke-opacity:1;stroke-miterlimit:10;" d="M 1052.671875 8 L 638.90625 54 "/>
<path style="fill:none;stroke-width:1;stroke-linecap:round;stroke-linejoin:round;stroke:rgb(74.509804%,74.509804%,74.509804%);stroke-opacity:1;stroke-miterlimit:10;" d="M 638.90625 54 L 922.0625 100 "/>
<path style="fill:none;stroke-width:1;stroke-linecap:round;stroke-linejoin:round;stroke:rgb(74.509804%,74.509804%,74.509804%);stroke-opacity:1;stroke-miterlimit:10;" d="M 638.90625 54 L 355.75 100 "/>
<path style="fill:none;stroke-width:1;stroke-linecap:round;stroke-linejoin:round;stroke:rgb(74.509804%,74.509804%,74.509804%);stroke-opacity:1;stroke-miterlimit:10;" d="M 355.75 100 L 534.5 146 "/>
<path style="fill:none;stroke-width:1;stroke-linecap:round;stroke-linejoin:round;stroke:rgb(74.509804%,74.509804%,74.509804%);stroke-opacity:1;stroke-miterlimit:10;" d="M 355.75 100 L 177 146 "/>
<path style="fill:none;stroke-width:1;stroke-linecap:round;stroke-linejoin:round;stroke:rgb(74.509804%,74.509804%,74.509804%);stroke-opacity:1;stroke-miterlimit:10;" d="M 177 146 L 277.75 192 "/>
<path style="fill:none;stroke-width:1;stroke-linecap:round;stroke-linejoin:round;stroke:rgb(74.509804%,74.509804%,74.509804%);stroke-opacity:1;stroke-miterlimit:10;" d="M 177 146 L 76.25 192 "/>
<path style="fill:none;stroke-width:1;stroke-linecap:round;stroke-linejoin:round;stroke:rgb(74.509804%,74.509804%,74.509804%);stroke-opacity:1;stroke-miterlimit:10;" d="M 76.25 192 L 125 238 "/>
<path style="fill:none;stroke-width:1;stroke-linecap:round;stroke-linejoin:round;stroke:rgb(74.509804%,74.509804%,74.509804%);stroke-opacity:1;stroke-miterlimit:10;" d="M 76.25 192 L 27.5 238 "/>
<path style="fill:none;stroke-width:1;stroke-linecap:round;stroke-linejoin:round;stroke:rgb(74.509804%,74.509804%,74.509804%);stroke-opacity:1;stroke-miterlimit:10;" d="M 27.5 238 L 47 284 "/>
<path style="fill:none;stroke-width:1;stroke-linecap:round;stroke-linejoin:round;stroke:rgb(74.509804%,74.509804%,74.509804%);stroke-opacity:1;stroke-miterlimit:10;" d="M 27.5 238 L 8 284 "/>
<path style=" stroke:none;fill-rule:nonzero;fill:rgb(0%,0%,0%);fill-opacity:1;" d="M 8 284 L 16 284 C 16 279.582031 12.417969 276 8 276 C 3.582031 276 0 279.582031 0 284 C 0 288.417969 3.582031 292 8 292 C 12.417969 292 16 288.417969 16 284 Z "/>
<path style=" stroke:none;fill-rule:nonzero;fill:rgb(100%,100%,100%);fill-opacity:1;" d="M 8 284 L 14 284 C 14 280.6875 11.3125 278 8 278 C 4.6875 278 2 280.6875 2 284 C 2 287.3125 4.6875 290 8 290 C 11.3125 290 14 287.3125 14 284 Z "/>
<path style="fill:none;stroke-width:1;stroke-linecap:round;stroke-linejoin:round;stroke:rgb(74.509804%,74.509804%,74.509804%);stroke-opacity:1;stroke-miterlimit:10;" d="M 47 284 L 60 330 "/>
<path style="fill:none;stroke-width:1;stroke-linecap:round;stroke-linejoin:round;stroke:rgb(74.509804%,74.509804%,74.509804%);stroke-opacity:1;stroke-miterlimit:10;" d="M 47 284 L 34 330 "/>
<path style=" stroke:none;fill-rule:nonzero;fill:rgb(0%,0%,0%);fill-opacity:1;" d="M 34 330 L 42 330 C 42 325.582031 38.417969 322 34 322 C 29.582031 322 26 325.582031 26 330 C 26 334.417969 29.582031 338 34 338 C 38.417969 338 42 334.417969 42 330 Z "/>
<path style=" stroke:none;fill-rule:nonzero;fill:rgb(100%,100%,100%);fill-opacity:1;" d="M 34 330 L 40 330 C 40 326.6875 37.3125 324 34 324 C 30.6875 324 28 326.6875 28 330 C 28 333.3125 30.6875 336 34 336 C 37.3125 336 40 333.3125 40 330 Z "/>
<path style=" stroke:none;fill-rule:nonzero;fill:rgb(0%,0%,0%);fill-opacity:1;" d="M 60 330 L 68 330 C 68 325.582031 64.417969 322 60 322 C 55.582031 322 52 325.582031 52 330 C 52 334.417969 55.582031 338 60 338 C 64.417969 338 68 334.417969 68 330 Z "/>
<path style=" stroke:none;fill-rule:nonzero;fill:rgb(100%,100%,100%);fill-opacity:1;" d="M 60 330 L 66 330 C 66 326.6875 63.3125 324 60 324 C 56.6875 324 54 326.6875 54 330 C 54 333.3125 56.6875 336 60 336 C 63.3125 336 66 333.3125 66 330 Z "/>
<path style=" stroke:none;fill-rule:nonzero;fill:rgb(0%,0%,0%);fill-opacity:1;" d="M 47 284 L 55 284 C 55 279.582031 51.417969 276 47 276 C 42.582031 276 39 279.582031 39 284 C 39 288.417969 42.582031 292 47 292 C 51.417969 292 55 288.417969 55 284 Z "/>
<path style=" stroke:none;fill-rule:nonzero;fill:rgb(100%,100%,100%);fill-opacity:1;" d="M 47 284 L 53 284 C 53 280.6875 50.3125 278 47 278 C 43.6875 278 41 280.6875 41 284 C 41 287.3125 43.6875 290 47 290 C 50.3125 290 53 287.3125 53 284 Z "/>
<path style=" stroke:none;fill-rule:nonzero;fill:rgb(0%,0%,0%);fill-opacity:1;" d="M 27.5 238 L 35.5 238 C 35.5 233.582031 31.917969 230 27.5 230 C 23.082031 230 19.5 233.582031 19.5 238 C 19.5 242.417969 23.082031 246 27.5 246 C 31.917969 246 35.5 242.417969 35.5 238 Z "/>
<path style=" stroke:none;fill-rule:nonzero;fill:rgb(100%,100%,100%);fill-opacity:1;" d="M 27.5 238 L 33.5 238 C 33.5 234.6875 30.8125 232 27.5 232 C 24.1875 232 21.5 234.6875 21.5 238 C 21.5 241.3125 24.1875 244 27.5 244 C 30.8125 244 33.5 241.3125 33.5 238 Z "/>
<path style="fill:none;stroke-width:1;stroke-linecap:round;stroke-linejoin:round;stroke:rgb(74.509804%,74.509804%,74.509804%);stroke-opacity:1;stroke-miterlimit:10;" d="M 125 238 L 151 284 "/>
<path style="fill:none;stroke-width:1;stroke-linecap:round;stroke-linejoin:round;stroke:rgb(74.509804%,74.509804%,74.509804%);stroke-opacity:1;stroke-miterlimit:10;" d="M 125 238 L 99 284 "/>
<path style="fill:none;stroke-width:1;stroke-linecap:round;stroke-linejoin:round;stroke:rgb(74.509804%,74.509804%,74.509804%);stroke-opacity:1;stroke-miterlimit:10;" d="M 99 284 L 112 330 "/>
<path style="fill:none;stroke-width:1;stroke-linecap:round;stroke-linejoin:round;stroke:rgb(74.509804%,74.509804%,74.509804%);stroke-opacity:1;stroke-miterlimit:10;" d="M 99 284 L 86 330 "/>
<path style=" stroke:none;fill-rule:nonzero;fill:rgb(0%,0%,0%);fill-opacity:1;" d="M 86 330 L 94 330 C 94 325.582031 90.417969 322 86 322 C 81.582031 322 78 325.582031 78 330 C 78 334.417969 81.582031 338 86 338 C 90.417969 338 94 334.417969 94 330 Z "/>
<path style=" stroke:none;fill-rule:nonzero;fill:rgb(100%,100%,100%);fill-opacity:1;" d="M 86 330 L 92 330 C 92 326.6875 89.3125 324 86 324 C 82.6875 324 80 326.6875 80 330 C 80 333.3125 82.6875 336 86 336 C 89.3125 336 92 333.3125 92 330 Z "/>
<path style=" stroke:none;fill-rule:nonzero;fill:rgb(0%,0%,0%);fill-opacity:1;" d="M 112 330 L 120 330 C 120 325.582031 116.417969 322 112 322 C 107.582031 322 104 325.582031 104 330 C 104 334.417969 107.582031 338 112 338 C 116.417969 338 120 334.417969 120 330 Z "/>
<path style=" stroke:none;fill-rule:nonzero;fill:rgb(100%,100%,100%);fill-opacity:1;" d="M 112 330 L 118 330 C 118 326.6875 115.3125 324 112 324 C 108.6875 324 106 326.6875 106 330 C 106 333.3125 108.6875 336 112 336 C 115.3125 336 118 333.3125 118 330 Z "/>
<path style=" stroke:none;fill-rule:nonzero;fill:rgb(0%,0%,0%);fill-opacity:1;" d="M 99 284 L 107 284 C 107 279.582031 103.417969 276 99 276 C 94.582031 276 91 279.582031 91 284 C 91 288.417969 94.582031 292 99 292 C 103.417969 292 107 288.417969 107 284 Z "/>
<path style=" stroke:none;fill-rule:nonzero;fill:rgb(100%,100%,100%);fill-opacity:1;" d="M 99 284 L 105 284 C 105 280.6875 102.3125 278 99 278 C 95.6875 278 93 280.6875 93 284 C 93 287.3125 95.6875 290 99 290 C 102.3125 290 105 287.3125 105 284 Z "/>
<path style="fill:none;stroke-width:1;stroke-linecap:round;stroke-linejoin:round;stroke:rgb(74.509804%,74.509804%,74.509804%);stroke-opacity:1;stroke-miterlimit:10;" d="M 151 284 L 164 330 "/>
<path style="fill:none;stroke-width:1;stroke-linecap:round;stroke-linejoin:round;stroke:rgb(74.509804%,74.509804%,74.509804%);stroke-opacity:1;stroke-miterlimit:10;" d="M 151 284 L 138 330 "/>
<path style=" stroke:none;fill-rule:nonzero;fill:rgb(0%,0%,0%);fill-opacity:1;" d="M 138 330 L 146 330 C 146 325.582031 142.417969 322 138 322 C 133.582031 322 130 325.582031 130 330 C 130 334.417969 133.582031 338 138 338 C 142.417969 338 146 334.417969 146 330 Z "/>
<path style=" stroke:none;fill-rule:nonzero;fill:rgb(100%,100%,100%);fill-opacity:1;" d="M 138 330 L 144 330 C 144 326.6875 141.3125 324 138 324 C 134.6875 324 132 326.6875 132 330 C 132 333.3125 134.6875 336 138 336 C 141.3125 336 144 333.3125 144 330 Z "/>
<path style=" stroke:none;fill-rule:nonzero;fill:rgb(0%,0%,0%);fill-opacity:1;" d="M 164 330 L 172 330 C 172 325.582031 168.417969 322 164 322 C 159.582031 322 156 325.582031 156 330 C 156 334.417969 159.582031 338 164 338 C 168.417969 338 172 334.417969 172 330 Z "/>
<path style=" stroke:none;fill-rule:nonzero;fill:rgb(100%,100%,100%);fill-opacity:1;" d="M 164 330 L 170 330 C 170 326.6875 167.3125 324 164 324 C 160.6875 324 158 326.6875 158 330 C 158 333.3125 160.6875 336 164 336 C 167.3125 336 170 333.3125 170 330 Z "/>
<path style=" stroke:none;fill-rule:nonzero;fill:rgb(0%,0%,0%);fill-opacity:1;" d="M 151 284 L 159 284 C 159 279.582031 155.417969 276 151 276 C 146.582031 276 143 279.582031 143 284 C 143 288.417969 146.582031 292 151 292 C 155.417969 292 159 288.417969 159 284 Z "/>
<path style=" stroke:none;fill-rule:nonzero;fill:rgb(100%,100%,100%);fill-opacity:1;" d="M 151 284 L 157 284 C 157 280.6875 154.3125 278 151 278 C 147.6875 278 145 280.6875 145 284 C 145 287.3125 147.6875 290 151 290 C 154.3125 290 157 287.3125 157 284 Z "/>
<path style=" stroke:none;fill-rule:nonzero;fill:rgb(0%,0%,0%);fill-opacity:1;" d="M 125 238 L 133 238 C 133 233.582031 129.417969 230 125 230 C 120.582031 230 117 233.582031 117 238 C 117 242.417969 120.582031 246 125 246 C 129.417969 246 133 242.417969 133 238 Z "/>
<path style=" stroke:none;fill-rule:nonzero;fill:rgb(100%,100%,100%);fill-opacity:1;" d="M 125 238 L 131 238 C 131 234.6875 128.3125 232 125 232 C 121.6875 232 119 234.6875 119 238 C 119 241.3125 121.6875 244 125 244 C 128.3125 244 131 241.3125 131 238 Z "/>
<path style=" stroke:none;fill-rule:nonzero;fill:rgb(0%,0%,0%);fill-opacity:1;" d="M 76.25 192 L 84.25 192 C 84.25 187.582031 80.667969 184 76.25 184 C 71.832031 184 68.25 187.582031 68.25 192 C 68.25 196.417969 71.832031 200 76.25 200 C 80.667969 200 84.25 196.417969 84.25 192 Z "/>
<path style=" stroke:none;fill-rule:nonzero;fill:rgb(100%,100%,100%);fill-opacity:1;" d="M 76.25 192 L 82.25 192 C 82.25 188.6875 79.5625 186 76.25 186 C 72.9375 186 70.25 188.6875 70.25 192 C 70.25 195.3125 72.9375 198 76.25 198 C 79.5625 198 82.25 195.3125 82.25 192 Z "/>
<path style="fill:none;stroke-width:1;stroke-linecap:round;stroke-linejoin:round;stroke:rgb(74.509804%,74.509804%,74.509804%);stroke-opacity:1;stroke-miterlimit:10;" d="M 277.75 192 L 326.5 238 "/>
<path style="fill:none;stroke-width:1;stroke-linecap:round;stroke-linejoin:round;stroke:rgb(74.509804%,74.509804%,74.509804%);stroke-opacity:1;stroke-miterlimit:10;" d="M 277.75 192 L 229 238 "/>
<path style="fill:none;stroke-width:1;stroke-linecap:round;stroke-linejoin:round;stroke:rgb(74.509804%,74.509804%,74.509804%);stroke-opacity:1;stroke-miterlimit:10;" d="M 229 238 L 255 284 "/>
<path style="fill:none;stroke-width:1;stroke-linecap:round;stroke-linejoin:round;stroke:rgb(74.509804%,74.509804%,74.509804%);stroke-opacity:1;stroke-miterlimit:10;" d="M 229 238 L 203 284 "/>
<path style="fill:none;stroke-width:1;stroke-linecap:round;stroke-linejoin:round;stroke:rgb(74.509804%,74.509804%,74.509804%);stroke-opacity:1;stroke-miterlimit:10;" d="M 203 284 L 216 330 "/>
<path style="fill:none;stroke-width:1;stroke-linecap:round;stroke-linejoin:round;stroke:rgb(74.509804%,74.509804%,74.509804%);stroke-opacity:1;stroke-miterlimit:10;" d="M 203 284 L 190 330 "/>
<path style=" stroke:none;fill-rule:nonzero;fill:rgb(0%,0%,0%);fill-opacity:1;" d="M 190 330 L 198 330 C 198 325.582031 194.417969 322 190 322 C 185.582031 322 182 325.582031 182 330 C 182 334.417969 185.582031 338 190 338 C 194.417969 338 198 334.417969 198 330 Z "/>
<path style=" stroke:none;fill-rule:nonzero;fill:rgb(100%,100%,100%);fill-opacity:1;" d="M 190 330 L 196 330 C 196 326.6875 193.3125 324 190 324 C 186.6875 324 184 326.6875 184 330 C 184 333.3125 186.6875 336 190 336 C 193.3125 336 196 333.3125 196 330 Z "/>
<path style=" stroke:none;fill-rule:nonzero;fill:rgb(0%,0%,0%);fill-opacity:1;" d="M 216 330 L 224 330 C 224 325.582031 220.417969 322 216 322 C 211.582031 322 208 325.582031 208 330 C 208 334.417969 211.582031 338 216 338 C 220.417969 338 224 334.417969 224 330 Z "/>
<path style=" stroke:none;fill-rule:nonzero;fill:rgb(100%,100%,100%);fill-opacity:1;" d="M 216 330 L 222 330 C 222 326.6875 219.3125 324 216 324 C 212.6875 324 210 326.6875 210 330 C 210 333.3125 212.6875 336 216 336 C 219.3125 336 222 333.3125 222 330 Z "/>
<path style=" stroke:none;fill-rule:nonzero;fill:rgb(0%,0%,0%);fill-opacity:1;" d="M 203 284 L 211 284 C 211 279.582031 207.417969 276 203 276 C 198.582031 276 195 279.582031 195 284 C 195 288.417969 198.582031 292 203 292 C 207.417969 292 211 288.417969 211 284 Z "/>
<path style=" stroke:none;fill-rule:nonzero;fill:rgb(100%,100%,100%);fill-opacity:1;" d="M 203 284 L 209 284 C 209 280.6875 206.3125 278 203 278 C 199.6875 278 197 280.6875 197 284 C 197 287.3125 199.6875 290 203 290 C 206.3125 290 209 287.3125 209 284 Z "/>
<path style="fill:none;stroke-width:1;stroke-linecap:round;stroke-linejoin:round;stroke:rgb(74.509804%,74.509804%,74.509804%);stroke-opacity:1;stroke-miterlimit:10;" d="M 255 284 L 268 330 "/>
<path style="fill:none;stroke-width:1;stroke-linecap:round;stroke-linejoin:round;stroke:rgb(74.509804%,74.509804%,74.509804%);stroke-opacity:1;stroke-miterlimit:10;" d="M 255 284 L 242 330 "/>
<path style=" stroke:none;fill-rule:nonzero;fill:rgb(0%,0%,0%);fill-opacity:1;" d="M 242 330 L 250 330 C 250 325.582031 246.417969 322 242 322 C 237.582031 322 234 325.582031 234 330 C 234 334.417969 237.582031 338 242 338 C 246.417969 338 250 334.417969 250 330 Z "/>
<path style=" stroke:none;fill-rule:nonzero;fill:rgb(100%,100%,100%);fill-opacity:1;" d="M 242 330 L 248 330 C 248 326.6875 245.3125 324 242 324 C 238.6875 324 236 326.6875 236 330 C 236 333.3125 238.6875 336 242 336 C 245.3125 336 248 333.3125 248 330 Z "/>
<path style=" stroke:none;fill-rule:nonzero;fill:rgb(0%,0%,0%);fill-opacity:1;" d="M 268 330 L 276 330 C 276 325.582031 272.417969 322 268 322 C 263.582031 322 260 325.582031 260 330 C 260 334.417969 263.582031 338 268 338 C 272.417969 338 276 334.417969 276 330 Z "/>
<path style=" stroke:none;fill-rule:nonzero;fill:rgb(100%,100%,100%);fill-opacity:1;" d="M 268 330 L 274 330 C 274 326.6875 271.3125 324 268 324 C 264.6875 324 262 326.6875 262 330 C 262 333.3125 264.6875 336 268 336 C 271.3125 336 274 333.3125 274 330 Z "/>
<path style=" stroke:none;fill-rule:nonzero;fill:rgb(0%,0%,0%);fill-opacity:1;" d="M 255 284 L 263 284 C 263 279.582031 259.417969 276 255 276 C 250.582031 276 247 279.582031 247 284 C 247 288.417969 250.582031 292 255 292 C 259.417969 292 263 288.417969 263 284 Z "/>
<path style=" stroke:none;fill-rule:nonzero;fill:rgb(100%,100%,100%);fill-opacity:1;" d="M 255 284 L 261 284 C 261 280.6875 258.3125 278 255 278 C 251.6875 278 249 280.6875 249 284 C 249 287.3125 251.6875 290 255 290 C 258.3125 290 261 287.3125 261 284 Z "/>
<path style=" stroke:none;fill-rule:nonzero;fill:rgb(0%,0%,0%);fill-opacity:1;" d="M 229 238 L 237 238 C 237 233.582031 233.417969 230 229 230 C 224.582031 230 221 233.582031 221 238 C 221 242.417969 224.582031 246 229 246 C 233.417969 246 237 242.417969 237 238 Z "/>
<path style=" stroke:none;fill-rule:nonzero;fill:rgb(100%,100%,100%);fill-opacity:1;" d="M 229 238 L 235 238 C 235 234.6875 232.3125 232 229 232 C 225.6875 232 223 234.6875 223 238 C 223 241.3125 225.6875 244 229 244 C 232.3125 244 235 241.3125 235 238 Z "/>
<path style="fill:none;stroke-width:1;stroke-linecap:round;stroke-linejoin:round;stroke:rgb(74.509804%,74.509804%,74.509804%);stroke-opacity:1;stroke-miterlimit:10;" d="M 326.5 238 L 346 284 "/>
<path style="fill:none;stroke-width:1;stroke-linecap:round;stroke-linejoin:round;stroke:rgb(74.509804%,74.509804%,74.509804%);stroke-opacity:1;stroke-miterlimit:10;" d="M 326.5 238 L 307 284 "/>
<path style="fill:none;stroke-width:1;stroke-linecap:round;stroke-linejoin:round;stroke:rgb(74.509804%,74.509804%,74.509804%);stroke-opacity:1;stroke-miterlimit:10;" d="M 307 284 L 320 330 "/>
<path style="fill:none;stroke-width:1;stroke-linecap:round;stroke-linejoin:round;stroke:rgb(74.509804%,74.509804%,74.509804%);stroke-opacity:1;stroke-miterlimit:10;" d="M 307 284 L 294 330 "/>
<path style=" stroke:none;fill-rule:nonzero;fill:rgb(0%,0%,0%);fill-opacity:1;" d="M 294 330 L 302 330 C 302 325.582031 298.417969 322 294 322 C 289.582031 322 286 325.582031 286 330 C 286 334.417969 289.582031 338 294 338 C 298.417969 338 302 334.417969 302 330 Z "/>
<path style=" stroke:none;fill-rule:nonzero;fill:rgb(100%,100%,100%);fill-opacity:1;" d="M 294 330 L 300 330 C 300 326.6875 297.3125 324 294 324 C 290.6875 324 288 326.6875 288 330 C 288 333.3125 290.6875 336 294 336 C 297.3125 336 300 333.3125 300 330 Z "/>
<path style=" stroke:none;fill-rule:nonzero;fill:rgb(0%,0%,0%);fill-opacity:1;" d="M 320 330 L 328 330 C 328 325.582031 324.417969 322 320 322 C 315.582031 322 312 325.582031 312 330 C 312 334.417969 315.582031 338 320 338 C 324.417969 338 328 334.417969 328 330 Z "/>
<path style=" stroke:none;fill-rule:nonzero;fill:rgb(100%,100%,100%);fill-opacity:1;" d="M 320 330 L 326 330 C 326 326.6875 323.3125 324 320 324 C 316.6875 324 314 326.6875 314 330 C 314 333.3125 316.6875 336 320 336 C 323.3125 336 326 333.3125 326 330 Z "/>
<path style=" stroke:none;fill-rule:nonzero;fill:rgb(0%,0%,0%);fill-opacity:1;" d="M 307 284 L 315 284 C 315 279.582031 311.417969 276 307 276 C 302.582031 276 299 279.582031 299 284 C 299 288.417969 302.582031 292 307 292 C 311.417969 292 315 288.417969 315 284 Z "/>
<path style=" stroke:none;fill-rule:nonzero;fill:rgb(100%,100%,100%);fill-opacity:1;" d="M 307 284 L 313 284 C 313 280.6875 310.3125 278 307 278 C 303.6875 278 301 280.6875 301 284 C 301 287.3125 303.6875 290 307 290 C 310.3125 290 313 287.3125 313 284 Z "/>
<path style=" stroke:none;fill-rule:nonzero;fill:rgb(0%,0%,0%);fill-opacity:1;" d="M 346 284 L 354 284 C 354 279.582031 350.417969 276 346 276 C 341.582031 276 338 279.582031 338 284 C 338 288.417969 341.582031 292 346 292 C 350.417969 292 354 288.417969 354 284 Z "/>
<path style=" stroke:none;fill-rule:nonzero;fill:rgb(100%,100%,100%);fill-opacity:1;" d="M 346 284 L 352 284 C 352 280.6875 349.3125 278 346 278 C 342.6875 278 340 280.6875 340 284 C 340 287.3125 342.6875 290 346 290 C 349.3125 290 352 287.3125 352 284 Z "/>
<path style=" stroke:none;fill-rule:nonzero;fill:rgb(0%,0%,0%);fill-opacity:1;" d="M 326.5 238 L 334.5 238 C 334.5 233.582031 330.917969 230 326.5 230 C 322.082031 230 318.5 233.582031 318.5 238 C 318.5 242.417969 322.082031 246 326.5 246 C 330.917969 246 334.5 242.417969 334.5 238 Z "/>
<path style=" stroke:none;fill-rule:nonzero;fill:rgb(100%,100%,100%);fill-opacity:1;" d="M 326.5 238 L 332.5 238 C 332.5 234.6875 329.8125 232 326.5 232 C 323.1875 232 320.5 234.6875 320.5 238 C 320.5 241.3125 323.1875 244 326.5 244 C 329.8125 244 332.5 241.3125 332.5 238 Z "/>
<path style=" stroke:none;fill-rule:nonzero;fill:rgb(0%,0%,0%);fill-opacity:1;" d="M 277.75 192 L 285.75 192 C 285.75 187.582031 282.167969 184 277.75 184 C 273.332031 184 269.75 187.582031 269.75 192 C 269.75 196.417969 273.332031 200 277.75 200 C 282.167969 200 285.75 196.417969 285.75 192 Z "/>
<path style=" stroke:none;fill-rule:nonzero;fill:rgb(100%,100%,100%);fill-opacity:1;" d="M 277.75 192 L 283.75 192 C 283.75 188.6875 281.0625 186 277.75 186 C 274.4375 186 271.75 188.6875 271.75 192 C 271.75 195.3125 274.4375 198 277.75 198 C 281.0625 198 283.75 195.3125 283.75 192 Z "/>
<path style=" stroke:none;fill-rule:nonzero;fill:rgb(0%,0%,0%);fill-opacity:1;" d="M 177 146 L 185 146 C 185 141.582031 181.417969 138 177 138 C 172.582031 138 169 141.582031 169 146 C 169 150.417969 172.582031 154 177 154 C 181.417969 154 185 150.417969 185 146 Z "/>
<path style=" stroke:none;fill-rule:nonzero;fill:rgb(100%,100%,100%);fill-opacity:1;" d="M 177 146 L 183 146 C 183 142.6875 180.3125 140 177 140 C 173.6875 140 171 142.6875 171 146 C 171 149.3125 173.6875 152 177 152 C 180.3125 152 183 149.3125 183 146 Z "/>
<path style="fill:none;stroke-width:1;stroke-linecap:round;stroke-linejoin:round;stroke:rgb(74.509804%,74.509804%,74.509804%);stroke-opacity:1;stroke-miterlimit:10;" d="M 534.5 146 L 609.25 192 "/>
<path style="fill:none;stroke-width:1;stroke-linecap:round;stroke-linejoin:round;stroke:rgb(74.509804%,74.509804%,74.509804%);stroke-opacity:1;stroke-miterlimit:10;" d="M 534.5 146 L 459.75 192 "/>
<path style="fill:none;stroke-width:1;stroke-linecap:round;stroke-linejoin:round;stroke:rgb(74.509804%,74.509804%,74.509804%);stroke-opacity:1;stroke-miterlimit:10;" d="M 459.75 192 L 508.5 238 "/>
<path style="fill:none;stroke-width:1;stroke-linecap:round;stroke-linejoin:round;stroke:rgb(74.509804%,74.509804%,74.509804%);stroke-opacity:1;stroke-miterlimit:10;" d="M 459.75 192 L 411 238 "/>
<path style="fill:none;stroke-width:1;stroke-linecap:round;stroke-linejoin:round;stroke:rgb(74.509804%,74.509804%,74.509804%);stroke-opacity:1;stroke-miterlimit:10;" d="M 411 238 L 437 284 "/>
<path style="fill:none;stroke-width:1;stroke-linecap:round;stroke-linejoin:round;stroke:rgb(74.509804%,74.509804%,74.509804%);stroke-opacity:1;stroke-miterlimit:10;" d="M 411 238 L 385 284 "/>
<path style="fill:none;stroke-width:1;stroke-linecap:round;stroke-linejoin:round;stroke:rgb(74.509804%,74.509804%,74.509804%);stroke-opacity:1;stroke-miterlimit:10;" d="M 385 284 L 398 330 "/>
<path style="fill:none;stroke-width:1;stroke-linecap:round;stroke-linejoin:round;stroke:rgb(74.509804%,74.509804%,74.509804%);stroke-opacity:1;stroke-miterlimit:10;" d="M 385 284 L 372 330 "/>
<path style=" stroke:none;fill-rule:nonzero;fill:rgb(0%,0%,0%);fill-opacity:1;" d="M 372 330 L 380 330 C 380 325.582031 376.417969 322 372 322 C 367.582031 322 364 325.582031 364 330 C 364 334.417969 367.582031 338 372 338 C 376.417969 338 380 334.417969 380 330 Z "/>
<path style=" stroke:none;fill-rule:nonzero;fill:rgb(100%,100%,100%);fill-opacity:1;" d="M 372 330 L 378 330 C 378 326.6875 375.3125 324 372 324 C 368.6875 324 366 326.6875 366 330 C 366 333.3125 368.6875 336 372 336 C 375.3125 336 378 333.3125 378 330 Z "/>
<path style=" stroke:none;fill-rule:nonzero;fill:rgb(0%,0%,0%);fill-opacity:1;" d="M 398 330 L 406 330 C 406 325.582031 402.417969 322 398 322 C 393.582031 322 390 325.582031 390 330 C 390 334.417969 393.582031 338 398 338 C 402.417969 338 406 334.417969 406 330 Z "/>
<path style=" stroke:none;fill-rule:nonzero;fill:rgb(100%,100%,100%);fill-opacity:1;" d="M 398 330 L 404 330 C 404 326.6875 401.3125 324 398 324 C 394.6875 324 392 326.6875 392 330 C 392 333.3125 394.6875 336 398 336 C 401.3125 336 404 333.3125 404 330 Z "/>
<path style=" stroke:none;fill-rule:nonzero;fill:rgb(0%,0%,0%);fill-opacity:1;" d="M 385 284 L 393 284 C 393 279.582031 389.417969 276 385 276 C 380.582031 276 377 279.582031 377 284 C 377 288.417969 380.582031 292 385 292 C 389.417969 292 393 288.417969 393 284 Z "/>
<path style=" stroke:none;fill-rule:nonzero;fill:rgb(100%,100%,100%);fill-opacity:1;" d="M 385 284 L 391 284 C 391 280.6875 388.3125 278 385 278 C 381.6875 278 379 280.6875 379 284 C 379 287.3125 381.6875 290 385 290 C 388.3125 290 391 287.3125 391 284 Z "/>
<path style="fill:none;stroke-width:1;stroke-linecap:round;stroke-linejoin:round;stroke:rgb(74.509804%,74.509804%,74.509804%);stroke-opacity:1;stroke-miterlimit:10;" d="M 437 284 L 450 330 "/>
<path style="fill:none;stroke-width:1;stroke-linecap:round;stroke-linejoin:round;stroke:rgb(74.509804%,74.509804%,74.509804%);stroke-opacity:1;stroke-miterlimit:10;" d="M 437 284 L 424 330 "/>
<path style=" stroke:none;fill-rule:nonzero;fill:rgb(0%,0%,0%);fill-opacity:1;" d="M 424 330 L 432 330 C 432 325.582031 428.417969 322 424 322 C 419.582031 322 416 325.582031 416 330 C 416 334.417969 419.582031 338 424 338 C 428.417969 338 432 334.417969 432 330 Z "/>
<path style=" stroke:none;fill-rule:nonzero;fill:rgb(100%,100%,100%);fill-opacity:1;" d="M 424 330 L 430 330 C 430 326.6875 427.3125 324 424 324 C 420.6875 324 418 326.6875 418 330 C 418 333.3125 420.6875 336 424 336 C 427.3125 336 430 333.3125 430 330 Z "/>
<path style=" stroke:none;fill-rule:nonzero;fill:rgb(0%,0%,0%);fill-opacity:1;" d="M 450 330 L 458 330 C 458 325.582031 454.417969 322 450 322 C 445.582031 322 442 325.582031 442 330 C 442 334.417969 445.582031 338 450 338 C 454.417969 338 458 334.417969 458 330 Z "/>
<path style=" stroke:none;fill-rule:nonzero;fill:rgb(100%,100%,100%);fill-opacity:1;" d="M 450 330 L 456 330 C 456 326.6875 453.3125 324 450 324 C 446.6875 324 444 326.6875 444 330 C 444 333.3125 446.6875 336 450 336 C 453.3125 336 456 333.3125 456 330 Z "/>
<path style=" stroke:none;fill-rule:nonzero;fill:rgb(0%,0%,0%);fill-opacity:1;" d="M 437 284 L 445 284 C 445 279.582031 441.417969 276 437 276 C 432.582031 276 429 279.582031 429 284 C 429 288.417969 432.582031 292 437 292 C 441.417969 292 445 288.417969 445 284 Z "/>
<path style=" stroke:none;fill-rule:nonzero;fill:rgb(100%,100%,100%);fill-opacity:1;" d="M 437 284 L 443 284 C 443 280.6875 440.3125 278 437 278 C 433.6875 278 431 280.6875 431 284 C 431 287.3125 433.6875 290 437 290 C 440.3125 290 443 287.3125 443 284 Z "/>
<path style=" stroke:none;fill-rule:nonzero;fill:rgb(0%,0%,0%);fill-opacity:1;" d="M 411 238 L 419 238 C 419 233.582031 415.417969 230 411 230 C 406.582031 230 403 233.582031 403 238 C 403 242.417969 406.582031 246 411 246 C 415.417969 246 419 242.417969 419 238 Z "/>
<path style=" stroke:none;fill-rule:nonzero;fill:rgb(100%,100%,100%);fill-opacity:1;" d="M 411 238 L 417 238 C 417 234.6875 414.3125 232 411 232 C 407.6875 232 405 234.6875 405 238 C 405 241.3125 407.6875 244 411 244 C 414.3125 244 417 241.3125 417 238 Z "/>
<path style="fill:none;stroke-width:1;stroke-linecap:round;stroke-linejoin:round;stroke:rgb(74.509804%,74.509804%,74.509804%);stroke-opacity:1;stroke-miterlimit:10;" d="M 508.5 238 L 528 284 "/>
<path style="fill:none;stroke-width:1;stroke-linecap:round;stroke-linejoin:round;stroke:rgb(74.509804%,74.509804%,74.509804%);stroke-opacity:1;stroke-miterlimit:10;" d="M 508.5 238 L 489 284 "/>
<path style="fill:none;stroke-width:1;stroke-linecap:round;stroke-linejoin:round;stroke:rgb(74.509804%,74.509804%,74.509804%);stroke-opacity:1;stroke-miterlimit:10;" d="M 489 284 L 502 330 "/>
<path style="fill:none;stroke-width:1;stroke-linecap:round;stroke-linejoin:round;stroke:rgb(74.509804%,74.509804%,74.509804%);stroke-opacity:1;stroke-miterlimit:10;" d="M 489 284 L 476 330 "/>
<path style=" stroke:none;fill-rule:nonzero;fill:rgb(0%,0%,0%);fill-opacity:1;" d="M 476 330 L 484 330 C 484 325.582031 480.417969 322 476 322 C 471.582031 322 468 325.582031 468 330 C 468 334.417969 471.582031 338 476 338 C 480.417969 338 484 334.417969 484 330 Z "/>
<path style=" stroke:none;fill-rule:nonzero;fill:rgb(100%,100%,100%);fill-opacity:1;" d="M 476 330 L 482 330 C 482 326.6875 479.3125 324 476 324 C 472.6875 324 470 326.6875 470 330 C 470 333.3125 472.6875 336 476 336 C 479.3125 336 482 333.3125 482 330 Z "/>
<path style=" stroke:none;fill-rule:nonzero;fill:rgb(0%,0%,0%);fill-opacity:1;" d="M 502 330 L 510 330 C 510 325.582031 506.417969 322 502 322 C 497.582031 322 494 325.582031 494 330 C 494 334.417969 497.582031 338 502 338 C 506.417969 338 510 334.417969 510 330 Z "/>
<path style=" stroke:none;fill-rule:nonzero;fill:rgb(100%,100%,100%);fill-opacity:1;" d="M 502 330 L 508 330 C 508 326.6875 505.3125 324 502 324 C 498.6875 324 496 326.6875 496 330 C 496 333.3125 498.6875 336 502 336 C 505.3125 336 508 333.3125 508 330 Z "/>
<path style=" stroke:none;fill-rule:nonzero;fill:rgb(0%,0%,0%);fill-opacity:1;" d="M 489 284 L 497 284 C 497 279.582031 493.417969 276 489 276 C 484.582031 276 481 279.582031 481 284 C 481 288.417969 484.582031 292 489 292 C 493.417969 292 497 288.417969 497 284 Z "/>
<path style=" stroke:none;fill-rule:nonzero;fill:rgb(100%,100%,100%);fill-opacity:1;" d="M 489 284 L 495 284 C 495 280.6875 492.3125 278 489 278 C 485.6875 278 483 280.6875 483 284 C 483 287.3125 485.6875 290 489 290 C 492.3125 290 495 287.3125 495 284 Z "/>
<path style=" stroke:none;fill-rule:nonzero;fill:rgb(0%,0%,0%);fill-opacity:1;" d="M 528 284 L 536 284 C 536 279.582031 532.417969 276 528 276 C 523.582031 276 520 279.582031 520 284 C 520 288.417969 523.582031 292 528 292 C 532.417969 292 536 288.417969 536 284 Z "/>
<path style=" stroke:none;fill-rule:nonzero;fill:rgb(100%,100%,100%);fill-opacity:1;" d="M 528 284 L 534 284 C 534 280.6875 531.3125 278 528 278 C 524.6875 278 522 280.6875 522 284 C 522 287.3125 524.6875 290 528 290 C 531.3125 290 534 287.3125 534 284 Z "/>
<path style=" stroke:none;fill-rule:nonzero;fill:rgb(0%,0%,0%);fill-opacity:1;" d="M 508.5 238 L 516.5 238 C 516.5 233.582031 512.917969 230 508.5 230 C 504.082031 230 500.5 233.582031 500.5 238 C 500.5 242.417969 504.082031 246 508.5 246 C 512.917969 246 516.5 242.417969 516.5 238 Z "/>
<path style=" stroke:none;fill-rule:nonzero;fill:rgb(100%,100%,100%);fill-opacity:1;" d="M 508.5 238 L 514.5 238 C 514.5 234.6875 511.8125 232 508.5 232 C 505.1875 232 502.5 234.6875 502.5 238 C 502.5 241.3125 505.1875 244 508.5 244 C 511.8125 244 514.5 241.3125 514.5 238 Z "/>
<path style=" stroke:none;fill-rule:nonzero;fill:rgb(0%,0%,0%);fill-opacity:1;" d="M 459.75 192 L 467.75 192 C 467.75 187.582031 464.167969 184 459.75 184 C 455.332031 184 451.75 187.582031 451.75 192 C 451.75 196.417969 455.332031 200 459.75 200 C 464.167969 200 467.75 196.417969 467.75 192 Z "/>
<path style=" stroke:none;fill-rule:nonzero;fill:rgb(100%,100%,100%);fill-opacity:1;" d="M 459.75 192 L 465.75 192 C 465.75 188.6875 463.0625 186 459.75 186 C 456.4375 186 453.75 188.6875 453.75 192 C 453.75 195.3125 456.4375 198 459.75 198 C 463.0625 198 465.75 195.3125 465.75 192 Z "/>
<path style="fill:none;stroke-width:1;stroke-linecap:round;stroke-linejoin:round;stroke:rgb(74.509804%,74.509804%,74.509804%);stroke-opacity:1;stroke-miterlimit:10;" d="M 609.25 192 L 632 238 "/>
<path style="fill:none;stroke-width:1;stroke-linecap:round;stroke-linejoin:round;stroke:rgb(74.509804%,74.509804%,74.509804%);stroke-opacity:1;stroke-miterlimit:10;" d="M 609.25 192 L 586.5 238 "/>
<path style="fill:none;stroke-width:1;stroke-linecap:round;stroke-linejoin:round;stroke:rgb(74.509804%,74.509804%,74.509804%);stroke-opacity:1;stroke-miterlimit:10;" d="M 586.5 238 L 606 284 "/>
<path style="fill:none;stroke-width:1;stroke-linecap:round;stroke-linejoin:round;stroke:rgb(74.509804%,74.509804%,74.509804%);stroke-opacity:1;stroke-miterlimit:10;" d="M 586.5 238 L 567 284 "/>
<path style="fill:none;stroke-width:1;stroke-linecap:round;stroke-linejoin:round;stroke:rgb(74.509804%,74.509804%,74.509804%);stroke-opacity:1;stroke-miterlimit:10;" d="M 567 284 L 580 330 "/>
<path style="fill:none;stroke-width:1;stroke-linecap:round;stroke-linejoin:round;stroke:rgb(74.509804%,74.509804%,74.509804%);stroke-opacity:1;stroke-miterlimit:10;" d="M 567 284 L 554 330 "/>
<path style=" stroke:none;fill-rule:nonzero;fill:rgb(0%,0%,0%);fill-opacity:1;" d="M 554 330 L 562 330 C 562 325.582031 558.417969 322 554 322 C 549.582031 322 546 325.582031 546 330 C 546 334.417969 549.582031 338 554 338 C 558.417969 338 562 334.417969 562 330 Z "/>
<path style=" stroke:none;fill-rule:nonzero;fill:rgb(100%,100%,100%);fill-opacity:1;" d="M 554 330 L 560 330 C 560 326.6875 557.3125 324 554 324 C 550.6875 324 548 326.6875 548 330 C 548 333.3125 550.6875 336 554 336 C 557.3125 336 560 333.3125 560 330 Z "/>
<path style=" stroke:none;fill-rule:nonzero;fill:rgb(0%,0%,0%);fill-opacity:1;" d="M 580 330 L 588 330 C 588 325.582031 584.417969 322 580 322 C 575.582031 322 572 325.582031 572 330 C 572 334.417969 575.582031 338 580 338 C 584.417969 338 588 334.417969 588 330 Z "/>
<path style=" stroke:none;fill-rule:nonzero;fill:rgb(100%,100%,100%);fill-opacity:1;" d="M 580 330 L 586 330 C 586 326.6875 583.3125 324 580 324 C 576.6875 324 574 326.6875 574 330 C 574 333.3125 576.6875 336 580 336 C 583.3125 336 586 333.3125 586 330 Z "/>
<path style=" stroke:none;fill-rule:nonzero;fill:rgb(0%,0%,0%);fill-opacity:1;" d="M 567 284 L 575 284 C 575 279.582031 571.417969 276 567 276 C 562.582031 276 559 279.582031 559 284 C 559 288.417969 562.582031 292 567 292 C 571.417969 292 575 288.417969 575 284 Z "/>
<path style=" stroke:none;fill-rule:nonzero;fill:rgb(100%,100%,100%);fill-opacity:1;" d="M 567 284 L 573 284 C 573 280.6875 570.3125 278 567 278 C 563.6875 278 561 280.6875 561 284 C 561 287.3125 563.6875 290 567 290 C 570.3125 290 573 287.3125 573 284 Z "/>
<path style=" stroke:none;fill-rule:nonzero;fill:rgb(0%,0%,0%);fill-opacity:1;" d="M 606 284 L 614 284 C 614 279.582031 610.417969 276 606 276 C 601.582031 276 598 279.582031 598 284 C 598 288.417969 601.582031 292 606 292 C 610.417969 292 614 288.417969 614 284 Z "/>
<path style=" stroke:none;fill-rule:nonzero;fill:rgb(100%,100%,100%);fill-opacity:1;" d="M 606 284 L 612 284 C 612 280.6875 609.3125 278 606 278 C 602.6875 278 600 280.6875 600 284 C 600 287.3125 602.6875 290 606 290 C 609.3125 290 612 287.3125 612 284 Z "/>
<path style=" stroke:none;fill-rule:nonzero;fill:rgb(0%,0%,0%);fill-opacity:1;" d="M 586.5 238 L 594.5 238 C 594.5 233.582031 590.917969 230 586.5 230 C 582.082031 230 578.5 233.582031 578.5 238 C 578.5 242.417969 582.082031 246 586.5 246 C 590.917969 246 594.5 242.417969 594.5 238 Z "/>
<path style=" stroke:none;fill-rule:nonzero;fill:rgb(100%,100%,100%);fill-opacity:1;" d="M 586.5 238 L 592.5 238 C 592.5 234.6875 589.8125 232 586.5 232 C 583.1875 232 580.5 234.6875 580.5 238 C 580.5 241.3125 583.1875 244 586.5 244 C 589.8125 244 592.5 241.3125 592.5 238 Z "/>
<path style=" stroke:none;fill-rule:nonzero;fill:rgb(0%,0%,0%);fill-opacity:1;" d="M 632 238 L 640 238 C 640 233.582031 636.417969 230 632 230 C 627.582031 230 624 233.582031 624 238 C 624 242.417969 627.582031 246 632 246 C 636.417969 246 640 242.417969 640 238 Z "/>
<path style=" stroke:none;fill-rule:nonzero;fill:rgb(100%,100%,100%);fill-opacity:1;" d="M 632 238 L 638 238 C 638 234.6875 635.3125 232 632 232 C 628.6875 232 626 234.6875 626 238 C 626 241.3125 628.6875 244 632 244 C 635.3125 244 638 241.3125 638 238 Z "/>
<path style=" stroke:none;fill-rule:nonzero;fill:rgb(0%,0%,0%);fill-opacity:1;" d="M 609.25 192 L 617.25 192 C 617.25 187.582031 613.667969 184 609.25 184 C 604.832031 184 601.25 187.582031 601.25 192 C 601.25 196.417969 604.832031 200 609.25 200 C 613.667969 200 617.25 196.417969 617.25 192 Z "/>
<path style=" stroke:none;fill-rule:nonzero;fill:rgb(100%,100%,100%);fill-opacity:1;" d="M 609.25 192 L 615.25 192 C 615.25 188.6875 612.5625 186 609.25 186 C 605.9375 186 603.25 188.6875 603.25 192 C 603.25 195.3125 605.9375 198 609.25 198 C 612.5625 198 615.25 195.3125 615.25 192 Z "/>
<path style=" stroke:none;fill-rule:nonzero;fill:rgb(0%,0%,0%);fill-opacity:1;" d="M 534.5 146 L 542.5 146 C 542.5 141.582031 538.917969 138 534.5 138 C 530.082031 138 526.5 141.582031 526.5 146 C 526.5 150.417969 530.082031 154 534.5 154 C 538.917969 154 542.5 150.417969 542.5 146 Z "/>
<path style=" stroke:none;fill-rule:nonzero;fill:rgb(100%,100%,100%);fill-opacity:1;" d="M 534.5 146 L 540.5 146 C 540.5 142.6875 537.8125 140 534.5 140 C 531.1875 140 528.5 142.6875 528.5 146 C 528.5 149.3125 531.1875 152 534.5 152 C 537.8125 152 540.5 149.3125 540.5 146 Z "/>
<path style=" stroke:none;fill-rule:nonzero;fill:rgb(0%,0%,0%);fill-opacity:1;" d="M 355.75 100 L 363.75 100 C 363.75 95.582031 360.167969 92 355.75 92 C 351.332031 92 347.75 95.582031 347.75 100 C 347.75 104.417969 351.332031 108 355.75 108 C 360.167969 108 363.75 104.417969 363.75 100 Z "/>
<path style=" stroke:none;fill-rule:nonzero;fill:rgb(100%,100%,100%);fill-opacity:1;" d="M 355.75 100 L 361.75 100 C 361.75 96.6875 359.0625 94 355.75 94 C 352.4375 94 349.75 96.6875 349.75 100 C 349.75 103.3125 352.4375 106 355.75 106 C 359.0625 106 361.75 103.3125 361.75 100 Z "/>
<path style="fill:none;stroke-width:1;stroke-linecap:round;stroke-linejoin:round;stroke:rgb(74.509804%,74.509804%,74.509804%);stroke-opacity:1;stroke-miterlimit:10;" d="M 922.0625 100 L 1023.625 146 "/>
<path style="fill:none;stroke-width:1;stroke-linecap:round;stroke-linejoin:round;stroke:rgb(74.509804%,74.509804%,74.509804%);stroke-opacity:1;stroke-miterlimit:10;" d="M 922.0625 100 L 820.5 146 "/>
<path style="fill:none;stroke-width:1;stroke-linecap:round;stroke-linejoin:round;stroke:rgb(74.509804%,74.509804%,74.509804%);stroke-opacity:1;stroke-miterlimit:10;" d="M 820.5 146 L 895.25 192 "/>
<path style="fill:none;stroke-width:1;stroke-linecap:round;stroke-linejoin:round;stroke:rgb(74.509804%,74.509804%,74.509804%);stroke-opacity:1;stroke-miterlimit:10;" d="M 820.5 146 L 745.75 192 "/>
<path style="fill:none;stroke-width:1;stroke-linecap:round;stroke-linejoin:round;stroke:rgb(74.509804%,74.509804%,74.509804%);stroke-opacity:1;stroke-miterlimit:10;" d="M 745.75 192 L 794.5 238 "/>
<path style="fill:none;stroke-width:1;stroke-linecap:round;stroke-linejoin:round;stroke:rgb(74.509804%,74.509804%,74.509804%);stroke-opacity:1;stroke-miterlimit:10;" d="M 745.75 192 L 697 238 "/>
<path style="fill:none;stroke-width:1;stroke-linecap:round;stroke-linejoin:round;stroke:rgb(74.509804%,74.509804%,74.509804%);stroke-opacity:1;stroke-miterlimit:10;" d="M 697 238 L 723 284 "/>
<path style="fill:none;stroke-width:1;stroke-linecap:round;stroke-linejoin:round;stroke:rgb(74.509804%,74.509804%,74.509804%);stroke-opacity:1;stroke-miterlimit:10;" d="M 697 238 L 671 284 "/>
<path style="fill:none;stroke-width:1;stroke-linecap:round;stroke-linejoin:round;stroke:rgb(74.509804%,74.509804%,74.509804%);stroke-opacity:1;stroke-miterlimit:10;" d="M 671 284 L 684 330 "/>
<path style="fill:none;stroke-width:1;stroke-linecap:round;stroke-linejoin:round;stroke:rgb(74.509804%,74.509804%,74.509804%);stroke-opacity:1;stroke-miterlimit:10;" d="M 671 284 L 658 330 "/>
<path style=" stroke:none;fill-rule:nonzero;fill:rgb(0%,0%,0%);fill-opacity:1;" d="M 658 330 L 666 330 C 666 325.582031 662.417969 322 658 322 C 653.582031 322 650 325.582031 650 330 C 650 334.417969 653.582031 338 658 338 C 662.417969 338 666 334.417969 666 330 Z "/>
<path style=" stroke:none;fill-rule:nonzero;fill:rgb(100%,100%,100%);fill-opacity:1;" d="M 658 330 L 664 330 C 664 326.6875 661.3125 324 658 324 C 654.6875 324 652 326.6875 652 330 C 652 333.3125 654.6875 336 658 336 C 661.3125 336 664 333.3125 664 330 Z "/>
<path style=" stroke:none;fill-rule:nonzero;fill:rgb(0%,0%,0%);fill-opacity:1;" d="M 684 330 L 692 330 C 692 325.582031 688.417969 322 684 322 C 679.582031 322 676 325.582031 676 330 C 676 334.417969 679.582031 338 684 338 C 688.417969 338 692 334.417969 692 330 Z "/>
<path style=" stroke:none;fill-rule:nonzero;fill:rgb(100%,100%,100%);fill-opacity:1;" d="M 684 330 L 690 330 C 690 326.6875 687.3125 324 684 324 C 680.6875 324 678 326.6875 678 330 C 678 333.3125 680.6875 336 684 336 C 687.3125 336 690 333.3125 690 330 Z "/>
<path style=" stroke:none;fill-rule:nonzero;fill:rgb(0%,0%,0%);fill-opacity:1;" d="M 671 284 L 679 284 C 679 279.582031 675.417969 276 671 276 C 666.582031 276 663 279.582031 663 284 C 663 288.417969 666.582031 292 671 292 C 675.417969 292 679 288.417969 679 284 Z "/>
<path style=" stroke:none;fill-rule:nonzero;fill:rgb(100%,100%,100%);fill-opacity:1;" d="M 671 284 L 677 284 C 677 280.6875 674.3125 278 671 278 C 667.6875 278 665 280.6875 665 284 C 665 287.3125 667.6875 290 671 290 C 674.3125 290 677 287.3125 677 284 Z "/>
<path style="fill:none;stroke-width:1;stroke-linecap:round;stroke-linejoin:round;stroke:rgb(74.509804%,74.509804%,74.509804%);stroke-opacity:1;stroke-miterlimit:10;" d="M 723 284 L 736 330 "/>
<path style="fill:none;stroke-width:1;stroke-linecap:round;stroke-linejoin:round;stroke:rgb(74.509804%,74.509804%,74.509804%);stroke-opacity:1;stroke-miterlimit:10;" d="M 723 284 L 710 330 "/>
<path style=" stroke:none;fill-rule:nonzero;fill:rgb(0%,0%,0%);fill-opacity:1;" d="M 710 330 L 718 330 C 718 325.582031 714.417969 322 710 322 C 705.582031 322 702 325.582031 702 330 C 702 334.417969 705.582031 338 710 338 C 714.417969 338 718 334.417969 718 330 Z "/>
<path style=" stroke:none;fill-rule:nonzero;fill:rgb(100%,100%,100%);fill-opacity:1;" d="M 710 330 L 716 330 C 716 326.6875 713.3125 324 710 324 C 706.6875 324 704 326.6875 704 330 C 704 333.3125 706.6875 336 710 336 C 713.3125 336 716 333.3125 716 330 Z "/>
<path style=" stroke:none;fill-rule:nonzero;fill:rgb(0%,0%,0%);fill-opacity:1;" d="M 736 330 L 744 330 C 744 325.582031 740.417969 322 736 322 C 731.582031 322 728 325.582031 728 330 C 728 334.417969 731.582031 338 736 338 C 740.417969 338 744 334.417969 744 330 Z "/>
<path style=" stroke:none;fill-rule:nonzero;fill:rgb(100%,100%,100%);fill-opacity:1;" d="M 736 330 L 742 330 C 742 326.6875 739.3125 324 736 324 C 732.6875 324 730 326.6875 730 330 C 730 333.3125 732.6875 336 736 336 C 739.3125 336 742 333.3125 742 330 Z "/>
<path style=" stroke:none;fill-rule:nonzero;fill:rgb(0%,0%,0%);fill-opacity:1;" d="M 723 284 L 731 284 C 731 279.582031 727.417969 276 723 276 C 718.582031 276 715 279.582031 715 284 C 715 288.417969 718.582031 292 723 292 C 727.417969 292 731 288.417969 731 284 Z "/>
<path style=" stroke:none;fill-rule:nonzero;fill:rgb(100%,100%,100%);fill-opacity:1;" d="M 723 284 L 729 284 C 729 280.6875 726.3125 278 723 278 C 719.6875 278 717 280.6875 717 284 C 717 287.3125 719.6875 290 723 290 C 726.3125 290 729 287.3125 729 284 Z "/>
<path style=" stroke:none;fill-rule:nonzero;fill:rgb(0%,0%,0%);fill-opacity:1;" d="M 697 238 L 705 238 C 705 233.582031 701.417969 230 697 230 C 692.582031 230 689 233.582031 689 238 C 689 242.417969 692.582031 246 697 246 C 701.417969 246 705 242.417969 705 238 Z "/>
<path style=" stroke:none;fill-rule:nonzero;fill:rgb(100%,100%,100%);fill-opacity:1;" d="M 697 238 L 703 238 C 703 234.6875 700.3125 232 697 232 C 693.6875 232 691 234.6875 691 238 C 691 241.3125 693.6875 244 697 244 C 700.3125 244 703 241.3125 703 238 Z "/>
<path style="fill:none;stroke-width:1;stroke-linecap:round;stroke-linejoin:round;stroke:rgb(74.509804%,74.509804%,74.509804%);stroke-opacity:1;stroke-miterlimit:10;" d="M 794.5 238 L 814 284 "/>
<path style="fill:none;stroke-width:1;stroke-linecap:round;stroke-linejoin:round;stroke:rgb(74.509804%,74.509804%,74.509804%);stroke-opacity:1;stroke-miterlimit:10;" d="M 794.5 238 L 775 284 "/>
<path style="fill:none;stroke-width:1;stroke-linecap:round;stroke-linejoin:round;stroke:rgb(74.509804%,74.509804%,74.509804%);stroke-opacity:1;stroke-miterlimit:10;" d="M 775 284 L 788 330 "/>
<path style="fill:none;stroke-width:1;stroke-linecap:round;stroke-linejoin:round;stroke:rgb(74.509804%,74.509804%,74.509804%);stroke-opacity:1;stroke-miterlimit:10;" d="M 775 284 L 762 330 "/>
<path style=" stroke:none;fill-rule:nonzero;fill:rgb(0%,0%,0%);fill-opacity:1;" d="M 762 330 L 770 330 C 770 325.582031 766.417969 322 762 322 C 757.582031 322 754 325.582031 754 330 C 754 334.417969 757.582031 338 762 338 C 766.417969 338 770 334.417969 770 330 Z "/>
<path style=" stroke:none;fill-rule:nonzero;fill:rgb(100%,100%,100%);fill-opacity:1;" d="M 762 330 L 768 330 C 768 326.6875 765.3125 324 762 324 C 758.6875 324 756 326.6875 756 330 C 756 333.3125 758.6875 336 762 336 C 765.3125 336 768 333.3125 768 330 Z "/>
<path style=" stroke:none;fill-rule:nonzero;fill:rgb(0%,0%,0%);fill-opacity:1;" d="M 788 330 L 796 330 C 796 325.582031 792.417969 322 788 322 C 783.582031 322 780 325.582031 780 330 C 780 334.417969 783.582031 338 788 338 C 792.417969 338 796 334.417969 796 330 Z "/>
<path style=" stroke:none;fill-rule:nonzero;fill:rgb(100%,100%,100%);fill-opacity:1;" d="M 788 330 L 794 330 C 794 326.6875 791.3125 324 788 324 C 784.6875 324 782 326.6875 782 330 C 782 333.3125 784.6875 336 788 336 C 791.3125 336 794 333.3125 794 330 Z "/>
<path style=" stroke:none;fill-rule:nonzero;fill:rgb(0%,0%,0%);fill-opacity:1;" d="M 775 284 L 783 284 C 783 279.582031 779.417969 276 775 276 C 770.582031 276 767 279.582031 767 284 C 767 288.417969 770.582031 292 775 292 C 779.417969 292 783 288.417969 783 284 Z "/>
<path style=" stroke:none;fill-rule:nonzero;fill:rgb(100%,100%,100%);fill-opacity:1;" d="M 775 284 L 781 284 C 781 280.6875 778.3125 278 775 278 C 771.6875 278 769 280.6875 769 284 C 769 287.3125 771.6875 290 775 290 C 778.3125 290 781 287.3125 781 284 Z "/>
<path style=" stroke:none;fill-rule:nonzero;fill:rgb(0%,0%,0%);fill-opacity:1;" d="M 814 284 L 822 284 C 822 279.582031 818.417969 276 814 276 C 809.582031 276 806 279.582031 806 284 C 806 288.417969 809.582031 292 814 292 C 818.417969 292 822 288.417969 822 284 Z "/>
<path style=" stroke:none;fill-rule:nonzero;fill:rgb(100%,100%,100%);fill-opacity:1;" d="M 814 284 L 820 284 C 820 280.6875 817.3125 278 814 278 C 810.6875 278 808 280.6875 808 284 C 808 287.3125 810.6875 290 814 290 C 817.3125 290 820 287.3125 820 284 Z "/>
<path style=" stroke:none;fill-rule:nonzero;fill:rgb(0%,0%,0%);fill-opacity:1;" d="M 794.5 238 L 802.5 238 C 802.5 233.582031 798.917969 230 794.5 230 C 790.082031 230 786.5 233.582031 786.5 238 C 786.5 242.417969 790.082031 246 794.5 246 C 798.917969 246 802.5 242.417969 802.5 238 Z "/>
<path style=" stroke:none;fill-rule:nonzero;fill:rgb(100%,100%,100%);fill-opacity:1;" d="M 794.5 238 L 800.5 238 C 800.5 234.6875 797.8125 232 794.5 232 C 791.1875 232 788.5 234.6875 788.5 238 C 788.5 241.3125 791.1875 244 794.5 244 C 797.8125 244 800.5 241.3125 800.5 238 Z "/>
<path style=" stroke:none;fill-rule:nonzero;fill:rgb(0%,0%,0%);fill-opacity:1;" d="M 745.75 192 L 753.75 192 C 753.75 187.582031 750.167969 184 745.75 184 C 741.332031 184 737.75 187.582031 737.75 192 C 737.75 196.417969 741.332031 200 745.75 200 C 750.167969 200 753.75 196.417969 753.75 192 Z "/>
<path style=" stroke:none;fill-rule:nonzero;fill:rgb(100%,100%,100%);fill-opacity:1;" d="M 745.75 192 L 751.75 192 C 751.75 188.6875 749.0625 186 745.75 186 C 742.4375 186 739.75 188.6875 739.75 192 C 739.75 195.3125 742.4375 198 745.75 198 C 749.0625 198 751.75 195.3125 751.75 192 Z "/>
<path style="fill:none;stroke-width:1;stroke-linecap:round;stroke-linejoin:round;stroke:rgb(74.509804%,74.509804%,74.509804%);stroke-opacity:1;stroke-miterlimit:10;" d="M 895.25 192 L 918 238 "/>
<path style="fill:none;stroke-width:1;stroke-linecap:round;stroke-linejoin:round;stroke:rgb(74.509804%,74.509804%,74.509804%);stroke-opacity:1;stroke-miterlimit:10;" d="M 895.25 192 L 872.5 238 "/>
<path style="fill:none;stroke-width:1;stroke-linecap:round;stroke-linejoin:round;stroke:rgb(74.509804%,74.509804%,74.509804%);stroke-opacity:1;stroke-miterlimit:10;" d="M 872.5 238 L 892 284 "/>
<path style="fill:none;stroke-width:1;stroke-linecap:round;stroke-linejoin:round;stroke:rgb(74.509804%,74.509804%,74.509804%);stroke-opacity:1;stroke-miterlimit:10;" d="M 872.5 238 L 853 284 "/>
<path style="fill:none;stroke-width:1;stroke-linecap:round;stroke-linejoin:round;stroke:rgb(74.509804%,74.509804%,74.509804%);stroke-opacity:1;stroke-miterlimit:10;" d="M 853 284 L 866 330 "/>
<path style="fill:none;stroke-width:1;stroke-linecap:round;stroke-linejoin:round;stroke:rgb(74.509804%,74.509804%,74.509804%);stroke-opacity:1;stroke-miterlimit:10;" d="M 853 284 L 840 330 "/>
<path style=" stroke:none;fill-rule:nonzero;fill:rgb(0%,0%,0%);fill-opacity:1;" d="M 840 330 L 848 330 C 848 325.582031 844.417969 322 840 322 C 835.582031 322 832 325.582031 832 330 C 832 334.417969 835.582031 338 840 338 C 844.417969 338 848 334.417969 848 330 Z "/>
<path style=" stroke:none;fill-rule:nonzero;fill:rgb(100%,100%,100%);fill-opacity:1;" d="M 840 330 L 846 330 C 846 326.6875 843.3125 324 840 324 C 836.6875 324 834 326.6875 834 330 C 834 333.3125 836.6875 336 840 336 C 843.3125 336 846 333.3125 846 330 Z "/>
<path style=" stroke:none;fill-rule:nonzero;fill:rgb(0%,0%,0%);fill-opacity:1;" d="M 866 330 L 874 330 C 874 325.582031 870.417969 322 866 322 C 861.582031 322 858 325.582031 858 330 C 858 334.417969 861.582031 338 866 338 C 870.417969 338 874 334.417969 874 330 Z "/>
<path style=" stroke:none;fill-rule:nonzero;fill:rgb(100%,100%,100%);fill-opacity:1;" d="M 866 330 L 872 330 C 872 326.6875 869.3125 324 866 324 C 862.6875 324 860 326.6875 860 330 C 860 333.3125 862.6875 336 866 336 C 869.3125 336 872 333.3125 872 330 Z "/>
<path style=" stroke:none;fill-rule:nonzero;fill:rgb(0%,0%,0%);fill-opacity:1;" d="M 853 284 L 861 284 C 861 279.582031 857.417969 276 853 276 C 848.582031 276 845 279.582031 845 284 C 845 288.417969 848.582031 292 853 292 C 857.417969 292 861 288.417969 861 284 Z "/>
<path style=" stroke:none;fill-rule:nonzero;fill:rgb(100%,100%,100%);fill-opacity:1;" d="M 853 284 L 859 284 C 859 280.6875 856.3125 278 853 278 C 849.6875 278 847 280.6875 847 284 C 847 287.3125 849.6875 290 853 290 C 856.3125 290 859 287.3125 859 284 Z "/>
<path style=" stroke:none;fill-rule:nonzero;fill:rgb(0%,0%,0%);fill-opacity:1;" d="M 892 284 L 900 284 C 900 279.582031 896.417969 276 892 276 C 887.582031 276 884 279.582031 884 284 C 884 288.417969 887.582031 292 892 292 C 896.417969 292 900 288.417969 900 284 Z "/>
<path style=" stroke:none;fill-rule:nonzero;fill:rgb(100%,100%,100%);fill-opacity:1;" d="M 892 284 L 898 284 C 898 280.6875 895.3125 278 892 278 C 888.6875 278 886 280.6875 886 284 C 886 287.3125 888.6875 290 892 290 C 895.3125 290 898 287.3125 898 284 Z "/>
<path style=" stroke:none;fill-rule:nonzero;fill:rgb(0%,0%,0%);fill-opacity:1;" d="M 872.5 238 L 880.5 238 C 880.5 233.582031 876.917969 230 872.5 230 C 868.082031 230 864.5 233.582031 864.5 238 C 864.5 242.417969 868.082031 246 872.5 246 C 876.917969 246 880.5 242.417969 880.5 238 Z "/>
<path style=" stroke:none;fill-rule:nonzero;fill:rgb(100%,100%,100%);fill-opacity:1;" d="M 872.5 238 L 878.5 238 C 878.5 234.6875 875.8125 232 872.5 232 C 869.1875 232 866.5 234.6875 866.5 238 C 866.5 241.3125 869.1875 244 872.5 244 C 875.8125 244 878.5 241.3125 878.5 238 Z "/>
<path style=" stroke:none;fill-rule:nonzero;fill:rgb(0%,0%,0%);fill-opacity:1;" d="M 918 238 L 926 238 C 926 233.582031 922.417969 230 918 230 C 913.582031 230 910 233.582031 910 238 C 910 242.417969 913.582031 246 918 246 C 922.417969 246 926 242.417969 926 238 Z "/>
<path style=" stroke:none;fill-rule:nonzero;fill:rgb(100%,100%,100%);fill-opacity:1;" d="M 918 238 L 924 238 C 924 234.6875 921.3125 232 918 232 C 914.6875 232 912 234.6875 912 238 C 912 241.3125 914.6875 244 918 244 C 921.3125 244 924 241.3125 924 238 Z "/>
<path style=" stroke:none;fill-rule:nonzero;fill:rgb(0%,0%,0%);fill-opacity:1;" d="M 895.25 192 L 903.25 192 C 903.25 187.582031 899.667969 184 895.25 184 C 890.832031 184 887.25 187.582031 887.25 192 C 887.25 196.417969 890.832031 200 895.25 200 C 899.667969 200 903.25 196.417969 903.25 192 Z "/>
<path style=" stroke:none;fill-rule:nonzero;fill:rgb(100%,100%,100%);fill-opacity:1;" d="M 895.25 192 L 901.25 192 C 901.25 188.6875 898.5625 186 895.25 186 C 891.9375 186 889.25 188.6875 889.25 192 C 889.25 195.3125 891.9375 198 895.25 198 C 898.5625 198 901.25 195.3125 901.25 192 Z "/>
<path style=" stroke:none;fill-rule:nonzero;fill:rgb(0%,0%,0%);fill-opacity:1;" d="M 820.5 146 L 828.5 146 C 828.5 141.582031 824.917969 138 820.5 138 C 816.082031 138 812.5 141.582031 812.5 146 C 812.5 150.417969 816.082031 154 820.5 154 C 824.917969 154 828.5 150.417969 828.5 146 Z "/>
<path style=" stroke:none;fill-rule:nonzero;fill:rgb(100%,100%,100%);fill-opacity:1;" d="M 820.5 146 L 826.5 146 C 826.5 142.6875 823.8125 140 820.5 140 C 817.1875 140 814.5 142.6875 814.5 146 C 814.5 149.3125 817.1875 152 820.5 152 C 823.8125 152 826.5 149.3125 826.5 146 Z "/>
<path style="fill:none;stroke-width:1;stroke-linecap:round;stroke-linejoin:round;stroke:rgb(74.509804%,74.509804%,74.509804%);stroke-opacity:1;stroke-miterlimit:10;" d="M 1023.625 146 L 1048 192 "/>
<path style="fill:none;stroke-width:1;stroke-linecap:round;stroke-linejoin:round;stroke:rgb(74.509804%,74.509804%,74.509804%);stroke-opacity:1;stroke-miterlimit:10;" d="M 1023.625 146 L 999.25 192 "/>
<path style="fill:none;stroke-width:1;stroke-linecap:round;stroke-linejoin:round;stroke:rgb(74.509804%,74.509804%,74.509804%);stroke-opacity:1;stroke-miterlimit:10;" d="M 999.25 192 L 1022 238 "/>
<path style="fill:none;stroke-width:1;stroke-linecap:round;stroke-linejoin:round;stroke:rgb(74.509804%,74.509804%,74.509804%);stroke-opacity:1;stroke-miterlimit:10;" d="M 999.25 192 L 976.5 238 "/>
<path style="fill:none;stroke-width:1;stroke-linecap:round;stroke-linejoin:round;stroke:rgb(74.509804%,74.509804%,74.509804%);stroke-opacity:1;stroke-miterlimit:10;" d="M 976.5 238 L 996 284 "/>
<path style="fill:none;stroke-width:1;stroke-linecap:round;stroke-linejoin:round;stroke:rgb(74.509804%,74.509804%,74.509804%);stroke-opacity:1;stroke-miterlimit:10;" d="M 976.5 238 L 957 284 "/>
<path style="fill:none;stroke-width:1;stroke-linecap:round;stroke-linejoin:round;stroke:rgb(74.509804%,74.509804%,74.509804%);stroke-opacity:1;stroke-miterlimit:10;" d="M 957 284 L 970 330 "/>
<path style="fill:none;stroke-width:1;stroke-linecap:round;stroke-linejoin:round;stroke:rgb(74.509804%,74.509804%,74.509804%);stroke-opacity:1;stroke-miterlimit:10;" d="M 957 284 L 944 330 "/>
<path style=" stroke:none;fill-rule:nonzero;fill:rgb(0%,0%,0%);fill-opacity:1;" d="M 944 330 L 952 330 C 952 325.582031 948.417969 322 944 322 C 939.582031 322 936 325.582031 936 330 C 936 334.417969 939.582031 338 944 338 C 948.417969 338 952 334.417969 952 330 Z "/>
<path style=" stroke:none;fill-rule:nonzero;fill:rgb(100%,100%,100%);fill-opacity:1;" d="M 944 330 L 950 330 C 950 326.6875 947.3125 324 944 324 C 940.6875 324 938 326.6875 938 330 C 938 333.3125 940.6875 336 944 336 C 947.3125 336 950 333.3125 950 330 Z "/>
<path style=" stroke:none;fill-rule:nonzero;fill:rgb(0%,0%,0%);fill-opacity:1;" d="M 970 330 L 978 330 C 978 325.582031 974.417969 322 970 322 C 965.582031 322 962 325.582031 962 330 C 962 334.417969 965.582031 338 970 338 C 974.417969 338 978 334.417969 978 330 Z "/>
<path style=" stroke:none;fill-rule:nonzero;fill:rgb(100%,100%,100%);fill-opacity:1;" d="M 970 330 L 976 330 C 976 326.6875 973.3125 324 970 324 C 966.6875 324 964 326.6875 964 330 C 964 333.3125 966.6875 336 970 336 C 973.3125 336 976 333.3125 976 330 Z "/>
<path style=" stroke:none;fill-rule:nonzero;fill:rgb(0%,0%,0%);fill-opacity:1;" d="M 957 284 L 965 284 C 965 279.582031 961.417969 276 957 276 C 952.582031 276 949 279.582031 949 284 C 949 288.417969 952.582031 292 957 292 C 961.417969 292 965 288.417969 965 284 Z "/>
<path style=" stroke:none;fill-rule:nonzero;fill:rgb(100%,100%,100%);fill-opacity:1;" d="M 957 284 L 963 284 C 963 280.6875 960.3125 278 957 278 C 953.6875 278 951 280.6875 951 284 C 951 287.3125 953.6875 290 957 290 C 960.3125 290 963 287.3125 963 284 Z "/>
<path style=" stroke:none;fill-rule:nonzero;fill:rgb(0%,0%,0%);fill-opacity:1;" d="M 996 284 L 1004 284 C 1004 279.582031 1000.417969 276 996 276 C 991.582031 276 988 279.582031 988 284 C 988 288.417969 991.582031 292 996 292 C 1000.417969 292 1004 288.417969 1004 284 Z "/>
<path style=" stroke:none;fill-rule:nonzero;fill:rgb(100%,100%,100%);fill-opacity:1;" d="M 996 284 L 1002 284 C 1002 280.6875 999.3125 278 996 278 C 992.6875 278 990 280.6875 990 284 C 990 287.3125 992.6875 290 996 290 C 999.3125 290 1002 287.3125 1002 284 Z "/>
<path style=" stroke:none;fill-rule:nonzero;fill:rgb(0%,0%,0%);fill-opacity:1;" d="M 976.5 238 L 984.5 238 C 984.5 233.582031 980.917969 230 976.5 230 C 972.082031 230 968.5 233.582031 968.5 238 C 968.5 242.417969 972.082031 246 976.5 246 C 980.917969 246 984.5 242.417969 984.5 238 Z "/>
<path style=" stroke:none;fill-rule:nonzero;fill:rgb(100%,100%,100%);fill-opacity:1;" d="M 976.5 238 L 982.5 238 C 982.5 234.6875 979.8125 232 976.5 232 C 973.1875 232 970.5 234.6875 970.5 238 C 970.5 241.3125 973.1875 244 976.5 244 C 979.8125 244 982.5 241.3125 982.5 238 Z "/>
<path style=" stroke:none;fill-rule:nonzero;fill:rgb(0%,0%,0%);fill-opacity:1;" d="M 1022 238 L 1030 238 C 1030 233.582031 1026.417969 230 1022 230 C 1017.582031 230 1014 233.582031 1014 238 C 1014 242.417969 1017.582031 246 1022 246 C 1026.417969 246 1030 242.417969 1030 238 Z "/>
<path style=" stroke:none;fill-rule:nonzero;fill:rgb(100%,100%,100%);fill-opacity:1;" d="M 1022 238 L 1028 238 C 1028 234.6875 1025.3125 232 1022 232 C 1018.6875 232 1016 234.6875 1016 238 C 1016 241.3125 1018.6875 244 1022 244 C 1025.3125 244 1028 241.3125 1028 238 Z "/>
<path style=" stroke:none;fill-rule:nonzero;fill:rgb(0%,0%,0%);fill-opacity:1;" d="M 999.25 192 L 1007.25 192 C 1007.25 187.582031 1003.667969 184 999.25 184 C 994.832031 184 991.25 187.582031 991.25 192 C 991.25 196.417969 994.832031 200 999.25 200 C 1003.667969 200 1007.25 196.417969 1007.25 192 Z "/>
<path style=" stroke:none;fill-rule:nonzero;fill:rgb(100%,100%,100%);fill-opacity:1;" d="M 999.25 192 L 1005.25 192 C 1005.25 188.6875 1002.5625 186 999.25 186 C 995.9375 186 993.25 188.6875 993.25 192 C 993.25 195.3125 995.9375 198 999.25 198 C 1002.5625 198 1005.25 195.3125 1005.25 192 Z "/>
<path style=" stroke:none;fill-rule:nonzero;fill:rgb(0%,0%,0%);fill-opacity:1;" d="M 1048 192 L 1056 192 C 1056 187.582031 1052.417969 184 1048 184 C 1043.582031 184 1040 187.582031 1040 192 C 1040 196.417969 1043.582031 200 1048 200 C 1052.417969 200 1056 196.417969 1056 192 Z "/>
<path style=" stroke:none;fill-rule:nonzero;fill:rgb(100%,100%,100%);fill-opacity:1;" d="M 1048 192 L 1054 192 C 1054 188.6875 1051.3125 186 1048 186 C 1044.6875 186 1042 188.6875 1042 192 C 1042 195.3125 1044.6875 198 1048 198 C 1051.3125 198 1054 195.3125 1054 192 Z "/>
<path style=" stroke:none;fill-rule:nonzero;fill:rgb(0%,0%,0%);fill-opacity:1;" d="M 1023.625 146 L 1031.625 146 C 1031.625 141.582031 1028.042969 138 1023.625 138 C 1019.207031 138 1015.625 141.582031 1015.625 146 C 1015.625 150.417969 1019.207031 154 1023.625 154 C 1028.042969 154 1031.625 150.417969 1031.625 146 Z "/>
<path style=" stroke:none;fill-rule:nonzero;fill:rgb(100%,100%,100%);fill-opacity:1;" d="M 1023.625 146 L 1029.625 146 C 1029.625 142.6875 1026.9375 140 1023.625 140 C 1020.3125 140 1017.625 142.6875 1017.625 146 C 1017.625 149.3125 1020.3125 152 1023.625 152 C 1026.9375 152 1029.625 149.3125 1029.625 146 Z "/>
<path style=" stroke:none;fill-rule:nonzero;fill:rgb(0%,0%,0%);fill-opacity:1;" d="M 922.0625 100 L 930.0625 100 C 930.0625 95.582031 926.480469 92 922.0625 92 C 917.644531 92 914.0625 95.582031 914.0625 100 C 914.0625 104.417969 917.644531 108 922.0625 108 C 926.480469 108 930.0625 104.417969 930.0625 100 Z "/>
<path style=" stroke:none;fill-rule:nonzero;fill:rgb(100%,100%,100%);fill-opacity:1;" d="M 922.0625 100 L 928.0625 100 C 928.0625 96.6875 925.375 94 922.0625 94 C 918.75 94 916.0625 96.6875 916.0625 100 C 916.0625 103.3125 918.75 106 922.0625 106 C 925.375 106 928.0625 103.3125 928.0625 100 Z "/>
<path style=" stroke:none;fill-rule:nonzero;fill:rgb(0%,0%,0%);fill-opacity:1;" d="M 638.90625 54 L 646.90625 54 C 646.90625 49.582031 643.324219 46 638.90625 46 C 634.488281 46 630.90625 49.582031 630.90625 54 C 630.90625 58.417969 634.488281 62 638.90625 62 C 643.324219 62 646.90625 58.417969 646.90625 54 Z "/>
<path style=" stroke:none;fill-rule:nonzero;fill:rgb(100%,100%,100%);fill-opacity:1;" d="M 638.90625 54 L 644.90625 54 C 644.90625 50.6875 642.21875 48 638.90625 48 C 635.59375 48 632.90625 50.6875 632.90625 54 C 632.90625 57.3125 635.59375 60 638.90625 60 C 642.21875 60 644.90625 57.3125 644.90625 54 Z "/>
<path style="fill:none;stroke-width:1;stroke-linecap:round;stroke-linejoin:round;stroke:rgb(74.509804%,74.509804%,74.509804%);stroke-opacity:1;stroke-miterlimit:10;" d="M 1466.4375 54 L 1594.8125 100 "/>
<path style="fill:none;stroke-width:1;stroke-linecap:round;stroke-linejoin:round;stroke:rgb(74.509804%,74.509804%,74.509804%);stroke-opacity:1;stroke-miterlimit:10;" d="M 1466.4375 54 L 1338.0625 100 "/>
<path style="fill:none;stroke-width:1;stroke-linecap:round;stroke-linejoin:round;stroke:rgb(74.509804%,74.509804%,74.509804%);stroke-opacity:1;stroke-miterlimit:10;" d="M 1338.0625 100 L 1439.625 146 "/>
<path style="fill:none;stroke-width:1;stroke-linecap:round;stroke-linejoin:round;stroke:rgb(74.509804%,74.509804%,74.509804%);stroke-opacity:1;stroke-miterlimit:10;" d="M 1338.0625 100 L 1236.5 146 "/>
<path style="fill:none;stroke-width:1;stroke-linecap:round;stroke-linejoin:round;stroke:rgb(74.509804%,74.509804%,74.509804%);stroke-opacity:1;stroke-miterlimit:10;" d="M 1236.5 146 L 1311.25 192 "/>
<path style="fill:none;stroke-width:1;stroke-linecap:round;stroke-linejoin:round;stroke:rgb(74.509804%,74.509804%,74.509804%);stroke-opacity:1;stroke-miterlimit:10;" d="M 1236.5 146 L 1161.75 192 "/>
<path style="fill:none;stroke-width:1;stroke-linecap:round;stroke-linejoin:round;stroke:rgb(74.509804%,74.509804%,74.509804%);stroke-opacity:1;stroke-miterlimit:10;" d="M 1161.75 192 L 1210.5 238 "/>
<path style="fill:none;stroke-width:1;stroke-linecap:round;stroke-linejoin:round;stroke:rgb(74.509804%,74.509804%,74.509804%);stroke-opacity:1;stroke-miterlimit:10;" d="M 1161.75 192 L 1113 238 "/>
<path style="fill:none;stroke-width:1;stroke-linecap:round;stroke-linejoin:round;stroke:rgb(74.509804%,74.509804%,74.509804%);stroke-opacity:1;stroke-miterlimit:10;" d="M 1113 238 L 1139 284 "/>
<path style="fill:none;stroke-width:1;stroke-linecap:round;stroke-linejoin:round;stroke:rgb(74.509804%,74.509804%,74.509804%);stroke-opacity:1;stroke-miterlimit:10;" d="M 1113 238 L 1087 284 "/>
<path style="fill:none;stroke-width:1;stroke-linecap:round;stroke-linejoin:round;stroke:rgb(74.509804%,74.509804%,74.509804%);stroke-opacity:1;stroke-miterlimit:10;" d="M 1087 284 L 1100 330 "/>
<path style="fill:none;stroke-width:1;stroke-linecap:round;stroke-linejoin:round;stroke:rgb(74.509804%,74.509804%,74.509804%);stroke-opacity:1;stroke-miterlimit:10;" d="M 1087 284 L 1074 330 "/>
<path style=" stroke:none;fill-rule:nonzero;fill:rgb(0%,0%,0%);fill-opacity:1;" d="M 1074 330 L 1082 330 C 1082 325.582031 1078.417969 322 1074 322 C 1069.582031 322 1066 325.582031 1066 330 C 1066 334.417969 1069.582031 338 1074 338 C 1078.417969 338 1082 334.417969 1082 330 Z "/>
<path style=" stroke:none;fill-rule:nonzero;fill:rgb(100%,100%,100%);fill-opacity:1;" d="M 1074 330 L 1080 330 C 1080 326.6875 1077.3125 324 1074 324 C 1070.6875 324 1068 326.6875 1068 330 C 1068 333.3125 1070.6875 336 1074 336 C 1077.3125 336 1080 333.3125 1080 330 Z "/>
<path style=" stroke:none;fill-rule:nonzero;fill:rgb(0%,0%,0%);fill-opacity:1;" d="M 1100 330 L 1108 330 C 1108 325.582031 1104.417969 322 1100 322 C 1095.582031 322 1092 325.582031 1092 330 C 1092 334.417969 1095.582031 338 1100 338 C 1104.417969 338 1108 334.417969 1108 330 Z "/>
<path style=" stroke:none;fill-rule:nonzero;fill:rgb(100%,100%,100%);fill-opacity:1;" d="M 1100 330 L 1106 330 C 1106 326.6875 1103.3125 324 1100 324 C 1096.6875 324 1094 326.6875 1094 330 C 1094 333.3125 1096.6875 336 1100 336 C 1103.3125 336 1106 333.3125 1106 330 Z "/>
<path style=" stroke:none;fill-rule:nonzero;fill:rgb(0%,0%,0%);fill-opacity:1;" d="M 1087 284 L 1095 284 C 1095 279.582031 1091.417969 276 1087 276 C 1082.582031 276 1079 279.582031 1079 284 C 1079 288.417969 1082.582031 292 1087 292 C 1091.417969 292 1095 288.417969 1095 284 Z "/>
<path style=" stroke:none;fill-rule:nonzero;fill:rgb(100%,100%,100%);fill-opacity:1;" d="M 1087 284 L 1093 284 C 1093 280.6875 1090.3125 278 1087 278 C 1083.6875 278 1081 280.6875 1081 284 C 1081 287.3125 1083.6875 290 1087 290 C 1090.3125 290 1093 287.3125 1093 284 Z "/>
<path style="fill:none;stroke-width:1;stroke-linecap:round;stroke-linejoin:round;stroke:rgb(74.509804%,74.509804%,74.509804%);stroke-opacity:1;stroke-miterlimit:10;" d="M 1139 284 L 1152 330 "/>
<path style="fill:none;stroke-width:1;stroke-linecap:round;stroke-linejoin:round;stroke:rgb(74.509804%,74.509804%,74.509804%);stroke-opacity:1;stroke-miterlimit:10;" d="M 1139 284 L 1126 330 "/>
<path style=" stroke:none;fill-rule:nonzero;fill:rgb(0%,0%,0%);fill-opacity:1;" d="M 1126 330 L 1134 330 C 1134 325.582031 1130.417969 322 1126 322 C 1121.582031 322 1118 325.582031 1118 330 C 1118 334.417969 1121.582031 338 1126 338 C 1130.417969 338 1134 334.417969 1134 330 Z "/>
<path style=" stroke:none;fill-rule:nonzero;fill:rgb(100%,100%,100%);fill-opacity:1;" d="M 1126 330 L 1132 330 C 1132 326.6875 1129.3125 324 1126 324 C 1122.6875 324 1120 326.6875 1120 330 C 1120 333.3125 1122.6875 336 1126 336 C 1129.3125 336 1132 333.3125 1132 330 Z "/>
<path style=" stroke:none;fill-rule:nonzero;fill:rgb(0%,0%,0%);fill-opacity:1;" d="M 1152 330 L 1160 330 C 1160 325.582031 1156.417969 322 1152 322 C 1147.582031 322 1144 325.582031 1144 330 C 1144 334.417969 1147.582031 338 1152 338 C 1156.417969 338 1160 334.417969 1160 330 Z "/>
<path style=" stroke:none;fill-rule:nonzero;fill:rgb(100%,100%,100%);fill-opacity:1;" d="M 1152 330 L 1158 330 C 1158 326.6875 1155.3125 324 1152 324 C 1148.6875 324 1146 326.6875 1146 330 C 1146 333.3125 1148.6875 336 1152 336 C 1155.3125 336 1158 333.3125 1158 330 Z "/>
<path style=" stroke:none;fill-rule:nonzero;fill:rgb(0%,0%,0%);fill-opacity:1;" d="M 1139 284 L 1147 284 C 1147 279.582031 1143.417969 276 1139 276 C 1134.582031 276 1131 279.582031 1131 284 C 1131 288.417969 1134.582031 292 1139 292 C 1143.417969 292 1147 288.417969 1147 284 Z "/>
<path style=" stroke:none;fill-rule:nonzero;fill:rgb(100%,100%,100%);fill-opacity:1;" d="M 1139 284 L 1145 284 C 1145 280.6875 1142.3125 278 1139 278 C 1135.6875 278 1133 280.6875 1133 284 C 1133 287.3125 1135.6875 290 1139 290 C 1142.3125 290 1145 287.3125 1145 284 Z "/>
<path style=" stroke:none;fill-rule:nonzero;fill:rgb(0%,0%,0%);fill-opacity:1;" d="M 1113 238 L 1121 238 C 1121 233.582031 1117.417969 230 1113 230 C 1108.582031 230 1105 233.582031 1105 238 C 1105 242.417969 1108.582031 246 1113 246 C 1117.417969 246 1121 242.417969 1121 238 Z "/>
<path style=" stroke:none;fill-rule:nonzero;fill:rgb(100%,100%,100%);fill-opacity:1;" d="M 1113 238 L 1119 238 C 1119 234.6875 1116.3125 232 1113 232 C 1109.6875 232 1107 234.6875 1107 238 C 1107 241.3125 1109.6875 244 1113 244 C 1116.3125 244 1119 241.3125 1119 238 Z "/>
<path style="fill:none;stroke-width:1;stroke-linecap:round;stroke-linejoin:round;stroke:rgb(74.509804%,74.509804%,74.509804%);stroke-opacity:1;stroke-miterlimit:10;" d="M 1210.5 238 L 1230 284 "/>
<path style="fill:none;stroke-width:1;stroke-linecap:round;stroke-linejoin:round;stroke:rgb(74.509804%,74.509804%,74.509804%);stroke-opacity:1;stroke-miterlimit:10;" d="M 1210.5 238 L 1191 284 "/>
<path style="fill:none;stroke-width:1;stroke-linecap:round;stroke-linejoin:round;stroke:rgb(74.509804%,74.509804%,74.509804%);stroke-opacity:1;stroke-miterlimit:10;" d="M 1191 284 L 1204 330 "/>
<path style="fill:none;stroke-width:1;stroke-linecap:round;stroke-linejoin:round;stroke:rgb(74.509804%,74.509804%,74.509804%);stroke-opacity:1;stroke-miterlimit:10;" d="M 1191 284 L 1178 330 "/>
<path style=" stroke:none;fill-rule:nonzero;fill:rgb(0%,0%,0%);fill-opacity:1;" d="M 1178 330 L 1186 330 C 1186 325.582031 1182.417969 322 1178 322 C 1173.582031 322 1170 325.582031 1170 330 C 1170 334.417969 1173.582031 338 1178 338 C 1182.417969 338 1186 334.417969 1186 330 Z "/>
<path style=" stroke:none;fill-rule:nonzero;fill:rgb(100%,100%,100%);fill-opacity:1;" d="M 1178 330 L 1184 330 C 1184 326.6875 1181.3125 324 1178 324 C 1174.6875 324 1172 326.6875 1172 330 C 1172 333.3125 1174.6875 336 1178 336 C 1181.3125 336 1184 333.3125 1184 330 Z "/>
<path style=" stroke:none;fill-rule:nonzero;fill:rgb(0%,0%,0%);fill-opacity:1;" d="M 1204 330 L 1212 330 C 1212 325.582031 1208.417969 322 1204 322 C 1199.582031 322 1196 325.582031 1196 330 C 1196 334.417969 1199.582031 338 1204 338 C 1208.417969 338 1212 334.417969 1212 330 Z "/>
<path style=" stroke:none;fill-rule:nonzero;fill:rgb(100%,100%,100%);fill-opacity:1;" d="M 1204 330 L 1210 330 C 1210 326.6875 1207.3125 324 1204 324 C 1200.6875 324 1198 326.6875 1198 330 C 1198 333.3125 1200.6875 336 1204 336 C 1207.3125 336 1210 333.3125 1210 330 Z "/>
<path style=" stroke:none;fill-rule:nonzero;fill:rgb(0%,0%,0%);fill-opacity:1;" d="M 1191 284 L 1199 284 C 1199 279.582031 1195.417969 276 1191 276 C 1186.582031 276 1183 279.582031 1183 284 C 1183 288.417969 1186.582031 292 1191 292 C 1195.417969 292 1199 288.417969 1199 284 Z "/>
<path style=" stroke:none;fill-rule:nonzero;fill:rgb(100%,100%,100%);fill-opacity:1;" d="M 1191 284 L 1197 284 C 1197 280.6875 1194.3125 278 1191 278 C 1187.6875 278 1185 280.6875 1185 284 C 1185 287.3125 1187.6875 290 1191 290 C 1194.3125 290 1197 287.3125 1197 284 Z "/>
<path style=" stroke:none;fill-rule:nonzero;fill:rgb(0%,0%,0%);fill-opacity:1;" d="M 1230 284 L 1238 284 C 1238 279.582031 1234.417969 276 1230 276 C 1225.582031 276 1222 279.582031 1222 284 C 1222 288.417969 1225.582031 292 1230 292 C 1234.417969 292 1238 288.417969 1238 284 Z "/>
<path style=" stroke:none;fill-rule:nonzero;fill:rgb(100%,100%,100%);fill-opacity:1;" d="M 1230 284 L 1236 284 C 1236 280.6875 1233.3125 278 1230 278 C 1226.6875 278 1224 280.6875 1224 284 C 1224 287.3125 1226.6875 290 1230 290 C 1233.3125 290 1236 287.3125 1236 284 Z "/>
<path style=" stroke:none;fill-rule:nonzero;fill:rgb(0%,0%,0%);fill-opacity:1;" d="M 1210.5 238 L 1218.5 238 C 1218.5 233.582031 1214.917969 230 1210.5 230 C 1206.082031 230 1202.5 233.582031 1202.5 238 C 1202.5 242.417969 1206.082031 246 1210.5 246 C 1214.917969 246 1218.5 242.417969 1218.5 238 Z "/>
<path style=" stroke:none;fill-rule:nonzero;fill:rgb(100%,100%,100%);fill-opacity:1;" d="M 1210.5 238 L 1216.5 238 C 1216.5 234.6875 1213.8125 232 1210.5 232 C 1207.1875 232 1204.5 234.6875 1204.5 238 C 1204.5 241.3125 1207.1875 244 1210.5 244 C 1213.8125 244 1216.5 241.3125 1216.5 238 Z "/>
<path style=" stroke:none;fill-rule:nonzero;fill:rgb(0%,0%,0%);fill-opacity:1;" d="M 1161.75 192 L 1169.75 192 C 1169.75 187.582031 1166.167969 184 1161.75 184 C 1157.332031 184 1153.75 187.582031 1153.75 192 C 1153.75 196.417969 1157.332031 200 1161.75 200 C 1166.167969 200 1169.75 196.417969 1169.75 192 Z "/>
<path style=" stroke:none;fill-rule:nonzero;fill:rgb(100%,100%,100%);fill-opacity:1;" d="M 1161.75 192 L 1167.75 192 C 1167.75 188.6875 1165.0625 186 1161.75 186 C 1158.4375 186 1155.75 188.6875 1155.75 192 C 1155.75 195.3125 1158.4375 198 1161.75 198 C 1165.0625 198 1167.75 195.3125 1167.75 192 Z "/>
<path style="fill:none;stroke-width:1;stroke-linecap:round;stroke-linejoin:round;stroke:rgb(74.509804%,74.509804%,74.509804%);stroke-opacity:1;stroke-miterlimit:10;" d="M 1311.25 192 L 1334 238 "/>
<path style="fill:none;stroke-width:1;stroke-linecap:round;stroke-linejoin:round;stroke:rgb(74.509804%,74.509804%,74.509804%);stroke-opacity:1;stroke-miterlimit:10;" d="M 1311.25 192 L 1288.5 238 "/>
<path style="fill:none;stroke-width:1;stroke-linecap:round;stroke-linejoin:round;stroke:rgb(74.509804%,74.509804%,74.509804%);stroke-opacity:1;stroke-miterlimit:10;" d="M 1288.5 238 L 1308 284 "/>
<path style="fill:none;stroke-width:1;stroke-linecap:round;stroke-linejoin:round;stroke:rgb(74.509804%,74.509804%,74.509804%);stroke-opacity:1;stroke-miterlimit:10;" d="M 1288.5 238 L 1269 284 "/>
<path style="fill:none;stroke-width:1;stroke-linecap:round;stroke-linejoin:round;stroke:rgb(74.509804%,74.509804%,74.509804%);stroke-opacity:1;stroke-miterlimit:10;" d="M 1269 284 L 1282 330 "/>
<path style="fill:none;stroke-width:1;stroke-linecap:round;stroke-linejoin:round;stroke:rgb(74.509804%,74.509804%,74.509804%);stroke-opacity:1;stroke-miterlimit:10;" d="M 1269 284 L 1256 330 "/>
<path style=" stroke:none;fill-rule:nonzero;fill:rgb(0%,0%,0%);fill-opacity:1;" d="M 1256 330 L 1264 330 C 1264 325.582031 1260.417969 322 1256 322 C 1251.582031 322 1248 325.582031 1248 330 C 1248 334.417969 1251.582031 338 1256 338 C 1260.417969 338 1264 334.417969 1264 330 Z "/>
<path style=" stroke:none;fill-rule:nonzero;fill:rgb(100%,100%,100%);fill-opacity:1;" d="M 1256 330 L 1262 330 C 1262 326.6875 1259.3125 324 1256 324 C 1252.6875 324 1250 326.6875 1250 330 C 1250 333.3125 1252.6875 336 1256 336 C 1259.3125 336 1262 333.3125 1262 330 Z "/>
<path style=" stroke:none;fill-rule:nonzero;fill:rgb(0%,0%,0%);fill-opacity:1;" d="M 1282 330 L 1290 330 C 1290 325.582031 1286.417969 322 1282 322 C 1277.582031 322 1274 325.582031 1274 330 C 1274 334.417969 1277.582031 338 1282 338 C 1286.417969 338 1290 334.417969 1290 330 Z "/>
<path style=" stroke:none;fill-rule:nonzero;fill:rgb(100%,100%,100%);fill-opacity:1;" d="M 1282 330 L 1288 330 C 1288 326.6875 1285.3125 324 1282 324 C 1278.6875 324 1276 326.6875 1276 330 C 1276 333.3125 1278.6875 336 1282 336 C 1285.3125 336 1288 333.3125 1288 330 Z "/>
<path style=" stroke:none;fill-rule:nonzero;fill:rgb(0%,0%,0%);fill-opacity:1;" d="M 1269 284 L 1277 284 C 1277 279.582031 1273.417969 276 1269 276 C 1264.582031 276 1261 279.582031 1261 284 C 1261 288.417969 1264.582031 292 1269 292 C 1273.417969 292 1277 288.417969 1277 284 Z "/>
<path style=" stroke:none;fill-rule:nonzero;fill:rgb(100%,100%,100%);fill-opacity:1;" d="M 1269 284 L 1275 284 C 1275 280.6875 1272.3125 278 1269 278 C 1265.6875 278 1263 280.6875 1263 284 C 1263 287.3125 1265.6875 290 1269 290 C 1272.3125 290 1275 287.3125 1275 284 Z "/>
<path style=" stroke:none;fill-rule:nonzero;fill:rgb(0%,0%,0%);fill-opacity:1;" d="M 1308 284 L 1316 284 C 1316 279.582031 1312.417969 276 1308 276 C 1303.582031 276 1300 279.582031 1300 284 C 1300 288.417969 1303.582031 292 1308 292 C 1312.417969 292 1316 288.417969 1316 284 Z "/>
<path style=" stroke:none;fill-rule:nonzero;fill:rgb(100%,100%,100%);fill-opacity:1;" d="M 1308 284 L 1314 284 C 1314 280.6875 1311.3125 278 1308 278 C 1304.6875 278 1302 280.6875 1302 284 C 1302 287.3125 1304.6875 290 1308 290 C 1311.3125 290 1314 287.3125 1314 284 Z "/>
<path style=" stroke:none;fill-rule:nonzero;fill:rgb(0%,0%,0%);fill-opacity:1;" d="M 1288.5 238 L 1296.5 238 C 1296.5 233.582031 1292.917969 230 1288.5 230 C 1284.082031 230 1280.5 233.582031 1280.5 238 C 1280.5 242.417969 1284.082031 246 1288.5 246 C 1292.917969 246 1296.5 242.417969 1296.5 238 Z "/>
<path style=" stroke:none;fill-rule:nonzero;fill:rgb(100%,100%,100%);fill-opacity:1;" d="M 1288.5 238 L 1294.5 238 C 1294.5 234.6875 1291.8125 232 1288.5 232 C 1285.1875 232 1282.5 234.6875 1282.5 238 C 1282.5 241.3125 1285.1875 244 1288.5 244 C 1291.8125 244 1294.5 241.3125 1294.5 238 Z "/>
<path style=" stroke:none;fill-rule:nonzero;fill:rgb(0%,0%,0%);fill-opacity:1;" d="M 1334 238 L 1342 238 C 1342 233.582031 1338.417969 230 1334 230 C 1329.582031 230 1326 233.582031 1326 238 C 1326 242.417969 1329.582031 246 1334 246 C 1338.417969 246 1342 242.417969 1342 238 Z "/>
<path style=" stroke:none;fill-rule:nonzero;fill:rgb(100%,100%,100%);fill-opacity:1;" d="M 1334 238 L 1340 238 C 1340 234.6875 1337.3125 232 1334 232 C 1330.6875 232 1328 234.6875 1328 238 C 1328 241.3125 1330.6875 244 1334 244 C 1337.3125 244 1340 241.3125 1340 238 Z "/>
<path style=" stroke:none;fill-rule:nonzero;fill:rgb(0%,0%,0%);fill-opacity:1;" d="M 1311.25 192 L 1319.25 192 C 1319.25 187.582031 1315.667969 184 1311.25 184 C 1306.832031 184 1303.25 187.582031 1303.25 192 C 1303.25 196.417969 1306.832031 200 1311.25 200 C 1315.667969 200 1319.25 196.417969 1319.25 192 Z "/>
<path style=" stroke:none;fill-rule:nonzero;fill:rgb(100%,100%,100%);fill-opacity:1;" d="M 1311.25 192 L 1317.25 192 C 1317.25 188.6875 1314.5625 186 1311.25 186 C 1307.9375 186 1305.25 188.6875 1305.25 192 C 1305.25 195.3125 1307.9375 198 1311.25 198 C 1314.5625 198 1317.25 195.3125 1317.25 192 Z "/>
<path style=" stroke:none;fill-rule:nonzero;fill:rgb(0%,0%,0%);fill-opacity:1;" d="M 1236.5 146 L 1244.5 146 C 1244.5 141.582031 1240.917969 138 1236.5 138 C 1232.082031 138 1228.5 141.582031 1228.5 146 C 1228.5 150.417969 1232.082031 154 1236.5 154 C 1240.917969 154 1244.5 150.417969 1244.5 146 Z "/>
<path style=" stroke:none;fill-rule:nonzero;fill:rgb(100%,100%,100%);fill-opacity:1;" d="M 1236.5 146 L 1242.5 146 C 1242.5 142.6875 1239.8125 140 1236.5 140 C 1233.1875 140 1230.5 142.6875 1230.5 146 C 1230.5 149.3125 1233.1875 152 1236.5 152 C 1239.8125 152 1242.5 149.3125 1242.5 146 Z "/>
<path style="fill:none;stroke-width:1;stroke-linecap:round;stroke-linejoin:round;stroke:rgb(74.509804%,74.509804%,74.509804%);stroke-opacity:1;stroke-miterlimit:10;" d="M 1439.625 146 L 1464 192 "/>
<path style="fill:none;stroke-width:1;stroke-linecap:round;stroke-linejoin:round;stroke:rgb(74.509804%,74.509804%,74.509804%);stroke-opacity:1;stroke-miterlimit:10;" d="M 1439.625 146 L 1415.25 192 "/>
<path style="fill:none;stroke-width:1;stroke-linecap:round;stroke-linejoin:round;stroke:rgb(74.509804%,74.509804%,74.509804%);stroke-opacity:1;stroke-miterlimit:10;" d="M 1415.25 192 L 1438 238 "/>
<path style="fill:none;stroke-width:1;stroke-linecap:round;stroke-linejoin:round;stroke:rgb(74.509804%,74.509804%,74.509804%);stroke-opacity:1;stroke-miterlimit:10;" d="M 1415.25 192 L 1392.5 238 "/>
<path style="fill:none;stroke-width:1;stroke-linecap:round;stroke-linejoin:round;stroke:rgb(74.509804%,74.509804%,74.509804%);stroke-opacity:1;stroke-miterlimit:10;" d="M 1392.5 238 L 1412 284 "/>
<path style="fill:none;stroke-width:1;stroke-linecap:round;stroke-linejoin:round;stroke:rgb(74.509804%,74.509804%,74.509804%);stroke-opacity:1;stroke-miterlimit:10;" d="M 1392.5 238 L 1373 284 "/>
<path style="fill:none;stroke-width:1;stroke-linecap:round;stroke-linejoin:round;stroke:rgb(74.509804%,74.509804%,74.509804%);stroke-opacity:1;stroke-miterlimit:10;" d="M 1373 284 L 1386 330 "/>
<path style="fill:none;stroke-width:1;stroke-linecap:round;stroke-linejoin:round;stroke:rgb(74.509804%,74.509804%,74.509804%);stroke-opacity:1;stroke-miterlimit:10;" d="M 1373 284 L 1360 330 "/>
<path style=" stroke:none;fill-rule:nonzero;fill:rgb(0%,0%,0%);fill-opacity:1;" d="M 1360 330 L 1368 330 C 1368 325.582031 1364.417969 322 1360 322 C 1355.582031 322 1352 325.582031 1352 330 C 1352 334.417969 1355.582031 338 1360 338 C 1364.417969 338 1368 334.417969 1368 330 Z "/>
<path style=" stroke:none;fill-rule:nonzero;fill:rgb(100%,100%,100%);fill-opacity:1;" d="M 1360 330 L 1366 330 C 1366 326.6875 1363.3125 324 1360 324 C 1356.6875 324 1354 326.6875 1354 330 C 1354 333.3125 1356.6875 336 1360 336 C 1363.3125 336 1366 333.3125 1366 330 Z "/>
<path style=" stroke:none;fill-rule:nonzero;fill:rgb(0%,0%,0%);fill-opacity:1;" d="M 1386 330 L 1394 330 C 1394 325.582031 1390.417969 322 1386 322 C 1381.582031 322 1378 325.582031 1378 330 C 1378 334.417969 1381.582031 338 1386 338 C 1390.417969 338 1394 334.417969 1394 330 Z "/>
<path style=" stroke:none;fill-rule:nonzero;fill:rgb(100%,100%,100%);fill-opacity:1;" d="M 1386 330 L 1392 330 C 1392 326.6875 1389.3125 324 1386 324 C 1382.6875 324 1380 326.6875 1380 330 C 1380 333.3125 1382.6875 336 1386 336 C 1389.3125 336 1392 333.3125 1392 330 Z "/>
<path style=" stroke:none;fill-rule:nonzero;fill:rgb(0%,0%,0%);fill-opacity:1;" d="M 1373 284 L 1381 284 C 1381 279.582031 1377.417969 276 1373 276 C 1368.582031 276 1365 279.582031 1365 284 C 1365 288.417969 1368.582031 292 1373 292 C 1377.417969 292 1381 288.417969 1381 284 Z "/>
<path style=" stroke:none;fill-rule:nonzero;fill:rgb(100%,100%,100%);fill-opacity:1;" d="M 1373 284 L 1379 284 C 1379 280.6875 1376.3125 278 1373 278 C 1369.6875 278 1367 280.6875 1367 284 C 1367 287.3125 1369.6875 290 1373 290 C 1376.3125 290 1379 287.3125 1379 284 Z "/>
<path style=" stroke:none;fill-rule:nonzero;fill:rgb(0%,0%,0%);fill-opacity:1;" d="M 1412 284 L 1420 284 C 1420 279.582031 1416.417969 276 1412 276 C 1407.582031 276 1404 279.582031 1404 284 C 1404 288.417969 1407.582031 292 1412 292 C 1416.417969 292 1420 288.417969 1420 284 Z "/>
<path style=" stroke:none;fill-rule:nonzero;fill:rgb(100%,100%,100%);fill-opacity:1;" d="M 1412 284 L 1418 284 C 1418 280.6875 1415.3125 278 1412 278 C 1408.6875 278 1406 280.6875 1406 284 C 1406 287.3125 1408.6875 290 1412 290 C 1415.3125 290 1418 287.3125 1418 284 Z "/>
<path style=" stroke:none;fill-rule:nonzero;fill:rgb(0%,0%,0%);fill-opacity:1;" d="M 1392.5 238 L 1400.5 238 C 1400.5 233.582031 1396.917969 230 1392.5 230 C 1388.082031 230 1384.5 233.582031 1384.5 238 C 1384.5 242.417969 1388.082031 246 1392.5 246 C 1396.917969 246 1400.5 242.417969 1400.5 238 Z "/>
<path style=" stroke:none;fill-rule:nonzero;fill:rgb(100%,100%,100%);fill-opacity:1;" d="M 1392.5 238 L 1398.5 238 C 1398.5 234.6875 1395.8125 232 1392.5 232 C 1389.1875 232 1386.5 234.6875 1386.5 238 C 1386.5 241.3125 1389.1875 244 1392.5 244 C 1395.8125 244 1398.5 241.3125 1398.5 238 Z "/>
<path style=" stroke:none;fill-rule:nonzero;fill:rgb(0%,0%,0%);fill-opacity:1;" d="M 1438 238 L 1446 238 C 1446 233.582031 1442.417969 230 1438 230 C 1433.582031 230 1430 233.582031 1430 238 C 1430 242.417969 1433.582031 246 1438 246 C 1442.417969 246 1446 242.417969 1446 238 Z "/>
<path style=" stroke:none;fill-rule:nonzero;fill:rgb(100%,100%,100%);fill-opacity:1;" d="M 1438 238 L 1444 238 C 1444 234.6875 1441.3125 232 1438 232 C 1434.6875 232 1432 234.6875 1432 238 C 1432 241.3125 1434.6875 244 1438 244 C 1441.3125 244 1444 241.3125 1444 238 Z "/>
<path style=" stroke:none;fill-rule:nonzero;fill:rgb(0%,0%,0%);fill-opacity:1;" d="M 1415.25 192 L 1423.25 192 C 1423.25 187.582031 1419.667969 184 1415.25 184 C 1410.832031 184 1407.25 187.582031 1407.25 192 C 1407.25 196.417969 1410.832031 200 1415.25 200 C 1419.667969 200 1423.25 196.417969 1423.25 192 Z "/>
<path style=" stroke:none;fill-rule:nonzero;fill:rgb(100%,100%,100%);fill-opacity:1;" d="M 1415.25 192 L 1421.25 192 C 1421.25 188.6875 1418.5625 186 1415.25 186 C 1411.9375 186 1409.25 188.6875 1409.25 192 C 1409.25 195.3125 1411.9375 198 1415.25 198 C 1418.5625 198 1421.25 195.3125 1421.25 192 Z "/>
<path style=" stroke:none;fill-rule:nonzero;fill:rgb(0%,0%,0%);fill-opacity:1;" d="M 1464 192 L 1472 192 C 1472 187.582031 1468.417969 184 1464 184 C 1459.582031 184 1456 187.582031 1456 192 C 1456 196.417969 1459.582031 200 1464 200 C 1468.417969 200 1472 196.417969 1472 192 Z "/>
<path style=" stroke:none;fill-rule:nonzero;fill:rgb(100%,100%,100%);fill-opacity:1;" d="M 1464 192 L 1470 192 C 1470 188.6875 1467.3125 186 1464 186 C 1460.6875 186 1458 188.6875 1458 192 C 1458 195.3125 1460.6875 198 1464 198 C 1467.3125 198 1470 195.3125 1470 192 Z "/>
<path style=" stroke:none;fill-rule:nonzero;fill:rgb(0%,0%,0%);fill-opacity:1;" d="M 1439.625 146 L 1447.625 146 C 1447.625 141.582031 1444.042969 138 1439.625 138 C 1435.207031 138 1431.625 141.582031 1431.625 146 C 1431.625 150.417969 1435.207031 154 1439.625 154 C 1444.042969 154 1447.625 150.417969 1447.625 146 Z "/>
<path style=" stroke:none;fill-rule:nonzero;fill:rgb(100%,100%,100%);fill-opacity:1;" d="M 1439.625 146 L 1445.625 146 C 1445.625 142.6875 1442.9375 140 1439.625 140 C 1436.3125 140 1433.625 142.6875 1433.625 146 C 1433.625 149.3125 1436.3125 152 1439.625 152 C 1442.9375 152 1445.625 149.3125 1445.625 146 Z "/>
<path style=" stroke:none;fill-rule:nonzero;fill:rgb(0%,0%,0%);fill-opacity:1;" d="M 1338.0625 100 L 1346.0625 100 C 1346.0625 95.582031 1342.480469 92 1338.0625 92 C 1333.644531 92 1330.0625 95.582031 1330.0625 100 C 1330.0625 104.417969 1333.644531 108 1338.0625 108 C 1342.480469 108 1346.0625 104.417969 1346.0625 100 Z "/>
<path style=" stroke:none;fill-rule:nonzero;fill:rgb(100%,100%,100%);fill-opacity:1;" d="M 1338.0625 100 L 1344.0625 100 C 1344.0625 96.6875 1341.375 94 1338.0625 94 C 1334.75 94 1332.0625 96.6875 1332.0625 100 C 1332.0625 103.3125 1334.75 106 1338.0625 106 C 1341.375 106 1344.0625 103.3125 1344.0625 100 Z "/>
<path style="fill:none;stroke-width:1;stroke-linecap:round;stroke-linejoin:round;stroke:rgb(74.509804%,74.509804%,74.509804%);stroke-opacity:1;stroke-miterlimit:10;" d="M 1594.8125 100 L 1620 146 "/>
<path style="fill:none;stroke-width:1;stroke-linecap:round;stroke-linejoin:round;stroke:rgb(74.509804%,74.509804%,74.509804%);stroke-opacity:1;stroke-miterlimit:10;" d="M 1594.8125 100 L 1569.625 146 "/>
<path style="fill:none;stroke-width:1;stroke-linecap:round;stroke-linejoin:round;stroke:rgb(74.509804%,74.509804%,74.509804%);stroke-opacity:1;stroke-miterlimit:10;" d="M 1569.625 146 L 1594 192 "/>
<path style="fill:none;stroke-width:1;stroke-linecap:round;stroke-linejoin:round;stroke:rgb(74.509804%,74.509804%,74.509804%);stroke-opacity:1;stroke-miterlimit:10;" d="M 1569.625 146 L 1545.25 192 "/>
<path style="fill:none;stroke-width:1;stroke-linecap:round;stroke-linejoin:round;stroke:rgb(74.509804%,74.509804%,74.509804%);stroke-opacity:1;stroke-miterlimit:10;" d="M 1545.25 192 L 1568 238 "/>
<path style="fill:none;stroke-width:1;stroke-linecap:round;stroke-linejoin:round;stroke:rgb(74.509804%,74.509804%,74.509804%);stroke-opacity:1;stroke-miterlimit:10;" d="M 1545.25 192 L 1522.5 238 "/>
<path style="fill:none;stroke-width:1;stroke-linecap:round;stroke-linejoin:round;stroke:rgb(74.509804%,74.509804%,74.509804%);stroke-opacity:1;stroke-miterlimit:10;" d="M 1522.5 238 L 1542 284 "/>
<path style="fill:none;stroke-width:1;stroke-linecap:round;stroke-linejoin:round;stroke:rgb(74.509804%,74.509804%,74.509804%);stroke-opacity:1;stroke-miterlimit:10;" d="M 1522.5 238 L 1503 284 "/>
<path style="fill:none;stroke-width:1;stroke-linecap:round;stroke-linejoin:round;stroke:rgb(74.509804%,74.509804%,74.509804%);stroke-opacity:1;stroke-miterlimit:10;" d="M 1503 284 L 1516 330 "/>
<path style="fill:none;stroke-width:1;stroke-linecap:round;stroke-linejoin:round;stroke:rgb(74.509804%,74.509804%,74.509804%);stroke-opacity:1;stroke-miterlimit:10;" d="M 1503 284 L 1490 330 "/>
<path style=" stroke:none;fill-rule:nonzero;fill:rgb(0%,0%,0%);fill-opacity:1;" d="M 1490 330 L 1498 330 C 1498 325.582031 1494.417969 322 1490 322 C 1485.582031 322 1482 325.582031 1482 330 C 1482 334.417969 1485.582031 338 1490 338 C 1494.417969 338 1498 334.417969 1498 330 Z "/>
<path style=" stroke:none;fill-rule:nonzero;fill:rgb(100%,100%,100%);fill-opacity:1;" d="M 1490 330 L 1496 330 C 1496 326.6875 1493.3125 324 1490 324 C 1486.6875 324 1484 326.6875 1484 330 C 1484 333.3125 1486.6875 336 1490 336 C 1493.3125 336 1496 333.3125 1496 330 Z "/>
<path style=" stroke:none;fill-rule:nonzero;fill:rgb(0%,0%,0%);fill-opacity:1;" d="M 1516 330 L 1524 330 C 1524 325.582031 1520.417969 322 1516 322 C 1511.582031 322 1508 325.582031 1508 330 C 1508 334.417969 1511.582031 338 1516 338 C 1520.417969 338 1524 334.417969 1524 330 Z "/>
<path style=" stroke:none;fill-rule:nonzero;fill:rgb(100%,100%,100%);fill-opacity:1;" d="M 1516 330 L 1522 330 C 1522 326.6875 1519.3125 324 1516 324 C 1512.6875 324 1510 326.6875 1510 330 C 1510 333.3125 1512.6875 336 1516 336 C 1519.3125 336 1522 333.3125 1522 330 Z "/>
<path style=" stroke:none;fill-rule:nonzero;fill:rgb(0%,0%,0%);fill-opacity:1;" d="M 1503 284 L 1511 284 C 1511 279.582031 1507.417969 276 1503 276 C 1498.582031 276 1495 279.582031 1495 284 C 1495 288.417969 1498.582031 292 1503 292 C 1507.417969 292 1511 288.417969 1511 284 Z "/>
<path style=" stroke:none;fill-rule:nonzero;fill:rgb(100%,100%,100%);fill-opacity:1;" d="M 1503 284 L 1509 284 C 1509 280.6875 1506.3125 278 1503 278 C 1499.6875 278 1497 280.6875 1497 284 C 1497 287.3125 1499.6875 290 1503 290 C 1506.3125 290 1509 287.3125 1509 284 Z "/>
<path style=" stroke:none;fill-rule:nonzero;fill:rgb(0%,0%,0%);fill-opacity:1;" d="M 1542 284 L 1550 284 C 1550 279.582031 1546.417969 276 1542 276 C 1537.582031 276 1534 279.582031 1534 284 C 1534 288.417969 1537.582031 292 1542 292 C 1546.417969 292 1550 288.417969 1550 284 Z "/>
<path style=" stroke:none;fill-rule:nonzero;fill:rgb(100%,100%,100%);fill-opacity:1;" d="M 1542 284 L 1548 284 C 1548 280.6875 1545.3125 278 1542 278 C 1538.6875 278 1536 280.6875 1536 284 C 1536 287.3125 1538.6875 290 1542 290 C 1545.3125 290 1548 287.3125 1548 284 Z "/>
<path style=" stroke:none;fill-rule:nonzero;fill:rgb(0%,0%,0%);fill-opacity:1;" d="M 1522.5 238 L 1530.5 238 C 1530.5 233.582031 1526.917969 230 1522.5 230 C 1518.082031 230 1514.5 233.582031 1514.5 238 C 1514.5 242.417969 1518.082031 246 1522.5 246 C 1526.917969 246 1530.5 242.417969 1530.5 238 Z "/>
<path style=" stroke:none;fill-rule:nonzero;fill:rgb(100%,100%,100%);fill-opacity:1;" d="M 1522.5 238 L 1528.5 238 C 1528.5 234.6875 1525.8125 232 1522.5 232 C 1519.1875 232 1516.5 234.6875 1516.5 238 C 1516.5 241.3125 1519.1875 244 1522.5 244 C 1525.8125 244 1528.5 241.3125 1528.5 238 Z "/>
<path style=" stroke:none;fill-rule:nonzero;fill:rgb(0%,0%,0%);fill-opacity:1;" d="M 1568 238 L 1576 238 C 1576 233.582031 1572.417969 230 1568 230 C 1563.582031 230 1560 233.582031 1560 238 C 1560 242.417969 1563.582031 246 1568 246 C 1572.417969 246 1576 242.417969 1576 238 Z "/>
<path style=" stroke:none;fill-rule:nonzero;fill:rgb(100%,100%,100%);fill-opacity:1;" d="M 1568 238 L 1574 238 C 1574 234.6875 1571.3125 232 1568 232 C 1564.6875 232 1562 234.6875 1562 238 C 1562 241.3125 1564.6875 244 1568 244 C 1571.3125 244 1574 241.3125 1574 238 Z "/>
<path style=" stroke:none;fill-rule:nonzero;fill:rgb(0%,0%,0%);fill-opacity:1;" d="M 1545.25 192 L 1553.25 192 C 1553.25 187.582031 1549.667969 184 1545.25 184 C 1540.832031 184 1537.25 187.582031 1537.25 192 C 1537.25 196.417969 1540.832031 200 1545.25 200 C 1549.667969 200 1553.25 196.417969 1553.25 192 Z "/>
<path style=" stroke:none;fill-rule:nonzero;fill:rgb(100%,100%,100%);fill-opacity:1;" d="M 1545.25 192 L 1551.25 192 C 1551.25 188.6875 1548.5625 186 1545.25 186 C 1541.9375 186 1539.25 188.6875 1539.25 192 C 1539.25 195.3125 1541.9375 198 1545.25 198 C 1548.5625 198 1551.25 195.3125 1551.25 192 Z "/>
<path style=" stroke:none;fill-rule:nonzero;fill:rgb(0%,0%,0%);fill-opacity:1;" d="M 1594 192 L 1602 192 C 1602 187.582031 1598.417969 184 1594 184 C 1589.582031 184 1586 187.582031 1586 192 C 1586 196.417969 1589.582031 200 1594 200 C 1598.417969 200 1602 196.417969 1602 192 Z "/>
<path style=" stroke:none;fill-rule:nonzero;fill:rgb(100%,100%,100%);fill-opacity:1;" d="M 1594 192 L 1600 192 C 1600 188.6875 1597.3125 186 1594 186 C 1590.6875 186 1588 188.6875 1588 192 C 1588 195.3125 1590.6875 198 1594 198 C 1597.3125 198 1600 195.3125 1600 192 Z "/>
<path style=" stroke:none;fill-rule:nonzero;fill:rgb(0%,0%,0%);fill-opacity:1;" d="M 1569.625 146 L 1577.625 146 C 1577.625 141.582031 1574.042969 138 1569.625 138 C 1565.207031 138 1561.625 141.582031 1561.625 146 C 1561.625 150.417969 1565.207031 154 1569.625 154 C 1574.042969 154 1577.625 150.417969 1577.625 146 Z "/>
<path style=" stroke:none;fill-rule:nonzero;fill:rgb(100%,100%,100%);fill-opacity:1;" d="M 1569.625 146 L 1575.625 146 C 1575.625 142.6875 1572.9375 140 1569.625 140 C 1566.3125 140 1563.625 142.6875 1563.625 146 C 1563.625 149.3125 1566.3125 152 1569.625 152 C 1572.9375 152 1575.625 149.3125 1575.625 146 Z "/>
<path style=" stroke:none;fill-rule:nonzero;fill:rgb(0%,0%,0%);fill-opacity:1;" d="M 1620 146 L 1628 146 C 1628 141.582031 1624.417969 138 1620 138 C 1615.582031 138 1612 141.582031 1612 146 C 1612 150.417969 1615.582031 154 1620 154 C 1624.417969 154 1628 150.417969 1628 146 Z "/>
<path style=" stroke:none;fill-rule:nonzero;fill:rgb(100%,100%,100%);fill-opacity:1;" d="M 1620 146 L 1626 146 C 1626 142.6875 1623.3125 140 1620 140 C 1616.6875 140 1614 142.6875 1614 146 C 1614 149.3125 1616.6875 152 1620 152 C 1623.3125 152 1626 149.3125 1626 146 Z "/>
<path style=" stroke:none;fill-rule:nonzero;fill:rgb(0%,0%,0%);fill-opacity:1;" d="M 1594.8125 100 L 1602.8125 100 C 1602.8125 95.582031 1599.230469 92 1594.8125 92 C 1590.394531 92 1586.8125 95.582031 1586.8125 100 C 1586.8125 104.417969 1590.394531 108 1594.8125 108 C 1599.230469 108 1602.8125 104.417969 1602.8125 100 Z "/>
<path style=" stroke:none;fill-rule:nonzero;fill:rgb(100%,100%,100%);fill-opacity:1;" d="M 1594.8125 100 L 1600.8125 100 C 1600.8125 96.6875 1598.125 94 1594.8125 94 C 1591.5 94 1588.8125 96.6875 1588.8125 100 C 1588.8125 103.3125 1591.5 106 1594.8125 106 C 1598.125 106 1600.8125 103.3125 1600.8125 100 Z "/>
<path style=" stroke:none;fill-rule:nonzero;fill:rgb(0%,0%,0%);fill-opacity:1;" d="M 1466.4375 54 L 1474.4375 54 C 1474.4375 49.582031 1470.855469 46 1466.4375 46 C 1462.019531 46 1458.4375 49.582031 1458.4375 54 C 1458.4375 58.417969 1462.019531 62 1466.4375 62 C 1470.855469 62 1474.4375 58.417969 1474.4375 54 Z "/>
<path style=" stroke:none;fill-rule:nonzero;fill:rgb(100%,100%,100%);fill-opacity:1;" d="M 1466.4375 54 L 1472.4375 54 C 1472.4375 50.6875 1469.75 48 1466.4375 48 C 1463.125 48 1460.4375 50.6875 1460.4375 54 C 1460.4375 57.3125 1463.125 60 1466.4375 60 C 1469.75 60 1472.4375 57.3125 1472.4375 54 Z "/>
<path style=" stroke:none;fill-rule:nonzero;fill:rgb(0%,0%,0%);fill-opacity:1;" d="M 1052.671875 8 L 1060.671875 8 C 1060.671875 3.582031 1057.089844 0 1052.671875 0 C 1048.253906 0 1044.671875 3.582031 1044.671875 8 C 1044.671875 12.417969 1048.253906 16 1052.671875 16 C 1057.089844 16 1060.671875 12.417969 1060.671875 8 Z "/>
<path style=" stroke:none;fill-rule:nonzero;fill:rgb(100%,100%,100%);fill-opacity:1;" d="M 1052.671875 8 L 1058.671875 8 C 1058.671875 4.6875 1055.984375 2 1052.671875 2 C 1049.359375 2 1046.671875 4.6875 1046.671875 8 C 1046.671875 11.3125 1049.359375 14 1052.671875 14 C 1055.984375 14 1058.671875 11.3125 1058.671875 8 Z "/>
</g>
</svg>
