<?xml version="1.0" encoding="UTF-8"?>
<svg xmlns="http://www.w3.org/2000/svg" xmlns:xlink="http://www.w3.org/1999/xlink" width="1056" height="292" viewBox="0 0 1056 292" version="1.1">
<g id="surface673568">
<path style="fill:none;stroke-width:1;stroke-linecap:round;stroke-linejoin:round;stroke:rgb(74.509804%,74.509804%,74.509804%);stroke-opacity:1;stroke-miterlimit:10;" d="M 638.90625 8 L 922.0625 54 "/>
<path style="fill:none;stroke-width:1;stroke-linecap:round;stroke-linejoin:round;stroke:rgb(74.509804%,74.509804%,74.509804%);stroke-opacity:1;stroke-miterlimit:10;" d="M 638.90625 8 L 355.75 54 "/>
<path style="fill:none;stroke-width:1;stroke-linecap:round;stroke-linejoin:round;stroke:rgb(74.509804%,74.509804%,74.509804%);stroke-opacity:1;stroke-miterlimit:10;" d="M 355.75 54 L 534.5 100 "/>
<path style="fill:none;stroke-width:1;stroke-linecap:round;stroke-linejoin:round;stroke:rgb(74.509804%,74.509804%,74.509804%);stroke-opacity:1;stroke-miterlimit:10;" d="M 355.75 54 L 177 100 "/>
<path style="fill:none;stroke-width:1;stroke-linecap:round;stroke-linejoin:round;stroke:rgb(74.509804%,74.509804%,74.509804%);stroke-opacity:1;stroke-miterlimit:10;" d="M 177 100 L 277.75 146 "/>
<path style="fill:none;stroke-width:1;stroke-linecap:round;stroke-linejoin:round;stroke:rgb(74.509804%,74.509804%,74.509804%);stroke-opacity:1;stroke-miterlimit:10;" d="M 177 100 L 76.25 146 "/>
<path style="fill:none;stroke-width:1;stroke-linecap:round;stroke-linejoin:round;stroke:rgb(74.509804%,74.509804%,74.509804%);stroke-opacity:1;stroke-miterlimit:10;" d="M 76.25 146 L 125 192 "/>
<path style="fill:none;stroke-width:1;stroke-linecap:round;stroke-linejoin:round;stroke:rgb(74.509804%,74.509804%,74.509804%);stroke-opacity:1;stroke-miterlimit:10;" d="M 76.25 146 L 27.5 192 "/>
<path style="fill:none;stroke-width:1;stroke-linecap:round;stroke-linejoin:round;stroke:rgb(74.509804%,74.509804%,74.509804%);stroke-opacity:1;stroke-miterlimit:10;" d="M 27.5 192 L 47 238 "/>
<path style="fill:none;stroke-width:1;stroke-linecap:round;stroke-linejoin:round;stroke:rgb(74.509804%,74.509804%,74.509804%);stroke-opacity:1;stroke-miterlimit:10;" d="M 27.5 192 L 8 238 "/>
<path style=" stroke:none;fill-rule:nonzero;fill:rgb(0%,0%,0%);fill-opacity:1;" d="M 8 238 L 16 238 C 16 233.582031 12.417969 230 8 230 C 3.582031 230 0 233.582031 0 238 C 0 242.417969 3.582031 246 8 246 C 12.417969 246 16 242.417969 16 238 Z "/>
<path style=" stroke:none;fill-rule:nonzero;fill:rgb(100%,100%,100%);fill-opacity:1;" d="M 8 238 L 14 238 C 14 234.6875 11.3125 232 8 232 C 4.6875 232 2 234.6875 2 238 C 2 241.3125 4.6875 244 8 244 C 11.3125 244 14 241.3125 14 238 Z "/>
<path style="fill:none;stroke-width:1;stroke-linecap:round;stroke-linejoin:round;stroke:rgb(74.509804%,74.509804%,74.509804%);stroke-opacity:1;stroke-miterlimit:10;" d="M 47 238 L 60 284 "/>
<path style="fill:none;stroke-width:1;stroke-linecap:round;stroke-linejoin:round;stroke:rgb(74.509804%,74.509804%,74.509804%);stroke-opacity:1;stroke-miterlimit:10;" d="M 47 238 L 34 284 "/>
<path style=" stroke:none;fill-rule:nonzero;fill:rgb(0%,0%,0%);fill-opacity:1;" d="M 34 284 L 42 284 C 42 279.582031 38.417969 276 34 276 C 29.582031 276 26 279.582031 26 284 C 26 288.417969 29.582031 292 34 292 C 38.417969 292 42 288.417969 42 284 Z "/>
<path style=" stroke:none;fill-rule:nonzero;fill:rgb(100%,100%,100%);fill-opacity:1;" d="M 34 284 L 40 284 C 40 280.6875 37.3125 278 34 278 C 30.6875 278 28 280.6875 28 284 C 28 287.3125 30.6875 290 34 290 C 37.3125 290 40 287.3125 40 284 Z "/>
<path style=" stroke:none;fill-rule:nonzero;fill:rgb(0%,0%,0%);fill-opacity:1;" d="M 60 284 L 68 284 C 68 279.582031 64.417969 276 60 276 C 55.582031 276 52 279.582031 52 284 C 52 288.417969 55.582031 292 60 292 C 64.417969 292 68 288.417969 68 284 Z "/>
<path style=" stroke:none;fill-rule:nonzero;fill:rgb(100%,100%,100%);fill-opacity:1;" d="M 60 284 L 66 284 C 66 280.6875 63.3125 278 60 278 C 56.6875 278 54 280.6875 54 284 C 54 287.3125 56.6875 290 60 290 C 63.3125 290 66 287.3125 66 284 Z "/>
<path style=" stroke:none;fill-rule:nonzero;fill:rgb(0%,0%,0%);fill-opacity:1;" d="M 47 238 L 55 238 C 55 233.582031 51.417969 230 47 230 C 42.582031 230 39 233.582031 39 238 C 39 242.417969 42.582031 246 47 246 C 51.417969 246 55 242.417969 55 238 Z "/>
<path style=" stroke:none;fill-rule:nonzero;fill:rgb(100%,100%,100%);fill-opacity:1;" d="M 47 238 L 53 238 C 53 234.6875 50.3125 232 47 232 C 43.6875 232 41 234.6875 41 238 C 41 241.3125 43.6875 244 47 244 C 50.3125 244 53 241.3125 53 238 Z "/>
<path style=" stroke:none;fill-rule:nonzero;fill:rgb(0%,0%,0%);fill-opacity:1;" d="M 27.5 192 L 35.5 192 C 35.5 187.582031 31.917969 184 27.5 184 C 23.082031 184 19.5 187.582031 19.5 192 C 19.5 196.417969 23.082031 200 27.5 200 C 31.917969 200 35.5 196.417969 35.5 192 Z "/>
<path style=" stroke:none;fill-rule:nonzero;fill:rgb(100%,100%,100%);fill-opacity:1;" d="M 27.5 192 L 33.5 192 C 33.5 188.6875 30.8125 186 27.5 186 C 24.1875 186 21.5 188.6875 21.5 192 C 21.5 195.3125 24.1875 198 27.5 198 C 30.8125 198 33.5 195.3125 33.5 192 Z "/>
<path style="fill:none;stroke-width:1;stroke-linecap:round;stroke-linejoin:round;stroke:rgb(74.509804%,74.509804%,74.509804%);stroke-opacity:1;stroke-miterlimit:10;" d="M 125 192 L 151 238 "/>
<path style="fill:none;stroke-width:1;stroke-linecap:round;stroke-linejoin:round;stroke:rgb(74.509804%,74.509804%,74.509804%);stroke-opacity:1;stroke-miterlimit:10;" d="M 125 192 L 99 238 "/>
<path style="fill:none;stroke-width:1;stroke-linecap:round;stroke-linejoin:round;stroke:rgb(74.509804%,74.509804%,74.509804%);stroke-opacity:1;stroke-miterlimit:10;" d="M 99 238 L 112 284 "/>
<path style="fill:none;stroke-width:1;stroke-linecap:round;stroke-linejoin:round;stroke:rgb(74.509804%,74.509804%,74.509804%);stroke-opacity:1;stroke-miterlimit:10;" d="M 99 238 L 86 284 "/>
<path style=" stroke:none;fill-rule:nonzero;fill:rgb(0%,0%,0%);fill-opacity:1;" d="M 86 284 L 94 284 C 94 279.582031 90.417969 276 86 276 C 81.582031 276 78 279.582031 78 284 C 78 288.417969 81.582031 292 86 292 C 90.417969 292 94 288.417969 94 284 Z "/>
<path style=" stroke:none;fill-rule:nonzero;fill:rgb(100%,100%,100%);fill-opacity:1;" d="M 86 284 L 92 284 C 92 280.6875 89.3125 278 86 278 C 82.6875 278 80 280.6875 80 284 C 80 287.3125 82.6875 290 86 290 C 89.3125 290 92 287.3125 92 284 Z "/>
<path style=" stroke:none;fill-rule:nonzero;fill:rgb(0%,0%,0%);fill-opacity:1;" d="M 112 284 L 120 284 C 120 279.582031 116.417969 276 112 276 C 107.582031 276 104 279.582031 104 284 C 104 288.417969 107.582031 292 112 292 C 116.417969 292 120 288.417969 120 284 Z "/>
<path style=" stroke:none;fill-rule:nonzero;fill:rgb(100%,100%,100%);fill-opacity:1;" d="M 112 284 L 118 284 C 118 280.6875 115.3125 278 112 278 C 108.6875 278 106 280.6875 106 284 C 106 287.3125 108.6875 290 112 290 C 115.3125 290 118 287.3125 118 284 Z "/>
<path style=" stroke:none;fill-rule:nonzero;fill:rgb(0%,0%,0%);fill-opacity:1;" d="M 99 238 L 107 238 C 107 233.582031 103.417969 230 99 230 C 94.582031 230 91 233.582031 91 238 C 91 242.417969 94.582031 246 99 246 C 103.417969 246 107 242.417969 107 238 Z "/>
<path style=" stroke:none;fill-rule:nonzero;fill:rgb(100%,100%,100%);fill-opacity:1;" d="M 99 238 L 105 238 C 105 234.6875 102.3125 232 99 232 C 95.6875 232 93 234.6875 93 238 C 93 241.3125 95.6875 244 99 244 C 102.3125 244 105 241.3125 105 238 Z "/>
<path style="fill:none;stroke-width:1;stroke-linecap:round;stroke-linejoin:round;stroke:rgb(74.509804%,74.509804%,74.509804%);stroke-opacity:1;stroke-miterlimit:10;" d="M 151 238 L 164 284 "/>
<path style="fill:none;stroke-width:1;stroke-linecap:round;stroke-linejoin:round;stroke:rgb(74.509804%,74.509804%,74.509804%);stroke-opacity:1;stroke-miterlimit:10;" d="M 151 238 L 138 284 "/>
<path style=" stroke:none;fill-rule:nonzero;fill:rgb(0%,0%,0%);fill-opacity:1;" d="M 138 284 L 146 284 C 146 279.582031 142.417969 276 138 276 C 133.582031 276 130 279.582031 130 284 C 130 288.417969 133.582031 292 138 292 C 142.417969 292 146 288.417969 146 284 Z "/>
<path style=" stroke:none;fill-rule:nonzero;fill:rgb(100%,100%,100%);fill-opacity:1;" d="M 138 284 L 144 284 C 144 280.6875 141.3125 278 138 278 C 134.6875 278 132 280.6875 132 284 C 132 287.3125 134.6875 290 138 290 C 141.3125 290 144 287.3125 144 284 Z "/>
<path style=" stroke:none;fill-rule:nonzero;fill:rgb(0%,0%,0%);fill-opacity:1;" d="M 164 284 L 172 284 C 172 279.582031 168.417969 276 164 276 C 159.582031 276 156 279.582031 156 284 C 156 288.417969 159.582031 292 164 292 C 168.417969 292 172 288.417969 172 284 Z "/>
<path style=" stroke:none;fill-rule:nonzero;fill:rgb(100%,100%,100%);fill-opacity:1;" d="M 164 284 L 170 284 C 170 280.6875 167.3125 278 164 278 C 160.6875 278 158 280.6875 158 284 C 158 287.3125 160.6875 290 164 290 C 167.3125 290 170 287.3125 170 284 Z "/>
<path style=" stroke:none;fill-rule:nonzero;fill:rgb(0%,0%,0%);fill-opacity:1;" d="M 151 238 L 159 238 C 159 233.582031 155.417969 230 151 230 C 146.582031 230 143 233.582031 143 238 C 143 242.417969 146.582031 246 151 246 C 155.417969 246 159 242.417969 159 238 Z "/>
<path style=" stroke:none;fill-rule:nonzero;fill:rgb(100%,100%,100%);fill-opacity:1;" d="M 151 238 L 157 238 C 157 234.6875 154.3125 232 151 232 C 147.6875 232 145 234.6875 145 238 C 145 241.3125 147.6875 244 151 244 C 154.3125 244 157 241.3125 157 238 Z "/>
<path style=" stroke:none;fill-rule:nonzero;fill:rgb(0%,0%,0%);fill-opacity:1;" d="M 125 192 L 133 192 C 133 187.582031 129.417969 184 125 184 C 120.582031 184 117 187.582031 117 192 C 117 196.417969 120.582031 200 125 200 C 129.417969 200 133 196.417969 133 192 Z "/>
<path style=" stroke:none;fill-rule:nonzero;fill:rgb(100%,100%,100%);fill-opacity:1;" d="M 125 192 L 131 192 C 131 188.6875 128.3125 186 125 186 C 121.6875 186 119 188.6875 119 192 C 119 195.3125 121.6875 198 125 198 C 128.3125 198 131 195.3125 131 192 Z "/>
<path style=" stroke:none;fill-rule:nonzero;fill:rgb(0%,0%,0%);fill-opacity:1;" d="M 76.25 146 L 84.25 146 C 84.25 141.582031 80.667969 138 76.25 138 C 71.832031 138 68.25 141.582031 68.25 146 C 68.25 150.417969 71.832031 154 76.25 154 C 80.667969 154 84.25 150.417969 84.25 146 Z "/>
<path style=" stroke:none;fill-rule:nonzero;fill:rgb(100%,100%,100%);fill-opacity:1;" d="M 76.25 146 L 82.25 146 C 82.25 142.6875 79.5625 140 76.25 140 C 72.9375 140 70.25 142.6875 70.25 146 C 70.25 149.3125 72.9375 152 76.25 152 C 79.5625 152 82.25 149.3125 82.25 146 Z "/>
<path style="fill:none;stroke-width:1;stroke-linecap:round;stroke-linejoin:round;stroke:rgb(74.509804%,74.509804%,74.509804%);stroke-opacity:1;stroke-miterlimit:10;" d="M 277.75 146 L 326.5 192 "/>
<path style="fill:none;stroke-width:1;stroke-linecap:round;stroke-linejoin:round;stroke:rgb(74.509804%,74.509804%,74.509804%);stroke-opacity:1;stroke-miterlimit:10;" d="M 277.75 146 L 229 192 "/>
<path style="fill:none;stroke-width:1;stroke-linecap:round;stroke-linejoin:round;stroke:rgb(74.509804%,74.509804%,74.509804%);stroke-opacity:1;stroke-miterlimit:10;" d="M 229 192 L 255 238 "/>
<path style="fill:none;stroke-width:1;stroke-linecap:round;stroke-linejoin:round;stroke:rgb(74.509804%,74.509804%,74.509804%);stroke-opacity:1;stroke-miterlimit:10;" d="M 229 192 L 203 238 "/>
<path style="fill:none;stroke-width:1;stroke-linecap:round;stroke-linejoin:round;stroke:rgb(74.509804%,74.509804%,74.509804%);stroke-opacity:1;stroke-miterlimit:10;" d="M 203 238 L 216 284 "/>
<path style="fill:none;stroke-width:1;stroke-linecap:round;stroke-linejoin:round;stroke:rgb(74.509804%,74.509804%,74.509804%);stroke-opacity:1;stroke-miterlimit:10;" d="M 203 238 L 190 284 "/>
<path style=" stroke:none;fill-rule:nonzero;fill:rgb(0%,0%,0%);fill-opacity:1;" d="M 190 284 L 198 284 C 198 279.582031 194.417969 276 190 276 C 185.582031 276 182 279.582031 182 284 C 182 288.417969 185.582031 292 190 292 C 194.417969 292 198 288.417969 198 284 Z "/>
<path style=" stroke:none;fill-rule:nonzero;fill:rgb(100%,100%,100%);fill-opacity:1;" d="M 190 284 L 196 284 C 196 280.6875 193.3125 278 190 278 C 186.6875 278 184 280.6875 184 284 C 184 287.3125 186.6875 290 190 290 C 193.3125 290 196 287.3125 196 284 Z "/>
<path style=" stroke:none;fill-rule:nonzero;fill:rgb(0%,0%,0%);fill-opacity:1;" d="M 216 284 L 224 284 C 224 279.582031 220.417969 276 216 276 C 211.582031 276 208 279.582031 208 284 C 208 288.417969 211.582031 292 216 292 C 220.417969 292 224 288.417969 224 284 Z "/>
<path style=" stroke:none;fill-rule:nonzero;fill:rgb(100%,100%,100%);fill-opacity:1;" d="M 216 284 L 222 284 C 222 280.6875 219.3125 278 216 278 C 212.6875 278 210 280.6875 210 284 C 210 287.3125 212.6875 290 216 290 C 219.3125 290 222 287.3125 222 284 Z "/>
<path style=" stroke:none;fill-rule:nonzero;fill:rgb(0%,0%,0%);fill-opacity:1;" d="M 203 238 L 211 238 C 211 233.582031 207.417969 230 203 230 C 198.582031 230 195 233.582031 195 238 C 195 242.417969 198.582031 246 203 246 C 207.417969 246 211 242.417969 211 238 Z "/>
<path style=" stroke:none;fill-rule:nonzero;fill:rgb(100%,100%,100%);fill-opacity:1;" d="M 203 238 L 209 238 C 209 234.6875 206.3125 232 203 232 C 199.6875 232 197 234.6875 197 238 C 197 241.3125 199.6875 244 203 244 C 206.3125 244 209 241.3125 209 238 Z "/>
<path style="fill:none;stroke-width:1;stroke-linecap:round;stroke-linejoin:round;stroke:rgb(74.509804%,74.509804%,74.509804%);stroke-opacity:1;stroke-miterlimit:10;" d="M 255 238 L 268 284 "/>
<path style="fill:none;stroke-width:1;stroke-linecap:round;stroke-linejoin:round;stroke:rgb(74.509804%,74.509804%,74.509804%);stroke-opacity:1;stroke-miterlimit:10;" d="M 255 238 L 242 284 "/>
<path style=" stroke:none;fill-rule:nonzero;fill:rgb(0%,0%,0%);fill-opacity:1;" d="M 242 284 L 250 284 C 250 279.582031 246.417969 276 242 276 C 237.582031 276 234 279.582031 234 284 C 234 288.417969 237.582031 292 242 292 C 246.417969 292 250 288.417969 250 284 Z "/>
<path style=" stroke:none;fill-rule:nonzero;fill:rgb(100%,100%,100%);fill-opacity:1;" d="M 242 284 L 248 284 C 248 280.6875 245.3125 278 242 278 C 238.6875 278 236 280.6875 236 284 C 236 287.3125 238.6875 290 242 290 C 245.3125 290 248 287.3125 248 284 Z "/>
<path style=" stroke:none;fill-rule:nonzero;fill:rgb(0%,0%,0%);fill-opacity:1;" d="M 268 284 L 276 284 C 276 279.582031 272.417969 276 268 276 C 263.582031 276 260 279.582031 260 284 C 260 288.417969 263.582031 292 268 292 C 272.417969 292 276 288.417969 276 284 Z "/>
<path style=" stroke:none;fill-rule:nonzero;fill:rgb(100%,100%,100%);fill-opacity:1;" d="M 268 284 L 274 284 C 274 280.6875 271.3125 278 268 278 C 264.6875 278 262 280.6875 262 284 C 262 287.3125 264.6875 290 268 290 C 271.3125 290 274 287.3125 274 284 Z "/>
<path style=" stroke:none;fill-rule:nonzero;fill:rgb(0%,0%,0%);fill-opacity:1;" d="M 255 238 L 263 238 C 263 233.582031 259.417969 230 255 230 C 250.582031 230 247 233.582031 247 238 C 247 242.417969 250.582031 246 255 246 C 259.417969 246 263 242.417969 263 238 Z "/>
<path style=" stroke:none;fill-rule:nonzero;fill:rgb(100%,100%,100%);fill-opacity:1;" d="M 255 238 L 261 238 C 261 234.6875 258.3125 232 255 232 C 251.6875 232 249 234.6875 249 238 C 249 241.3125 251.6875 244 255 244 C 258.3125 244 261 241.3125 261 238 Z "/>
<path style=" stroke:none;fill-rule:nonzero;fill:rgb(0%,0%,0%);fill-opacity:1;" d="M 229 192 L 237 192 C 237 187.582031 233.417969 184 229 184 C 224.582031 184 221 187.582031 221 192 C 221 196.417969 224.582031 200 229 200 C 233.417969 200 237 196.417969 237 192 Z "/>
<path style=" stroke:none;fill-rule:nonzero;fill:rgb(100%,100%,100%);fill-opacity:1;" d="M 229 192 L 235 192 C 235 188.6875 232.3125 186 229 186 C 225.6875 186 223 188.6875 223 192 C 223 195.3125 225.6875 198 229 198 C 232.3125 198 235 195.3125 235 192 Z "/>
<path style="fill:none;stroke-width:1;stroke-linecap:round;stroke-linejoin:round;stroke:rgb(74.509804%,74.509804%,74.509804%);stroke-opacity:1;stroke-miterlimit:10;" d="M 326.5 192 L 346 238 "/>
<path style="fill:none;stroke-width:1;stroke-linecap:round;stroke-linejoin:round;stroke:rgb(74.509804%,74.509804%,74.509804%);stroke-opacity:1;stroke-miterlimit:10;" d="M 326.5 192 L 307 238 "/>
<path style="fill:none;stroke-width:1;stroke-linecap:round;stroke-linejoin:round;stroke:rgb(74.509804%,74.509804%,74.509804%);stroke-opacity:1;stroke-miterlimit:10;" d="M 307 238 L 320 284 "/>
<path style="fill:none;stroke-width:1;stroke-linecap:round;stroke-linejoin:round;stroke:rgb(74.509804%,74.509804%,74.509804%);stroke-opacity:1;stroke-miterlimit:10;" d="M 307 238 L 294 284 "/>
<path style=" stroke:none;fill-rule:nonzero;fill:rgb(0%,0%,0%);fill-opacity:1;" d="M 294 284 L 302 284 C 302 279.582031 298.417969 276 294 276 C 289.582031 276 286 279.582031 286 284 C 286 288.417969 289.582031 292 294 292 C 298.417969 292 302 288.417969 302 284 Z "/>
<path style=" stroke:none;fill-rule:nonzero;fill:rgb(100%,100%,100%);fill-opacity:1;" d="M 294 284 L 300 284 C 300 280.6875 297.3125 278 294 278 C 290.6875 278 288 280.6875 288 284 C 288 287.3125 290.6875 290 294 290 C 297.3125 290 300 287.3125 300 284 Z "/>
<path style=" stroke:none;fill-rule:nonzero;fill:rgb(0%,0%,0%);fill-opacity:1;" d="M 320 284 L 328 284 C 328 279.582031 324.417969 276 320 276 C 315.582031 276 312 279.582031 312 284 C 312 288.417969 315.582031 292 320 292 C 324.417969 292 328 288.417969 328 284 Z "/>
<path style=" stroke:none;fill-rule:nonzero;fill:rgb(100%,100%,100%);fill-opacity:1;" d="M 320 284 L 326 284 C 326 280.6875 323.3125 278 320 278 C 316.6875 278 314 280.6875 314 284 C 314 287.3125 316.6875 290 320 290 C 323.3125 290 326 287.3125 326 284 Z "/>
<path style=" stroke:none;fill-rule:nonzero;fill:rgb(0%,0%,0%);fill-opacity:1;" d="M 307 238 L 315 238 C 315 233.582031 311.417969 230 307 230 C 302.582031 230 299 233.582031 299 238 C 299 242.417969 302.582031 246 307 246 C 311.417969 246 315 242.417969 315 238 Z "/>
<path style=" stroke:none;fill-rule:nonzero;fill:rgb(100%,100%,100%);fill-opacity:1;" d="M 307 238 L 313 238 C 313 234.6875 310.3125 232 307 232 C 303.6875 232 301 234.6875 301 238 C 301 241.3125 303.6875 244 307 244 C 310.3125 244 313 241.3125 313 238 Z "/>
<path style=" stroke:none;fill-rule:nonzero;fill:rgb(0%,0%,0%);fill-opacity:1;" d="M 346 238 L 354 238 C 354 233.582031 350.417969 230 346 230 C 341.582031 230 338 233.582031 338 238 C 338 242.417969 341.582031 246 346 246 C 350.417969 246 354 242.417969 354 238 Z "/>
<path style=" stroke:none;fill-rule:nonzero;fill:rgb(100%,100%,100%);fill-opacity:1;" d="M 346 238 L 352 238 C 352 234.6875 349.3125 232 346 232 C 342.6875 232 340 234.6875 340 238 C 340 241.3125 342.6875 244 346 244 C 349.3125 244 352 241.3125 352 238 Z "/>
<path style=" stroke:none;fill-rule:nonzero;fill:rgb(0%,0%,0%);fill-opacity:1;" d="M 326.5 192 L 334.5 192 C 334.5 187.582031 330.917969 184 326.5 184 C 322.082031 184 318.5 187.582031 318.5 192 C 318.5 196.417969 322.082031 200 326.5 200 C 330.917969 200 334.5 196.417969 334.5 192 Z "/>
<path style=" stroke:none;fill-rule:nonzero;fill:rgb(100%,100%,100%);fill-opacity:1;" d="M 326.5 192 L 332.5 192 C 332.5 188.6875 329.8125 186 326.5 186 C 323.1875 186 320.5 188.6875 320.5 192 C 320.5 195.3125 323.1875 198 326.5 198 C 329.8125 198 332.5 195.3125 332.5 192 Z "/>
<path style=" stroke:none;fill-rule:nonzero;fill:rgb(0%,0%,0%);fill-opacity:1;" d="M 277.75 146 L 285.75 146 C 285.75 141.582031 282.167969 138 277.75 138 C 273.332031 138 269.75 141.582031 269.75 146 C 269.75 150.417969 273.332031 154 277.75 154 C 282.167969 154 285.75 150.417969 285.75 146 Z "/>
<path style=" stroke:none;fill-rule:nonzero;fill:rgb(100%,100%,100%);fill-opacity:1;" d="M 277.75 146 L 283.75 146 C 283.75 142.6875 281.0625 140 277.75 140 C 274.4375 140 271.75 142.6875 271.75 146 C 271.75 149.3125 274.4375 152 277.75 152 C 281.0625 152 283.75 149.3125 283.75 146 Z "/>
<path style=" stroke:none;fill-rule:nonzero;fill:rgb(0%,0%,0%);fill-opacity:1;" d="M 177 100 L 185 100 C 185 95.582031 181.417969 92 177 92 C 172.582031 92 169 95.582031 169 100 C 169 104.417969 172.582031 108 177 108 C 181.417969 108 185 104.417969 185 100 Z "/>
<path style=" stroke:none;fill-rule:nonzero;fill:rgb(100%,100%,100%);fill-opacity:1;" d="M 177 100 L 183 100 C 183 96.6875 180.3125 94 177 94 C 173.6875 94 171 96.6875 171 100 C 171 103.3125 173.6875 106 177 106 C 180.3125 106 183 103.3125 183 100 Z "/>
<path style="fill:none;stroke-width:1;stroke-linecap:round;stroke-linejoin:round;stroke:rgb(74.509804%,74.509804%,74.509804%);stroke-opacity:1;stroke-miterlimit:10;" d="M 534.5 100 L 609.25 146 "/>
<path style="fill:none;stroke-width:1;stroke-linecap:round;stroke-linejoin:round;stroke:rgb(74.509804%,74.509804%,74.509804%);stroke-opacity:1;stroke-miterlimit:10;" d="M 534.5 100 L 459.75 146 "/>
<path style="fill:none;stroke-width:1;stroke-linecap:round;stroke-linejoin:round;stroke:rgb(74.509804%,74.509804%,74.509804%);stroke-opacity:1;stroke-miterlimit:10;" d="M 459.75 146 L 508.5 192 "/>
<path style="fill:none;stroke-width:1;stroke-linecap:round;stroke-linejoin:round;stroke:rgb(74.509804%,74.509804%,74.509804%);stroke-opacity:1;stroke-miterlimit:10;" d="M 459.75 146 L 411 192 "/>
<path style="fill:none;stroke-width:1;stroke-linecap:round;stroke-linejoin:round;stroke:rgb(74.509804%,74.509804%,74.509804%);stroke-opacity:1;stroke-miterlimit:10;" d="M 411 192 L 437 238 "/>
<path style="fill:none;stroke-width:1;stroke-linecap:round;stroke-linejoin:round;stroke:rgb(74.509804%,74.509804%,74.509804%);stroke-opacity:1;stroke-miterlimit:10;" d="M 411 192 L 385 238 "/>
<path style="fill:none;stroke-width:1;stroke-linecap:round;stroke-linejoin:round;stroke:rgb(74.509804%,74.509804%,74.509804%);stroke-opacity:1;stroke-miterlimit:10;" d="M 385 238 L 398 284 "/>
<path style="fill:none;stroke-width:1;stroke-linecap:round;stroke-linejoin:round;stroke:rgb(74.509804%,74.509804%,74.509804%);stroke-opacity:1;stroke-miterlimit:10;" d="M 385 238 L 372 284 "/>
<path style=" stroke:none;fill-rule:nonzero;fill:rgb(0%,0%,0%);fill-opacity:1;" d="M 372 284 L 380 284 C 380 279.582031 376.417969 276 372 276 C 367.582031 276 364 279.582031 364 284 C 364 288.417969 367.582031 292 372 292 C 376.417969 292 380 288.417969 380 284 Z "/>
<path style=" stroke:none;fill-rule:nonzero;fill:rgb(100%,100%,100%);fill-opacity:1;" d="M 372 284 L 378 284 C 378 280.6875 375.3125 278 372 278 C 368.6875 278 366 280.6875 366 284 C 366 287.3125 368.6875 290 372 290 C 375.3125 290 378 287.3125 378 284 Z "/>
<path style=" stroke:none;fill-rule:nonzero;fill:rgb(0%,0%,0%);fill-opacity:1;" d="M 398 284 L 406 284 C 406 279.582031 402.417969 276 398 276 C 393.582031 276 390 279.582031 390 284 C 390 288.417969 393.582031 292 398 292 C 402.417969 292 406 288.417969 406 284 Z "/>
<path style=" stroke:none;fill-rule:nonzero;fill:rgb(100%,100%,100%);fill-opacity:1;" d="M 398 284 L 404 284 C 404 280.6875 401.3125 278 398 278 C 394.6875 278 392 280.6875 392 284 C 392 287.3125 394.6875 290 398 290 C 401.3125 290 404 287.3125 404 284 Z "/>
<path style=" stroke:none;fill-rule:nonzero;fill:rgb(0%,0%,0%);fill-opacity:1;" d="M 385 238 L 393 238 C 393 233.582031 389.417969 230 385 230 C 380.582031 230 377 233.582031 377 238 C 377 242.417969 380.582031 246 385 246 C 389.417969 246 393 242.417969 393 238 Z "/>
<path style=" stroke:none;fill-rule:nonzero;fill:rgb(100%,100%,100%);fill-opacity:1;" d="M 385 238 L 391 238 C 391 234.6875 388.3125 232 385 232 C 381.6875 232 379 234.6875 379 238 C 379 241.3125 381.6875 244 385 244 C 388.3125 244 391 241.3125 391 238 Z "/>
<path style="fill:none;stroke-width:1;stroke-linecap:round;stroke-linejoin:round;stroke:rgb(74.509804%,74.509804%,74.509804%);stroke-opacity:1;stroke-miterlimit:10;" d="M 437 238 L 450 284 "/>
<path style="fill:none;stroke-width:1;stroke-linecap:round;stroke-linejoin:round;stroke:rgb(74.509804%,74.509804%,74.509804%);stroke-opacity:1;stroke-miterlimit:10;" d="M 437 238 L 424 284 "/>
<path style=" stroke:none;fill-rule:nonzero;fill:rgb(0%,0%,0%);fill-opacity:1;" d="M 424 284 L 432 284 C 432 279.582031 428.417969 276 424 276 C 419.582031 276 416 279.582031 416 284 C 416 288.417969 419.582031 292 424 292 C 428.417969 292 432 288.417969 432 284 Z "/>
<path style=" stroke:none;fill-rule:nonzero;fill:rgb(100%,100%,100%);fill-opacity:1;" d="M 424 284 L 430 284 C 430 280.6875 427.3125 278 424 278 C 420.6875 278 418 280.6875 418 284 C 418 287.3125 420.6875 290 424 290 C 427.3125 290 430 287.3125 430 284 Z "/>
<path style=" stroke:none;fill-rule:nonzero;fill:rgb(0%,0%,0%);fill-opacity:1;" d="M 450 284 L 458 284 C 458 279.582031 454.417969 276 450 276 C 445.582031 276 442 279.582031 442 284 C 442 288.417969 445.582031 292 450 292 C 454.417969 292 458 288.417969 458 284 Z "/>
<path style=" stroke:none;fill-rule:nonzero;fill:rgb(100%,100%,100%);fill-opacity:1;" d="M 450 284 L 456 284 C 456 280.6875 453.3125 278 450 278 C 446.6875 278 444 280.6875 444 284 C 444 287.3125 446.6875 290 450 290 C 453.3125 290 456 287.3125 456 284 Z "/>
<path style=" stroke:none;fill-rule:nonzero;fill:rgb(0%,0%,0%);fill-opacity:1;" d="M 437 238 L 445 238 C 445 233.582031 441.417969 230 437 230 C 432.582031 230 429 233.582031 429 238 C 429 242.417969 432.582031 246 437 246 C 441.417969 246 445 242.417969 445 238 Z "/>
<path style=" stroke:none;fill-rule:nonzero;fill:rgb(100%,100%,100%);fill-opacity:1;" d="M 437 238 L 443 238 C 443 234.6875 440.3125 232 437 232 C 433.6875 232 431 234.6875 431 238 C 431 241.3125 433.6875 244 437 244 C 440.3125 244 443 241.3125 443 238 Z "/>
<path style=" stroke:none;fill-rule:nonzero;fill:rgb(0%,0%,0%);fill-opacity:1;" d="M 411 192 L 419 192 C 419 187.582031 415.417969 184 411 184 C 406.582031 184 403 187.582031 403 192 C 403 196.417969 406.582031 200 411 200 C 415.417969 200 419 196.417969 419 192 Z "/>
<path style=" stroke:none;fill-rule:nonzero;fill:rgb(100%,100%,100%);fill-opacity:1;" d="M 411 192 L 417 192 C 417 188.6875 414.3125 186 411 186 C 407.6875 186 405 188.6875 405 192 C 405 195.3125 407.6875 198 411 198 C 414.3125 198 417 195.3125 417 192 Z "/>
<path style="fill:none;stroke-width:1;stroke-linecap:round;stroke-linejoin:round;stroke:rgb(74.509804%,74.509804%,74.509804%);stroke-opacity:1;stroke-miterlimit:10;" d="M 508.5 192 L 528 238 "/>
<path style="fill:none;stroke-width:1;stroke-linecap:round;stroke-linejoin:round;stroke:rgb(74.509804%,74.509804%,74.509804%);stroke-opacity:1;stroke-miterlimit:10;" d="M 508.5 192 L 489 238 "/>
<path style="fill:none;stroke-width:1;stroke-linecap:round;stroke-linejoin:round;stroke:rgb(74.509804%,74.509804%,74.509804%);stroke-opacity:1;stroke-miterlimit:10;" d="M 489 238 L 502 284 "/>
<path style="fill:none;stroke-width:1;stroke-linecap:round;stroke-linejoin:round;stroke:rgb(74.509804%,74.509804%,74.509804%);stroke-opacity:1;stroke-miterlimit:10;" d="M 489 238 L 476 284 "/>
<path style=" stroke:none;fill-rule:nonzero;fill:rgb(0%,0%,0%);fill-opacity:1;" d="M 476 284 L 484 284 C 484 279.582031 480.417969 276 476 276 C 471.582031 276 468 279.582031 468 284 C 468 288.417969 471.582031 292 476 292 C 480.417969 292 484 288.417969 484 284 Z "/>
<path style=" stroke:none;fill-rule:nonzero;fill:rgb(100%,100%,100%);fill-opacity:1;" d="M 476 284 L 482 284 C 482 280.6875 479.3125 278 476 278 C 472.6875 278 470 280.6875 470 284 C 470 287.3125 472.6875 290 476 290 C 479.3125 290 482 287.3125 482 284 Z "/>
<path style=" stroke:none;fill-rule:nonzero;fill:rgb(0%,0%,0%);fill-opacity:1;" d="M 502 284 L 510 284 C 510 279.582031 506.417969 276 502 276 C 497.582031 276 494 279.582031 494 284 C 494 288.417969 497.582031 292 502 292 C 506.417969 292 510 288.417969 510 284 Z "/>
<path style=" stroke:none;fill-rule:nonzero;fill:rgb(100%,100%,100%);fill-opacity:1;" d="M 502 284 L 508 284 C 508 280.6875 505.3125 278 502 278 C 498.6875 278 496 280.6875 496 284 C 496 287.3125 498.6875 290 502 290 C 505.3125 290 508 287.3125 508 284 Z "/>
<path style=" stroke:none;fill-rule:nonzero;fill:rgb(0%,0%,0%);fill-opacity:1;" d="M 489 238 L 497 238 C 497 233.582031 493.417969 230 489 230 C 484.582031 230 481 233.582031 481 238 C 481 242.417969 484.582031 246 489 246 C 493.417969 246 497 242.417969 497 238 Z "/>
<path style=" stroke:none;fill-rule:nonzero;fill:rgb(100%,100%,100%);fill-opacity:1;" d="M 489 238 L 495 238 C 495 234.6875 492.3125 232 489 232 C 485.6875 232 483 234.6875 483 238 C 483 241.3125 485.6875 244 489 244 C 492.3125 244 495 241.3125 495 238 Z "/>
<path style=" stroke:none;fill-rule:nonzero;fill:rgb(0%,0%,0%);fill-opacity:1;" d="M 528 238 L 536 238 C 536 233.582031 532.417969 230 528 230 C 523.582031 230 520 233.582031 520 238 C 520 242.417969 523.582031 246 528 246 C 532.417969 246 536 242.417969 536 238 Z "/>
<path style=" stroke:none;fill-rule:nonzero;fill:rgb(100%,100%,100%);fill-opacity:1;" d="M 528 238 L 534 238 C 534 234.6875 531.3125 232 528 232 C 524.6875 232 522 234.6875 522 238 C 522 241.3125 524.6875 244 528 244 C 531.3125 244 534 241.3125 534 238 Z "/>
<path style=" stroke:none;fill-rule:nonzero;fill:rgb(0%,0%,0%);fill-opacity:1;" d="M 508.5 192 L 516.5 192 C 516.5 187.582031 512.917969 184 508.5 184 C 504.082031 184 500.5 187.582031 500.5 192 C 500.5 196.417969 504.082031 200 508.5 200 C 512.917969 200 516.5 196.417969 516.5 192 Z "/>
<path style=" stroke:none;fill-rule:nonzero;fill:rgb(100%,100%,100%);fill-opacity:1;" d="M 508.5 192 L 514.5 192 C 514.5 188.6875 511.8125 186 508.5 186 C 505.1875 186 502.5 188.6875 502.5 192 C 502.5 195.3125 505.1875 198 508.5 198 C 511.8125 198 514.5 195.3125 514.5 192 Z "/>
<path style=" stroke:none;fill-rule:nonzero;fill:rgb(0%,0%,0%);fill-opacity:1;" d="M 459.75 146 L 467.75 146 C 467.75 141.582031 464.167969 138 459.75 138 C 455.332031 138 451.75 141.582031 451.75 146 C 451.75 150.417969 455.332031 154 459.75 154 C 464.167969 154 467.75 150.417969 467.75 146 Z "/>
<path style=" stroke:none;fill-rule:nonzero;fill:rgb(100%,100%,100%);fill-opacity:1;" d="M 459.75 146 L 465.75 146 C 465.75 142.6875 463.0625 140 459.75 140 C 456.4375 140 453.75 142.6875 453.75 146 C 453.75 149.3125 456.4375 152 459.75 152 C 463.0625 152 465.75 149.3125 465.75 146 Z "/>
<path style="fill:none;stroke-width:1;stroke-linecap:round;stroke-linejoin:round;stroke:rgb(74.509804%,74.509804%,74.509804%);stroke-opacity:1;stroke-miterlimit:10;" d="M 609.25 146 L 632 192 "/>
<path style="fill:none;stroke-width:1;stroke-linecap:round;stroke-linejoin:round;stroke:rgb(74.509804%,74.509804%,74.509804%);stroke-opacity:1;stroke-miterlimit:10;" d="M 609.25 146 L 586.5 192 "/>
<path style="fill:none;stroke-width:1;stroke-linecap:round;stroke-linejoin:round;stroke:rgb(74.509804%,74.509804%,74.509804%);stroke-opacity:1;stroke-miterlimit:10;" d="M 586.5 192 L 606 238 "/>
<path style="fill:none;stroke-width:1;stroke-linecap:round;stroke-linejoin:round;stroke:rgb(74.509804%,74.509804%,74.509804%);stroke-opacity:1;stroke-miterlimit:10;" d="M 586.5 192 L 567 238 "/>
<path style="fill:none;stroke-width:1;stroke-linecap:round;stroke-linejoin:round;stroke:rgb(74.509804%,74.509804%,74.509804%);stroke-opacity:1;stroke-miterlimit:10;" d="M 567 238 L 580 284 "/>
<path style="fill:none;stroke-width:1;stroke-linecap:round;stroke-linejoin:round;stroke:rgb(74.509804%,74.509804%,74.509804%);stroke-opacity:1;stroke-miterlimit:10;" d="M 567 238 L 554 284 "/>
<path style=" stroke:none;fill-rule:nonzero;fill:rgb(0%,0%,0%);fill-opacity:1;" d="M 554 284 L 562 284 C 562 279.582031 558.417969 276 554 276 C 549.582031 276 546 279.582031 546 284 C 546 288.417969 549.582031 292 554 292 C 558.417969 292 562 288.417969 562 284 Z "/>
<path style=" stroke:none;fill-rule:nonzero;fill:rgb(100%,100%,100%);fill-opacity:1;" d="M 554 284 L 560 284 C 560 280.6875 557.3125 278 554 278 C 550.6875 278 548 280.6875 548 284 C 548 287.3125 550.6875 290 554 290 C 557.3125 290 560 287.3125 560 284 Z "/>
<path style=" stroke:none;fill-rule:nonzero;fill:rgb(0%,0%,0%);fill-opacity:1;" d="M 580 284 L 588 284 C 588 279.582031 584.417969 276 580 276 C 575.582031 276 572 279.582031 572 284 C 572 288.417969 575.582031 292 580 292 C 584.417969 292 588 288.417969 588 284 Z "/>
<path style=" stroke:none;fill-rule:nonzero;fill:rgb(100%,100%,100%);fill-opacity:1;" d="M 580 284 L 586 284 C 586 280.6875 583.3125 278 580 278 C 576.6875 278 574 280.6875 574 284 C 574 287.3125 576.6875 290 580 290 C 583.3125 290 586 287.3125 586 284 Z "/>
<path style=" stroke:none;fill-rule:nonzero;fill:rgb(0%,0%,0%);fill-opacity:1;" d="M 567 238 L 575 238 C 575 233.582031 571.417969 230 567 230 C 562.582031 230 559 233.582031 559 238 C 559 242.417969 562.582031 246 567 246 C 571.417969 246 575 242.417969 575 238 Z "/>
<path style=" stroke:none;fill-rule:nonzero;fill:rgb(100%,100%,100%);fill-opacity:1;" d="M 567 238 L 573 238 C 573 234.6875 570.3125 232 567 232 C 563.6875 232 561 234.6875 561 238 C 561 241.3125 563.6875 244 567 244 C 570.3125 244 573 241.3125 573 238 Z "/>
<path style=" stroke:none;fill-rule:nonzero;fill:rgb(0%,0%,0%);fill-opacity:1;" d="M 606 238 L 614 238 C 614 233.582031 610.417969 230 606 230 C 601.582031 230 598 233.582031 598 238 C 598 242.417969 601.582031 246 606 246 C 610.417969 246 614 242.417969 614 238 Z "/>
<path style=" stroke:none;fill-rule:nonzero;fill:rgb(100%,100%,100%);fill-opacity:1;" d="M 606 238 L 612 238 C 612 234.6875 609.3125 232 606 232 C 602.6875 232 600 234.6875 600 238 C 600 241.3125 602.6875 244 606 244 C 609.3125 244 612 241.3125 612 238 Z "/>
<path style=" stroke:none;fill-rule:nonzero;fill:rgb(0%,0%,0%);fill-opacity:1;" d="M 586.5 192 L 594.5 192 C 594.5 187.582031 590.917969 184 586.5 184 C 582.082031 184 578.5 187.582031 578.5 192 C 578.5 196.417969 582.082031 200 586.5 200 C 590.917969 200 594.5 196.417969 594.5 192 Z "/>
<path style=" stroke:none;fill-rule:nonzero;fill:rgb(100%,100%,100%);fill-opacity:1;" d="M 586.5 192 L 592.5 192 C 592.5 188.6875 589.8125 186 586.5 186 C 583.1875 186 580.5 188.6875 580.5 192 C 580.5 195.3125 583.1875 198 586.5 198 C 589.8125 198 592.5 195.3125 592.5 192 Z "/>
<path style=" stroke:none;fill-rule:nonzero;fill:rgb(0%,0%,0%);fill-opacity:1;" d="M 632 192 L 640 192 C 640 187.582031 636.417969 184 632 184 C 627.582031 184 624 187.582031 624 192 C 624 196.417969 627.582031 200 632 200 C 636.417969 200 640 196.417969 640 192 Z "/>
<path style=" stroke:none;fill-rule:nonzero;fill:rgb(100%,100%,100%);fill-opacity:1;" d="M 632 192 L 638 192 C 638 188.6875 635.3125 186 632 186 C 628.6875 186 626 188.6875 626 192 C 626 195.3125 628.6875 198 632 198 C 635.3125 198 638 195.3125 638 192 Z "/>
<path style=" stroke:none;fill-rule:nonzero;fill:rgb(0%,0%,0%);fill-opacity:1;" d="M 609.25 146 L 617.25 146 C 617.25 141.582031 613.667969 138 609.25 138 C 604.832031 138 601.25 141.582031 601.25 146 C 601.25 150.417969 604.832031 154 609.25 154 C 613.667969 154 617.25 150.417969 617.25 146 Z "/>
<path style=" stroke:none;fill-rule:nonzero;fill:rgb(100%,100%,100%);fill-opacity:1;" d="M 609.25 146 L 615.25 146 C 615.25 142.6875 612.5625 140 609.25 140 C 605.9375 140 603.25 142.6875 603.25 146 C 603.25 149.3125 605.9375 152 609.25 152 C 612.5625 152 615.25 149.3125 615.25 146 Z "/>
<path style=" stroke:none;fill-rule:nonzero;fill:rgb(0%,0%,0%);fill-opacity:1;" d="M 534.5 100 L 542.5 100 C 542.5 95.582031 538.917969 92 534.5 92 C 530.082031 92 526.5 95.582031 526.5 100 C 526.5 104.417969 530.082031 108 534.5 108 C 538.917969 108 542.5 104.417969 542.5 100 Z "/>
<path style=" stroke:none;fill-rule:nonzero;fill:rgb(100%,100%,100%);fill-opacity:1;" d="M 534.5 100 L 540.5 100 C 540.5 96.6875 537.8125 94 534.5 94 C 531.1875 94 528.5 96.6875 528.5 100 C 528.5 103.3125 531.1875 106 534.5 106 C 537.8125 106 540.5 103.3125 540.5 100 Z "/>
<path style=" stroke:none;fill-rule:nonzero;fill:rgb(0%,0%,0%);fill-opacity:1;" d="M 355.75 54 L 363.75 54 C 363.75 49.582031 360.167969 46 355.75 46 C 351.332031 46 347.75 49.582031 347.75 54 C 347.75 58.417969 351.332031 62 355.75 62 C 360.167969 62 363.75 58.417969 363.75 54 Z "/>
<path style=" stroke:none;fill-rule:nonzero;fill:rgb(100%,100%,100%);fill-opacity:1;" d="M 355.75 54 L 361.75 54 C 361.75 50.6875 359.0625 48 355.75 48 C 352.4375 48 349.75 50.6875 349.75 54 C 349.75 57.3125 352.4375 60 355.75 60 C 359.0625 60 361.75 57.3125 361.75 54 Z "/>
<path style="fill:none;stroke-width:1;stroke-linecap:round;stroke-linejoin:round;stroke:rgb(74.509804%,74.509804%,74.509804%);stroke-opacity:1;stroke-miterlimit:10;" d="M 922.0625 54 L 1023.625 100 "/>
<path style="fill:none;stroke-width:1;stroke-linecap:round;stroke-linejoin:round;stroke:rgb(74.509804%,74.509804%,74.509804%);stroke-opacity:1;stroke-miterlimit:10;" d="M 922.0625 54 L 820.5 100 "/>
<path style="fill:none;stroke-width:1;stroke-linecap:round;stroke-linejoin:round;stroke:rgb(74.509804%,74.509804%,74.509804%);stroke-opacity:1;stroke-miterlimit:10;" d="M 820.5 100 L 895.25 146 "/>
<path style="fill:none;stroke-width:1;stroke-linecap:round;stroke-linejoin:round;stroke:rgb(74.509804%,74.509804%,74.509804%);stroke-opacity:1;stroke-miterlimit:10;" d="M 820.5 100 L 745.75 146 "/>
<path style="fill:none;stroke-width:1;stroke-linecap:round;stroke-linejoin:round;stroke:rgb(74.509804%,74.509804%,74.509804%);stroke-opacity:1;stroke-miterlimit:10;" d="M 745.75 146 L 794.5 192 "/>
<path style="fill:none;stroke-width:1;stroke-linecap:round;stroke-linejoin:round;stroke:rgb(74.509804%,74.509804%,74.509804%);stroke-opacity:1;stroke-miterlimit:10;" d="M 745.75 146 L 697 192 "/>
<path style="fill:none;stroke-width:1;stroke-linecap:round;stroke-linejoin:round;stroke:rgb(74.509804%,74.509804%,74.509804%);stroke-opacity:1;stroke-miterlimit:10;" d="M 697 192 L 723 238 "/>
<path style="fill:none;stroke-width:1;stroke-linecap:round;stroke-linejoin:round;stroke:rgb(74.509804%,74.509804%,74.509804%);stroke-opacity:1;stroke-miterlimit:10;" d="M 697 192 L 671 238 "/>
<path style="fill:none;stroke-width:1;stroke-linecap:round;stroke-linejoin:round;stroke:rgb(74.509804%,74.509804%,74.509804%);stroke-opacity:1;stroke-miterlimit:10;" d="M 671 238 L 684 284 "/>
<path style="fill:none;stroke-width:1;stroke-linecap:round;stroke-linejoin:round;stroke:rgb(74.509804%,74.509804%,74.509804%);stroke-opacity:1;stroke-miterlimit:10;" d="M 671 238 L 658 284 "/>
<path style=" stroke:none;fill-rule:nonzero;fill:rgb(0%,0%,0%);fill-opacity:1;" d="M 658 284 L 666 284 C 666 279.582031 662.417969 276 658 276 C 653.582031 276 650 279.582031 650 284 C 650 288.417969 653.582031 292 658 292 C 662.417969 292 666 288.417969 666 284 Z "/>
<path style=" stroke:none;fill-rule:nonzero;fill:rgb(100%,100%,100%);fill-opacity:1;" d="M 658 284 L 664 284 C 664 280.6875 661.3125 278 658 278 C 654.6875 278 652 280.6875 652 284 C 652 287.3125 654.6875 290 658 290 C 661.3125 290 664 287.3125 664 284 Z "/>
<path style=" stroke:none;fill-rule:nonzero;fill:rgb(0%,0%,0%);fill-opacity:1;" d="M 684 284 L 692 284 C 692 279.582031 688.417969 276 684 276 C 679.582031 276 676 279.582031 676 284 C 676 288.417969 679.582031 292 684 292 C 688.417969 292 692 288.417969 692 284 Z "/>
<path style=" stroke:none;fill-rule:nonzero;fill:rgb(100%,100%,100%);fill-opacity:1;" d="M 684 284 L 690 284 C 690 280.6875 687.3125 278 684 278 C 680.6875 278 678 280.6875 678 284 C 678 287.3125 680.6875 290 684 290 C 687.3125 290 690 287.3125 690 284 Z "/>
<path style=" stroke:none;fill-rule:nonzero;fill:rgb(0%,0%,0%);fill-opacity:1;" d="M 671 238 L 679 238 C 679 233.582031 675.417969 230 671 230 C 666.582031 230 663 233.582031 663 238 C 663 242.417969 666.582031 246 671 246 C 675.417969 246 679 242.417969 679 238 Z "/>
<path style=" stroke:none;fill-rule:nonzero;fill:rgb(100%,100%,100%);fill-opacity:1;" d="M 671 238 L 677 238 C 677 234.6875 674.3125 232 671 232 C 667.6875 232 665 234.6875 665 238 C 665 241.3125 667.6875 244 671 244 C 674.3125 244 677 241.3125 677 238 Z "/>
<path style="fill:none;stroke-width:1;stroke-linecap:round;stroke-linejoin:round;stroke:rgb(74.509804%,74.509804%,74.509804%);stroke-opacity:1;stroke-miterlimit:10;" d="M 723 238 L 736 284 "/>
<path style="fill:none;stroke-width:1;stroke-linecap:round;stroke-linejoin:round;stroke:rgb(74.509804%,74.509804%,74.509804%);stroke-opacity:1;stroke-miterlimit:10;" d="M 723 238 L 710 284 "/>
<path style=" stroke:none;fill-rule:nonzero;fill:rgb(0%,0%,0%);fill-opacity:1;" d="M 710 284 L 718 284 C 718 279.582031 714.417969 276 710 276 C 705.582031 276 702 279.582031 702 284 C 702 288.417969 705.582031 292 710 292 C 714.417969 292 718 288.417969 718 284 Z "/>
<path style=" stroke:none;fill-rule:nonzero;fill:rgb(100%,100%,100%);fill-opacity:1;" d="M 710 284 L 716 284 C 716 280.6875 713.3125 278 710 278 C 706.6875 278 704 280.6875 704 284 C 704 287.3125 706.6875 290 710 290 C 713.3125 290 716 287.3125 716 284 Z "/>
<path style=" stroke:none;fill-rule:nonzero;fill:rgb(0%,0%,0%);fill-opacity:1;" d="M 736 284 L 744 284 C 744 279.582031 740.417969 276 736 276 C 731.582031 276 728 279.582031 728 284 C 728 288.417969 731.582031 292 736 292 C 740.417969 292 744 288.417969 744 284 Z "/>
<path style=" stroke:none;fill-rule:nonzero;fill:rgb(100%,100%,100%);fill-opacity:1;" d="M 736 284 L 742 284 C 742 280.6875 739.3125 278 736 278 C 732.6875 278 730 280.6875 730 284 C 730 287.3125 732.6875 290 736 290 C 739.3125 290 742 287.3125 742 284 Z "/>
<path style=" stroke:none;fill-rule:nonzero;fill:rgb(0%,0%,0%);fill-opacity:1;" d="M 723 238 L 731 238 C 731 233.582031 727.417969 230 723 230 C 718.582031 230 715 233.582031 715 238 C 715 242.417969 718.582031 246 723 246 C 727.417969 246 731 242.417969 731 238 Z "/>
<path style=" stroke:none;fill-rule:nonzero;fill:rgb(100%,100%,100%);fill-opacity:1;" d="M 723 238 L 729 238 C 729 234.6875 726.3125 232 723 232 C 719.6875 232 717 234.6875 717 238 C 717 241.3125 719.6875 244 723 244 C 726.3125 244 729 241.3125 729 238 Z "/>
<path style=" stroke:none;fill-rule:nonzero;fill:rgb(0%,0%,0%);fill-opacity:1;" d="M 697 192 L 705 192 C 705 187.582031 701.417969 184 697 184 C 692.582031 184 689 187.582031 689 192 C 689 196.417969 692.582031 200 697 200 C 701.417969 200 705 196.417969 705 192 Z "/>
<path style=" stroke:none;fill-rule:nonzero;fill:rgb(100%,100%,100%);fill-opacity:1;" d="M 697 192 L 703 192 C 703 188.6875 700.3125 186 697 186 C 693.6875 186 691 188.6875 691 192 C 691 195.3125 693.6875 198 697 198 C 700.3125 198 703 195.3125 703 192 Z "/>
<path style="fill:none;stroke-width:1;stroke-linecap:round;stroke-linejoin:round;stroke:rgb(74.509804%,74.509804%,74.509804%);stroke-opacity:1;stroke-miterlimit:10;" d="M 794.5 192 L 814 238 "/>
<path style="fill:none;stroke-width:1;stroke-linecap:round;stroke-linejoin:round;stroke:rgb(74.509804%,74.509804%,74.509804%);stroke-opacity:1;stroke-miterlimit:10;" d="M 794.5 192 L 775 238 "/>
<path style="fill:none;stroke-width:1;stroke-linecap:round;stroke-linejoin:round;stroke:rgb(74.509804%,74.509804%,74.509804%);stroke-opacity:1;stroke-miterlimit:10;" d="M 775 238 L 788 284 "/>
<path style="fill:none;stroke-width:1;stroke-linecap:round;stroke-linejoin:round;stroke:rgb(74.509804%,74.509804%,74.509804%);stroke-opacity:1;stroke-miterlimit:10;" d="M 775 238 L 762 284 "/>
<path style=" stroke:none;fill-rule:nonzero;fill:rgb(0%,0%,0%);fill-opacity:1;" d="M 762 284 L 770 284 C 770 279.582031 766.417969 276 762 276 C 757.582031 276 754 279.582031 754 284 C 754 288.417969 757.582031 292 762 292 C 766.417969 292 770 288.417969 770 284 Z "/>
<path style=" stroke:none;fill-rule:nonzero;fill:rgb(100%,100%,100%);fill-opacity:1;" d="M 762 284 L 768 284 C 768 280.6875 765.3125 278 762 278 C 758.6875 278 756 280.6875 756 284 C 756 287.3125 758.6875 290 762 290 C 765.3125 290 768 287.3125 768 284 Z "/>
<path style=" stroke:none;fill-rule:nonzero;fill:rgb(0%,0%,0%);fill-opacity:1;" d="M 788 284 L 796 284 C 796 279.582031 792.417969 276 788 276 C 783.582031 276 780 279.582031 780 284 C 780 288.417969 783.582031 292 788 292 C 792.417969 292 796 288.417969 796 284 Z "/>
<path style=" stroke:none;fill-rule:nonzero;fill:rgb(100%,100%,100%);fill-opacity:1;" d="M 788 284 L 794 284 C 794 280.6875 791.3125 278 788 278 C 784.6875 278 782 280.6875 782 284 C 782 287.3125 784.6875 290 788 290 C 791.3125 290 794 287.3125 794 284 Z "/>
<path style=" stroke:none;fill-rule:nonzero;fill:rgb(0%,0%,0%);fill-opacity:1;" d="M 775 238 L 783 238 C 783 233.582031 779.417969 230 775 230 C 770.582031 230 767 233.582031 767 238 C 767 242.417969 770.582031 246 775 246 C 779.417969 246 783 242.417969 783 238 Z "/>
<path style=" stroke:none;fill-rule:nonzero;fill:rgb(100%,100%,100%);fill-opacity:1;" d="M 775 238 L 781 238 C 781 234.6875 778.3125 232 775 232 C 771.6875 232 769 234.6875 769 238 C 769 241.3125 771.6875 244 775 244 C 778.3125 244 781 241.3125 781 238 Z "/>
<path style=" stroke:none;fill-rule:nonzero;fill:rgb(0%,0%,0%);fill-opacity:1;" d="M 814 238 L 822 238 C 822 233.582031 818.417969 230 814 230 C 809.582031 230 806 233.582031 806 238 C 806 242.417969 809.582031 246 814 246 C 818.417969 246 822 242.417969 822 238 Z "/>
<path style=" stroke:none;fill-rule:nonzero;fill:rgb(100%,100%,100%);fill-opacity:1;" d="M 814 238 L 820 238 C 820 234.6875 817.3125 232 814 232 C 810.6875 232 808 234.6875 808 238 C 808 241.3125 810.6875 244 814 244 C 817.3125 244 820 241.3125 820 238 Z "/>
<path style=" stroke:none;fill-rule:nonzero;fill:rgb(0%,0%,0%);fill-opacity:1;" d="M 794.5 192 L 802.5 192 C 802.5 187.582031 798.917969 184 794.5 184 C 790.082031 184 786.5 187.582031 786.5 192 C 786.5 196.417969 790.082031 200 794.5 200 C 798.917969 200 802.5 196.417969 802.5 192 Z "/>
<path style=" stroke:none;fill-rule:nonzero;fill:rgb(100%,100%,100%);fill-opacity:1;" d="M 794.5 192 L 800.5 192 C 800.5 188.6875 797.8125 186 794.5 186 C 791.1875 186 788.5 188.6875 788.5 192 C 788.5 195.3125 791.1875 198 794.5 198 C 797.8125 198 800.5 195.3125 800.5 192 Z "/>
<path style=" stroke:none;fill-rule:nonzero;fill:rgb(0%,0%,0%);fill-opacity:1;" d="M 745.75 146 L 753.75 146 C 753.75 141.582031 750.167969 138 745.75 138 C 741.332031 138 737.75 141.582031 737.75 146 C 737.75 150.417969 741.332031 154 745.75 154 C 750.167969 154 753.75 150.417969 753.75 146 Z "/>
<path style=" stroke:none;fill-rule:nonzero;fill:rgb(100%,100%,100%);fill-opacity:1;" d="M 745.75 146 L 751.75 146 C 751.75 142.6875 749.0625 140 745.75 140 C 742.4375 140 739.75 142.6875 739.75 146 C 739.75 149.3125 742.4375 152 745.75 152 C 749.0625 152 751.75 149.3125 751.75 146 Z "/>
<path style="fill:none;stroke-width:1;stroke-linecap:round;stroke-linejoin:round;stroke:rgb(74.509804%,74.509804%,74.509804%);stroke-opacity:1;stroke-miterlimit:10;" d="M 895.25 146 L 918 192 "/>
<path style="fill:none;stroke-width:1;stroke-linecap:round;stroke-linejoin:round;stroke:rgb(74.509804%,74.509804%,74.509804%);stroke-opacity:1;stroke-miterlimit:10;" d="M 895.25 146 L 872.5 192 "/>
<path style="fill:none;stroke-width:1;stroke-linecap:round;stroke-linejoin:round;stroke:rgb(74.509804%,74.509804%,74.509804%);stroke-opacity:1;stroke-miterlimit:10;" d="M 872.5 192 L 892 238 "/>
<path style="fill:none;stroke-width:1;stroke-linecap:round;stroke-linejoin:round;stroke:rgb(74.509804%,74.509804%,74.509804%);stroke-opacity:1;stroke-miterlimit:10;" d="M 872.5 192 L 853 238 "/>
<path style="fill:none;stroke-width:1;stroke-linecap:round;stroke-linejoin:round;stroke:rgb(74.509804%,74.509804%,74.509804%);stroke-opacity:1;stroke-miterlimit:10;" d="M 853 238 L 866 284 "/>
<path style="fill:none;stroke-width:1;stroke-linecap:round;stroke-linejoin:round;stroke:rgb(74.509804%,74.509804%,74.509804%);stroke-opacity:1;stroke-miterlimit:10;" d="M 853 238 L 840 284 "/>
<path style=" stroke:none;fill-rule:nonzero;fill:rgb(0%,0%,0%);fill-opacity:1;" d="M 840 284 L 848 284 C 848 279.582031 844.417969 276 840 276 C 835.582031 276 832 279.582031 832 284 C 832 288.417969 835.582031 292 840 292 C 844.417969 292 848 288.417969 848 284 Z "/>
<path style=" stroke:none;fill-rule:nonzero;fill:rgb(100%,100%,100%);fill-opacity:1;" d="M 840 284 L 846 284 C 846 280.6875 843.3125 278 840 278 C 836.6875 278 834 280.6875 834 284 C 834 287.3125 836.6875 290 840 290 C 843.3125 290 846 287.3125 846 284 Z "/>
<path style=" stroke:none;fill-rule:nonzero;fill:rgb(0%,0%,0%);fill-opacity:1;" d="M 866 284 L 874 284 C 874 279.582031 870.417969 276 866 276 C 861.582031 276 858 279.582031 858 284 C 858 288.417969 861.582031 292 866 292 C 870.417969 292 874 288.417969 874 284 Z "/>
<path style=" stroke:none;fill-rule:nonzero;fill:rgb(100%,100%,100%);fill-opacity:1;" d="M 866 284 L 872 284 C 872 280.6875 869.3125 278 866 278 C 862.6875 278 860 280.6875 860 284 C 860 287.3125 862.6875 290 866 290 C 869.3125 290 872 287.3125 872 284 Z "/>
<path style=" stroke:none;fill-rule:nonzero;fill:rgb(0%,0%,0%);fill-opacity:1;" d="M 853 238 L 861 238 C 861 233.582031 857.417969 230 853 230 C 848.582031 230 845 233.582031 845 238 C 845 242.417969 848.582031 246 853 246 C 857.417969 246 861 242.417969 861 238 Z "/>
<path style=" stroke:none;fill-rule:nonzero;fill:rgb(100%,100%,100%);fill-opacity:1;" d="M 853 238 L 859 238 C 859 234.6875 856.3125 232 853 232 C 849.6875 232 847 234.6875 847 238 C 847 241.3125 849.6875 244 853 244 C 856.3125 244 859 241.3125 859 238 Z "/>
<path style=" stroke:none;fill-rule:nonzero;fill:rgb(0%,0%,0%);fill-opacity:1;" d="M 892 238 L 900 238 C 900 233.582031 896.417969 230 892 230 C 887.582031 230 884 233.582031 884 238 C 884 242.417969 887.582031 246 892 246 C 896.417969 246 900 242.417969 900 238 Z "/>
<path style=" stroke:none;fill-rule:nonzero;fill:rgb(100%,100%,100%);fill-opacity:1;" d="M 892 238 L 898 238 C 898 234.6875 895.3125 232 892 232 C 888.6875 232 886 234.6875 886 238 C 886 241.3125 888.6875 244 892 244 C 895.3125 244 898 241.3125 898 238 Z "/>
<path style=" stroke:none;fill-rule:nonzero;fill:rgb(0%,0%,0%);fill-opacity:1;" d="M 872.5 192 L 880.5 192 C 880.5 187.582031 876.917969 184 872.5 184 C 868.082031 184 864.5 187.582031 864.5 192 C 864.5 196.417969 868.082031 200 872.5 200 C 876.917969 200 880.5 196.417969 880.5 192 Z "/>
<path style=" stroke:none;fill-rule:nonzero;fill:rgb(100%,100%,100%);fill-opacity:1;" d="M 872.5 192 L 878.5 192 C 878.5 188.6875 875.8125 186 872.5 186 C 869.1875 186 866.5 188.6875 866.5 192 C 866.5 195.3125 869.1875 198 872.5 198 C 875.8125 198 878.5 195.3125 878.5 192 Z "/>
<path style=" stroke:none;fill-rule:nonzero;fill:rgb(0%,0%,0%);fill-opacity:1;" d="M 918 192 L 926 192 C 926 187.582031 922.417969 184 918 184 C 913.582031 184 910 187.582031 910 192 C 910 196.417969 913.582031 200 918 200 C 922.417969 200 926 196.417969 926 192 Z "/>
<path style=" stroke:none;fill-rule:nonzero;fill:rgb(100%,100%,100%);fill-opacity:1;" d="M 918 192 L 924 192 C 924 188.6875 921.3125 186 918 186 C 914.6875 186 912 188.6875 912 192 C 912 195.3125 914.6875 198 918 198 C 921.3125 198 924 195.3125 924 192 Z "/>
<path style=" stroke:none;fill-rule:nonzero;fill:rgb(0%,0%,0%);fill-opacity:1;" d="M 895.25 146 L 903.25 146 C 903.25 141.582031 899.667969 138 895.25 138 C 890.832031 138 887.25 141.582031 887.25 146 C 887.25 150.417969 890.832031 154 895.25 154 C 899.667969 154 903.25 150.417969 903.25 146 Z "/>
<path style=" stroke:none;fill-rule:nonzero;fill:rgb(100%,100%,100%);fill-opacity:1;" d="M 895.25 146 L 901.25 146 C 901.25 142.6875 898.5625 140 895.25 140 C 891.9375 140 889.25 142.6875 889.25 146 C 889.25 149.3125 891.9375 152 895.25 152 C 898.5625 152 901.25 149.3125 901.25 146 Z "/>
<path style=" stroke:none;fill-rule:nonzero;fill:rgb(0%,0%,0%);fill-opacity:1;" d="M 820.5 100 L 828.5 100 C 828.5 95.582031 824.917969 92 820.5 92 C 816.082031 92 812.5 95.582031 812.5 100 C 812.5 104.417969 816.082031 108 820.5 108 C 824.917969 108 828.5 104.417969 828.5 100 Z "/>
<path style=" stroke:none;fill-rule:nonzero;fill:rgb(100%,100%,100%);fill-opacity:1;" d="M 820.5 100 L 826.5 100 C 826.5 96.6875 823.8125 94 820.5 94 C 817.1875 94 814.5 96.6875 814.5 100 C 814.5 103.3125 817.1875 106 820.5 106 C 823.8125 106 826.5 103.3125 826.5 100 Z "/>
<path style="fill:none;stroke-width:1;stroke-linecap:round;stroke-linejoin:round;stroke:rgb(74.509804%,74.509804%,74.509804%);stroke-opacity:1;stroke-miterlimit:10;" d="M 1023.625 100 L 1048 146 "/>
<path style="fill:none;stroke-width:1;stroke-linecap:round;stroke-linejoin:round;stroke:rgb(74.509804%,74.509804%,74.509804%);stroke-opacity:1;stroke-miterlimit:10;" d="M 1023.625 100 L 999.25 146 "/>
<path style="fill:none;stroke-width:1;stroke-linecap:round;stroke-linejoin:round;stroke:rgb(74.509804%,74.509804%,74.509804%);stroke-opacity:1;stroke-miterlimit:10;" d="M 999.25 146 L 1022 192 "/>
<path style="fill:none;stroke-width:1;stroke-linecap:round;stroke-linejoin:round;stroke:rgb(74.509804%,74.509804%,74.509804%);stroke-opacity:1;stroke-miterlimit:10;" d="M 999.25 146 L 976.5 192 "/>
<path style="fill:none;stroke-width:1;stroke-linecap:round;stroke-linejoin:round;stroke:rgb(74.509804%,74.509804%,74.509804%);stroke-opacity:1;stroke-miterlimit:10;" d="M 976.5 192 L 996 238 "/>
<path style="fill:none;stroke-width:1;stroke-linecap:round;stroke-linejoin:round;stroke:rgb(74.509804%,74.509804%,74.509804%);stroke-opacity:1;stroke-miterlimit:10;" d="M 976.5 192 L 957 238 "/>
<path style="fill:none;stroke-width:1;stroke-linecap:round;stroke-linejoin:round;stroke:rgb(74.509804%,74.509804%,74.509804%);stroke-opacity:1;stroke-miterlimit:10;" d="M 957 238 L 970 284 "/>
<path style="fill:none;stroke-width:1;stroke-linecap:round;stroke-linejoin:round;stroke:rgb(74.509804%,74.509804%,74.509804%);stroke-opacity:1;stroke-miterlimit:10;" d="M 957 238 L 944 284 "/>
<path style=" stroke:none;fill-rule:nonzero;fill:rgb(0%,0%,0%);fill-opacity:1;" d="M 944 284 L 952 284 C 952 279.582031 948.417969 276 944 276 C 939.582031 276 936 279.582031 936 284 C 936 288.417969 939.582031 292 944 292 C 948.417969 292 952 288.417969 952 284 Z "/>
<path style=" stroke:none;fill-rule:nonzero;fill:rgb(100%,100%,100%);fill-opacity:1;" d="M 944 284 L 950 284 C 950 280.6875 947.3125 278 944 278 C 940.6875 278 938 280.6875 938 284 C 938 287.3125 940.6875 290 944 290 C 947.3125 290 950 287.3125 950 284 Z "/>
<path style=" stroke:none;fill-rule:nonzero;fill:rgb(0%,0%,0%);fill-opacity:1;" d="M 970 284 L 978 284 C 978 279.582031 974.417969 276 970 276 C 965.582031 276 962 279.582031 962 284 C 962 288.417969 965.582031 292 970 292 C 974.417969 292 978 288.417969 978 284 Z "/>
<path style=" stroke:none;fill-rule:nonzero;fill:rgb(100%,100%,100%);fill-opacity:1;" d="M 970 284 L 976 284 C 976 280.6875 973.3125 278 970 278 C 966.6875 278 964 280.6875 964 284 C 964 287.3125 966.6875 290 970 290 C 973.3125 290 976 287.3125 976 284 Z "/>
<path style=" stroke:none;fill-rule:nonzero;fill:rgb(0%,0%,0%);fill-opacity:1;" d="M 957 238 L 965 238 C 965 233.582031 961.417969 230 957 230 C 952.582031 230 949 233.582031 949 238 C 949 242.417969 952.582031 246 957 246 C 961.417969 246 965 242.417969 965 238 Z "/>
<path style=" stroke:none;fill-rule:nonzero;fill:rgb(100%,100%,100%);fill-opacity:1;" d="M 957 238 L 963 238 C 963 234.6875 960.3125 232 957 232 C 953.6875 232 951 234.6875 951 238 C 951 241.3125 953.6875 244 957 244 C 960.3125 244 963 241.3125 963 238 Z "/>
<path style=" stroke:none;fill-rule:nonzero;fill:rgb(0%,0%,0%);fill-opacity:1;" d="M 996 238 L 1004 238 C 1004 233.582031 1000.417969 230 996 230 C 991.582031 230 988 233.582031 988 238 C 988 242.417969 991.582031 246 996 246 C 1000.417969 246 1004 242.417969 1004 238 Z "/>
<path style=" stroke:none;fill-rule:nonzero;fill:rgb(100%,100%,100%);fill-opacity:1;" d="M 996 238 L 1002 238 C 1002 234.6875 999.3125 232 996 232 C 992.6875 232 990 234.6875 990 238 C 990 241.3125 992.6875 244 996 244 C 999.3125 244 1002 241.3125 1002 238 Z "/>
<path style=" stroke:none;fill-rule:nonzero;fill:rgb(0%,0%,0%);fill-opacity:1;" d="M 976.5 192 L 984.5 192 C 984.5 187.582031 980.917969 184 976.5 184 C 972.082031 184 968.5 187.582031 968.5 192 C 968.5 196.417969 972.082031 200 976.5 200 C 980.917969 200 984.5 196.417969 984.5 192 Z "/>
<path style=" stroke:none;fill-rule:nonzero;fill:rgb(100%,100%,100%);fill-opacity:1;" d="M 976.5 192 L 982.5 192 C 982.5 188.6875 979.8125 186 976.5 186 C 973.1875 186 970.5 188.6875 970.5 192 C 970.5 195.3125 973.1875 198 976.5 198 C 979.8125 198 982.5 195.3125 982.5 192 Z "/>
<path style=" stroke:none;fill-rule:nonzero;fill:rgb(0%,0%,0%);fill-opacity:1;" d="M 1022 192 L 1030 192 C 1030 187.582031 1026.417969 184 1022 184 C 1017.582031 184 1014 187.582031 1014 192 C 1014 196.417969 1017.582031 200 1022 200 C 1026.417969 200 1030 196.417969 1030 192 Z "/>
<path style=" stroke:none;fill-rule:nonzero;fill:rgb(100%,100%,100%);fill-opacity:1;" d="M 1022 192 L 1028 192 C 1028 188.6875 1025.3125 186 1022 186 C 1018.6875 186 1016 188.6875 1016 192 C 1016 195.3125 1018.6875 198 1022 198 C 1025.3125 198 1028 195.3125 1028 192 Z "/>
<path style=" stroke:none;fill-rule:nonzero;fill:rgb(0%,0%,0%);fill-opacity:1;" d="M 999.25 146 L 1007.25 146 C 1007.25 141.582031 1003.667969 138 999.25 138 C 994.832031 138 991.25 141.582031 991.25 146 C 991.25 150.417969 994.832031 154 999.25 154 C 1003.667969 154 1007.25 150.417969 1007.25 146 Z "/>
<path style=" stroke:none;fill-rule:nonzero;fill:rgb(100%,100%,100%);fill-opacity:1;" d="M 999.25 146 L 1005.25 146 C 1005.25 142.6875 1002.5625 140 999.25 140 C 995.9375 140 993.25 142.6875 993.25 146 C 993.25 149.3125 995.9375 152 999.25 152 C 1002.5625 152 1005.25 149.3125 1005.25 146 Z "/>
<path style=" stroke:none;fill-rule:nonzero;fill:rgb(0%,0%,0%);fill-opacity:1;" d="M 1048 146 L 1056 146 C 1056 141.582031 1052.417969 138 1048 138 C 1043.582031 138 1040 141.582031 1040 146 C 1040 150.417969 1043.582031 154 1048 154 C 1052.417969 154 1056 150.417969 1056 146 Z "/>
<path style=" stroke:none;fill-rule:nonzero;fill:rgb(100%,100%,100%);fill-opacity:1;" d="M 1048 146 L 1054 146 C 1054 142.6875 1051.3125 140 1048 140 C 1044.6875 140 1042 142.6875 1042 146 C 1042 149.3125 1044.6875 152 1048 152 C 1051.3125 152 1054 149.3125 1054 146 Z "/>
<path style=" stroke:none;fill-rule:nonzero;fill:rgb(0%,0%,0%);fill-opacity:1;" d="M 1023.625 100 L 1031.625 100 C 1031.625 95.582031 1028.042969 92 1023.625 92 C 1019.207031 92 1015.625 95.582031 1015.625 100 C 1015.625 104.417969 1019.207031 108 1023.625 108 C 1028.042969 108 1031.625 104.417969 1031.625 100 Z "/>
<path style=" stroke:none;fill-rule:nonzero;fill:rgb(100%,100%,100%);fill-opacity:1;" d="M 1023.625 100 L 1029.625 100 C 1029.625 96.6875 1026.9375 94 1023.625 94 C 1020.3125 94 1017.625 96.6875 1017.625 100 C 1017.625 103.3125 1020.3125 106 1023.625 106 C 1026.9375 106 1029.625 103.3125 1029.625 100 Z "/>
<path style=" stroke:none;fill-rule:nonzero;fill:rgb(0%,0%,0%);fill-opacity:1;" d="M 922.0625 54 L 930.0625 54 C 930.0625 49.582031 926.480469 46 922.0625 46 C 917.644531 46 914.0625 49.582031 914.0625 54 C 914.0625 58.417969 917.644531 62 922.0625 62 C 926.480469 62 930.0625 58.417969 930.0625 54 Z "/>
<path style=" stroke:none;fill-rule:nonzero;fill:rgb(100%,100%,100%);fill-opacity:1;" d="M 922.0625 54 L 928.0625 54 C 928.0625 50.6875 925.375 48 922.0625 48 C 918.75 48 916.0625 50.6875 916.0625 54 C 916.0625 57.3125 918.75 60 922.0625 60 C 925.375 60 928.0625 57.3125 928.0625 54 Z "/>
<path style=" stroke:none;fill-rule:nonzero;fill:rgb(0%,0%,0%);fill-opacity:1;" d="M 638.90625 8 L 646.90625 8 C 646.90625 3.582031 643.324219 0 638.90625 0 C 634.488281 0 630.90625 3.582031 630.90625 8 C 630.90625 12.417969 634.488281 16 638.90625 16 C 643.324219 16 646.90625 12.417969 646.90625 8 Z "/>
<path style=" stroke:none;fill-rule:nonzero;fill:rgb(100%,100%,100%);fill-opacity:1;" d="M 638.90625 8 L 644.90625 8 C 644.90625 4.6875 642.21875 2 638.90625 2 C 635.59375 2 632.90625 4.6875 632.90625 8 C 632.90625 11.3125 635.59375 14 638.90625 14 C 642.21875 14 644.90625 11.3125 644.90625 8 Z "/>
</g>
</svg>
